<svg xmlns="http://www.w3.org/2000/svg" viewBox="0 0 208.25 211.08"><defs><style>.cls-1{fill:#ddd;}.cls-2{fill:#b5b5b5;}.cls-3{fill:#32a4fc;}.cls-4{fill:#7ec6fd;}.cls-5{fill:#757575;}.cls-6{fill:#fff;}</style></defs><title>Asset 12</title><g id="Layer_2" data-name="Layer 2"><g id="_3d_printer" data-name="3d printer"><rect class="cls-1" x="19.16" y="152.53" width="172.52" height="15.15"/><rect class="cls-1" x="17.56" y="58.57" width="173.29" height="7.08"/><path class="cls-2" d="M192.55,0H15.7A15.7,15.7,0,0,0,0,15.7V195.38a15.7,15.7,0,0,0,15.7,15.7H192.55a15.7,15.7,0,0,0,15.7-15.7V15.7A15.7,15.7,0,0,0,192.55,0ZM186.4,154.31A10.7,10.7,0,0,1,175.7,165H32.55a10.7,10.7,0,0,1-10.69-10.7V29.85a10.7,10.7,0,0,1,10.69-10.7H175.7a10.7,10.7,0,0,1,10.7,10.7Z"/><circle class="cls-3" cx="105.76" cy="136.17" r="16.37"/><ellipse class="cls-4" cx="97.9" cy="127.16" rx="5.83" ry="2.2" transform="translate(-55.8 81.01) rotate(-35.69)"/><path class="cls-5" d="M91.2,95.24H87.37a1.58,1.58,0,0,1-1.51-1.08L77.54,69.51H101L92.71,94.16A1.59,1.59,0,0,1,91.2,95.24Z"/><rect class="cls-2" x="72.81" y="45.63" width="32.96" height="32.96" rx="6.34"/><path class="cls-6" d="M42.56,185.62H44.9a2.2,2.2,0,0,0,2-.93,4.44,4.44,0,0,0,.62-2.48,3.7,3.7,0,0,0-.64-2.32,2.07,2.07,0,0,0-1.72-.83,2,2,0,0,0-1.64.79,3,3,0,0,0-.65,2H38a6.8,6.8,0,0,1,.9-3.49,6.16,6.16,0,0,1,2.51-2.42,7.41,7.41,0,0,1,3.58-.87,7.4,7.4,0,0,1,5.38,1.89,6.93,6.93,0,0,1,2,5.2,5.85,5.85,0,0,1-.88,3.13,6,6,0,0,1-2.32,2.22,5.33,5.33,0,0,1,2.63,2.25,7.11,7.11,0,0,1,.86,3.56,7,7,0,0,1-2.11,5.31,7.72,7.72,0,0,1-5.55,2,6.8,6.8,0,0,1-7.17-7.16h4.83a3.59,3.59,0,0,0,.7,2.24,2.15,2.15,0,0,0,1.78.91,2.36,2.36,0,0,0,2-.93,3.81,3.81,0,0,0,.73-2.46q0-3.68-2.85-3.69H42.56Z"/><path class="cls-6" d="M56.34,200.27V175.39h6.57a9,9,0,0,1,7,2.77,10.78,10.78,0,0,1,2.64,7.58v4a10.89,10.89,0,0,1-2.59,7.7,9.24,9.24,0,0,1-7.13,2.79Zm5-20.69V196.1h1.5a4.22,4.22,0,0,0,3.54-1.32c.68-.89,1-2.41,1.08-4.58v-4.32c0-2.32-.33-3.94-1-4.86a3.9,3.9,0,0,0-3.31-1.44Z"/><path class="cls-6" d="M89.2,191.52v8.75h-5V175.39h8.48a7.78,7.78,0,0,1,5.89,2.29,8.26,8.26,0,0,1,2.19,5.95,7.68,7.68,0,0,1-2.17,5.77,8.24,8.24,0,0,1-6,2.12Zm0-4.19h3.45a2.71,2.71,0,0,0,2.22-.94,4.1,4.1,0,0,0,.79-2.73,5,5,0,0,0-.8-3,2.59,2.59,0,0,0-2.16-1.11H89.2Z"/><path class="cls-6" d="M111.62,191.18h-2.49v9.09h-5V175.39h8a8.11,8.11,0,0,1,5.83,2,7.26,7.26,0,0,1,2.06,5.56q0,5-3.6,6.94L120.76,200v.24h-5.4ZM109.13,187H112a2.66,2.66,0,0,0,2.26-1,4.34,4.34,0,0,0,.75-2.67c0-2.5-1-3.74-2.92-3.74h-2.94Z"/><path class="cls-6" d="M128.71,200.27h-5V175.39h5Z"/><path class="cls-6" d="M150.33,200.27h-5L138,184v16.32h-5V175.39h5l7.36,16.34V175.39h5Z"/><path class="cls-6" d="M170.48,179.58h-6.15v20.69h-5.05V179.58h-6.05v-4.19h17.25Z"/></g></g></svg>