<svg xmlns="http://www.w3.org/2000/svg" width="243.55" height="100" viewBox="0 0 243.55 100"><path d="M44.56,12.892c-2.854,3.378-7.422,6.042-11.989,5.661C32,13.987,34.236,9.134,36.853,6.137A17.883,17.883,0,0,1,48.746,0,18.063,18.063,0,0,1,44.56,12.892M48.7,19.458c-6.613-.381-12.274,3.758-15.414,3.758-3.187,0-7.992-3.568-13.225-3.473a19.541,19.541,0,0,0-16.6,10.086C-3.68,42.1,1.6,60.276,8.5,70.266c3.378,4.948,7.422,10.371,12.75,10.181,5.043-.19,7.041-3.283,13.13-3.283,6.137,0,7.9,3.283,13.225,3.187,5.519-.1,8.991-4.948,12.369-9.9a43.393,43.393,0,0,0,5.519-11.37c-.1-.1-10.657-4.139-10.752-16.318-.1-10.181,8.325-15.033,8.706-15.319-4.757-7.041-12.179-7.8-14.748-7.992m38.2-13.8V79.829H98.413V54.472H114.35c14.558,0,24.786-9.99,24.786-24.453S129.1,5.661,114.731,5.661H86.9Zm11.513,9.705h13.273c9.99,0,15.7,5.328,15.7,14.7s-5.709,14.748-15.747,14.748H98.413ZM160.164,80.4c7.231,0,13.939-3.663,16.984-9.467h.238v8.9h10.657V42.912c0-10.7-8.563-17.6-21.741-17.6-12.226,0-21.265,6.993-21.6,16.6h10.371c.856-4.567,5.09-7.564,10.894-7.564,7.041,0,10.99,3.283,10.99,9.324v4.091l-14.367.856c-13.368.809-20.6,6.28-20.6,15.794C141.991,74.025,149.46,80.4,160.164,80.4Zm3.092-8.8c-6.137,0-10.038-2.95-10.038-7.469,0-4.662,3.758-7.374,10.942-7.8l12.8-.809v4.186C176.957,66.651,171.058,71.6,163.256,71.6Zm39.01,28.4c11.227,0,16.508-4.282,21.123-17.269l20.219-56.708h-11.7L218.347,69.838h-.238L204.55,26.023H192.514l19.505,54L210.973,83.3c-1.76,5.566-4.615,7.707-9.705,7.707-.9,0-2.664-.1-3.378-.19v8.9A31.711,31.711,0,0,0,202.267,100Z" transform="translate(-0.059)"/></svg>