<svg xmlns="http://www.w3.org/2000/svg" width="161.263" height="100" viewBox="0 0 161.263 100"><g transform="translate(-36.8 -37)"><g transform="translate(36.8 37)"><path d="M180.514,64.4h-49.9L125.5,70.143,109.04,88.714h0l-5.105,5.743H54.669l4.978-5.807,2.361-2.744L66.985,80.1H44.33a7.669,7.669,0,0,0-7.53,7.722h0v16.337a7.628,7.628,0,0,0,7.53,7.722h86.918a19.221,19.221,0,0,0,12.572-5.743L156.966,91.2Z" transform="translate(-36.8 -46.914)" fill="#004e91"/><path d="M200.484,37.064a7.669,7.669,0,0,1,7.53,7.722V61.123a7.628,7.628,0,0,1-7.53,7.722H177.829L182.87,63.1h0l2.489-2.872,5.041-5.743H140.5L113.885,84.479H64.3l35.546-40.2,1.34-1.532C103.994,39.616,109.673,37,113.821,37h86.662Z" transform="translate(-46.751 -37)" fill="#fd0"/></g><path d="M198.064,179.627v-2.361c0-.319-.191-.511-.638-.511h-1.532c-.447,0-.766-.064-.83-.255a2.689,2.689,0,0,1-.128-1.213v-8.934h2.489a.654.654,0,0,0,.638-.638v-2.489a.654.654,0,0,0-.638-.638h-2.489v-3.255a.539.539,0,0,0-.128-.383.907.907,0,0,0-.383-.128h-.064l-3.7.638a3.11,3.11,0,0,0-.447.191.552.552,0,0,0-.191.383v2.489h-2.489a.654.654,0,0,0-.638.638V165.2a.386.386,0,0,0,.191.383,1.029,1.029,0,0,0,.447.255l2.489.383v8.934a10.262,10.262,0,0,0,.319,2.68,4.24,4.24,0,0,0,.957,1.6,3.392,3.392,0,0,0,1.6.766,11.658,11.658,0,0,0,2.234.191,7.327,7.327,0,0,0,1.213-.064c.319-.064.766-.128,1.213-.191a.47.47,0,0,0,.511-.511m-13.274-.319v-2.744a.386.386,0,0,0-.191-.383.907.907,0,0,0-.383-.128h-.064a15.71,15.71,0,0,1-1.659.128,19.284,19.284,0,0,1-2.106.064,2.331,2.331,0,0,1-.957-.191,2.428,2.428,0,0,1-.83-.574,2.456,2.456,0,0,1-.511-1.085,6.422,6.422,0,0,1-.191-1.723v-2.553a6.423,6.423,0,0,1,.191-1.723,3.439,3.439,0,0,1,.511-1.085,2.428,2.428,0,0,1,.83-.574,2.56,2.56,0,0,1,.957-.191,19.284,19.284,0,0,1,2.106.064c.511.064,1.085.064,1.659.128h.064a.54.54,0,0,0,.383-.128.386.386,0,0,0,.191-.383v-2.744a.61.61,0,0,0-.128-.447,1.871,1.871,0,0,0-.511-.255c-.447-.128-.957-.191-1.659-.319a13.9,13.9,0,0,0-2.425-.128,7.024,7.024,0,0,0-5.233,1.978,8.087,8.087,0,0,0-1.978,5.807v2.553a7.917,7.917,0,0,0,1.978,5.807,6.927,6.927,0,0,0,5.233,1.978c.893,0,1.723-.064,2.425-.128a15.5,15.5,0,0,0,1.659-.319.961.961,0,0,0,.511-.255c.128-.064.128-.255.128-.447m-19.974-3.255a6.8,6.8,0,0,1-1.213.447,4.858,4.858,0,0,1-1.34.191,3.028,3.028,0,0,1-1.468-.255c-.319-.191-.447-.574-.447-1.276V174.9a3.863,3.863,0,0,1,.128-.957,1.652,1.652,0,0,1,.447-.7,2.547,2.547,0,0,1,.83-.447,6.77,6.77,0,0,1,1.34-.128h1.723Zm4.85-7.466a7.461,7.461,0,0,0-.511-2.872,5.331,5.331,0,0,0-1.4-1.914,5.228,5.228,0,0,0-2.234-1.085,11.02,11.02,0,0,0-3-.383,22.929,22.929,0,0,0-3,.191,13.3,13.3,0,0,0-2.3.447c-.383.128-.574.319-.574.7v2.489a.922.922,0,0,0,.128.447.907.907,0,0,0,.383.128h.128c.255,0,.574-.064.893-.064.383,0,.766-.064,1.213-.064s.957-.064,1.468-.064h1.468a3.04,3.04,0,0,1,1.659.383,1.985,1.985,0,0,1,.638,1.723v1.085h-1.659c-2.616,0-4.595.383-5.743,1.213a4.457,4.457,0,0,0-1.787,3.957v.255a5.606,5.606,0,0,0,.447,2.489,4.665,4.665,0,0,0,1.212,1.659,5.21,5.21,0,0,0,1.659.893,6.733,6.733,0,0,0,1.978.255,6.54,6.54,0,0,0,2.361-.383,9.312,9.312,0,0,0,1.914-1.021v.511a.654.654,0,0,0,.638.638h3.446a.654.654,0,0,0,.638-.638V168.587Zm-16.4,11.04v-2.361c0-.319-.191-.511-.638-.511h-1.468c-.447,0-.766-.064-.83-.255a2.69,2.69,0,0,1-.128-1.213v-8.934h2.489a.654.654,0,0,0,.638-.638v-2.489a.654.654,0,0,0-.638-.638H150.2v-3.255a.54.54,0,0,0-.128-.383.907.907,0,0,0-.383-.128h-.064l-3.7.638a3.109,3.109,0,0,0-.447.191.552.552,0,0,0-.191.383v2.489H142.8a.654.654,0,0,0-.638.638V165.2a.386.386,0,0,0,.191.383,1.029,1.029,0,0,0,.447.255l2.489.383v8.934a10.261,10.261,0,0,0,.319,2.68,4.24,4.24,0,0,0,.957,1.6,3.121,3.121,0,0,0,1.6.766,11.658,11.658,0,0,0,2.234.191,7.327,7.327,0,0,0,1.213-.064c.319-.064.766-.128,1.213-.191a.455.455,0,0,0,.447-.511m-13.4-.064V169.353a12.916,12.916,0,0,0-.255-2.744,6.237,6.237,0,0,0-.83-2.234,3.716,3.716,0,0,0-1.659-1.468,5.656,5.656,0,0,0-2.744-.574,8.353,8.353,0,0,0-2.616.383,8.956,8.956,0,0,0-2.425,1.276v-.766a.654.654,0,0,0-.638-.638h-3.446a.654.654,0,0,0-.638.638v16.337a.654.654,0,0,0,.638.638h3.7a.654.654,0,0,0,.638-.638V167.5a16.327,16.327,0,0,1,1.532-.7,3.638,3.638,0,0,1,1.4-.255,5.724,5.724,0,0,1,1.149.128,1.341,1.341,0,0,1,.7.447,1.863,1.863,0,0,1,.319.893,8.567,8.567,0,0,1,.064,1.34v10.211a.654.654,0,0,0,.638.638h3.7a.579.579,0,0,0,.447-.191.506.506,0,0,0,.319-.447m-23.229-7.084c0,2.489-.893,3.765-2.744,3.765a2.349,2.349,0,0,1-2.042-.957,4.92,4.92,0,0,1-.7-2.808v-2.17a4.779,4.779,0,0,1,.7-2.808,2.349,2.349,0,0,1,2.042-.957c1.787,0,2.744,1.276,2.744,3.765Zm4.978-2.17a10.654,10.654,0,0,0-.511-3.318,6.954,6.954,0,0,0-1.468-2.489,6.435,6.435,0,0,0-2.425-1.6,9.874,9.874,0,0,0-6.637,0,6.435,6.435,0,0,0-2.425,1.6,6.954,6.954,0,0,0-1.468,2.489,10.654,10.654,0,0,0-.511,3.318v2.17a10.654,10.654,0,0,0,.511,3.318,6.954,6.954,0,0,0,1.468,2.489,6.435,6.435,0,0,0,2.425,1.6,9.874,9.874,0,0,0,6.637,0,6.435,6.435,0,0,0,2.425-1.6A6.954,6.954,0,0,0,121.1,175.8a10.654,10.654,0,0,0,.511-3.318Zm-17.1,9v-2.744a.386.386,0,0,0-.191-.383.922.922,0,0,0-.447-.128h-.064a15.71,15.71,0,0,1-1.659.128c-.511,0-1.213.064-2.106.064a2.331,2.331,0,0,1-.957-.191,2.428,2.428,0,0,1-.83-.574,2.456,2.456,0,0,1-.511-1.085,6.422,6.422,0,0,1-.191-1.723v-2.553a6.422,6.422,0,0,1,.191-1.723,3.439,3.439,0,0,1,.511-1.085,2.428,2.428,0,0,1,.83-.574,2.561,2.561,0,0,1,.957-.191,19.284,19.284,0,0,1,2.106.064c.511.064,1.085.064,1.659.128h.064a.922.922,0,0,0,.447-.128.386.386,0,0,0,.191-.383v-2.744a.61.61,0,0,0-.128-.447,1.871,1.871,0,0,0-.511-.255c-.447-.128-.957-.191-1.659-.319a13.9,13.9,0,0,0-2.425-.128,7.024,7.024,0,0,0-5.233,1.978,8.087,8.087,0,0,0-1.978,5.807v2.553a7.917,7.917,0,0,0,1.978,5.807,6.927,6.927,0,0,0,5.233,1.978c.893,0,1.723-.064,2.425-.128.7-.128,1.213-.191,1.659-.319a.961.961,0,0,0,.511-.255c.128-.064.128-.255.128-.447m-15.061.255V169.353a12.916,12.916,0,0,0-.255-2.744,6.237,6.237,0,0,0-.83-2.234,3.716,3.716,0,0,0-1.659-1.468,5.656,5.656,0,0,0-2.744-.574,8.353,8.353,0,0,0-2.616.383,8.956,8.956,0,0,0-2.425,1.276v-.766a.654.654,0,0,0-.638-.638H74.834a.654.654,0,0,0-.638.638v16.337a.654.654,0,0,0,.638.638h3.7a.654.654,0,0,0,.638-.638V167.5a16.323,16.323,0,0,1,1.532-.7,3.638,3.638,0,0,1,1.4-.255,5.724,5.724,0,0,1,1.149.128,1.341,1.341,0,0,1,.7.447,1.863,1.863,0,0,1,.319.893,8.566,8.566,0,0,1,.064,1.34v10.211a.654.654,0,0,0,.638.638h3.7a.579.579,0,0,0,.447-.191.66.66,0,0,0,.319-.447m-23.74-3.51a6.8,6.8,0,0,1-1.213.447,4.858,4.858,0,0,1-1.34.191,3.027,3.027,0,0,1-1.468-.255c-.319-.191-.447-.574-.447-1.276V174.9a3.862,3.862,0,0,1,.128-.957,1.652,1.652,0,0,1,.447-.7,2.547,2.547,0,0,1,.83-.447,6.77,6.77,0,0,1,1.34-.128h1.723v3.382Zm4.914-7.466a7.461,7.461,0,0,0-.511-2.872,5.331,5.331,0,0,0-1.4-1.914,5.228,5.228,0,0,0-2.234-1.085,11.02,11.02,0,0,0-3-.383,22.929,22.929,0,0,0-3,.191,13.3,13.3,0,0,0-2.3.447c-.383.128-.574.319-.574.7v2.489a.922.922,0,0,0,.128.447.907.907,0,0,0,.383.128h.128c.255,0,.574-.064.893-.064.383,0,.766-.064,1.276-.064.447,0,.957-.064,1.468-.064h1.468a3.04,3.04,0,0,1,1.659.383,1.985,1.985,0,0,1,.638,1.723v1.085H63.986c-2.616,0-4.595.383-5.743,1.213a4.612,4.612,0,0,0-1.787,3.957v.255a5.606,5.606,0,0,0,.447,2.489,4.665,4.665,0,0,0,1.213,1.659,5.21,5.21,0,0,0,1.659.893,6.733,6.733,0,0,0,1.978.255,6.54,6.54,0,0,0,2.361-.383,9.313,9.313,0,0,0,1.914-1.021v.511a.654.654,0,0,0,.638.638h3.446a.654.654,0,0,0,.638-.638V168.587Zm-21.953,4.85a2.431,2.431,0,0,1-.893,1.978,5.708,5.708,0,0,1-3.255.7H41.969v-5.743h3.446a3.148,3.148,0,0,1,2.553.83,3.078,3.078,0,0,1,.7,1.914Zm-.128-9.126a4.926,4.926,0,0,1-.128.957,1.627,1.627,0,0,1-.511.766,3.382,3.382,0,0,1-.957.511,4.98,4.98,0,0,1-1.532.191H41.969v-5.3H44.33a6.836,6.836,0,0,1,3.318.574,2.017,2.017,0,0,1,.957,1.851v.447Zm5.233,8.807a4.784,4.784,0,0,0-.766-2.744,4.85,4.85,0,0,0-1.978-1.787,4.326,4.326,0,0,0,1.914-1.787,5.6,5.6,0,0,0,.7-2.68v-.574a6.391,6.391,0,0,0-.7-3.063,5.349,5.349,0,0,0-1.978-1.978,9.585,9.585,0,0,0-3.063-1.085,24.84,24.84,0,0,0-3.957-.319H42.416c-.511,0-1.021.064-1.532.064a9.559,9.559,0,0,0-1.4.128c-.447.064-.766.064-1.021.128a2.168,2.168,0,0,0-1.276.574,2.133,2.133,0,0,0-.383,1.468V178.1a2.248,2.248,0,0,0,.383,1.468,2.645,2.645,0,0,0,1.276.574,5.619,5.619,0,0,0,1.085.128c.447.064.893.064,1.4.128.511,0,1.021.064,1.532.064h1.6a23.011,23.011,0,0,0,3.765-.319,8.7,8.7,0,0,0,3.063-1.085,6.049,6.049,0,0,0,2.106-2.106,6.8,6.8,0,0,0,.766-3.382v-.447Z" transform="translate(0 -43.457)" fill="#004e91"/></g></svg>