<svg xmlns="http://www.w3.org/2000/svg" viewBox="0 0 304.56 231.55"><defs><style>.cls-1{fill:#4d1c00;}.cls-2{fill:#802300;}.cls-3{fill:#9b3e00;}.cls-4{fill:#b44e00;}.cls-5{fill:#873905;}.cls-6{fill:#b04e00;}.cls-7{fill:#be6008;}</style></defs><title>Asset 5</title><g id="Layer_2" data-name="Layer 2"><g id="Layer_10" data-name="Layer 10"><path class="cls-1" d="M31.19,60.74H236.57a0,0,0,0,1,0,0V79.52a0,0,0,0,1,0,0H31.19a9.39,9.39,0,0,1-9.39-9.39v0a9.39,9.39,0,0,1,9.39-9.39Z"/><path class="cls-2" d="M123.29,71.65h0a7.13,7.13,0,0,1,7.13,7.13v124a0,0,0,0,1,0,0H116.16a0,0,0,0,1,0,0v-124A7.13,7.13,0,0,1,123.29,71.65Z" transform="translate(1.84 -1.63) rotate(0.76)"/><path class="cls-1" d="M164.92,212.8,34.49,231.45a9.39,9.39,0,0,1-10.62-8h0a9.4,9.4,0,0,1,8-10.63l130.42-18.65-4.4,6.14,5.57,2-11.71,6.53Z"/><path class="cls-3" d="M102.7,13.92h0A7.07,7.07,0,0,1,109.77,21V77.84a0,0,0,0,1,0,0H95.63a0,0,0,0,1,0,0V21A7.07,7.07,0,0,1,102.7,13.92Z" transform="translate(207.77 5.7) rotate(135)"/><path class="cls-1" d="M8.07,17H236.71a0,0,0,0,1,0,0V35.74a0,0,0,0,1,0,0H8.07a9.39,9.39,0,0,1-9.39-9.39v0A9.39,9.39,0,0,1,8.07,17Z" transform="translate(5.49 -17.89) rotate(8.9)"/><path class="cls-4" d="M78.85,24.32h0a7.07,7.07,0,0,1,7.07,7.07V165.88a0,0,0,0,1,0,0H71.78a0,0,0,0,1,0,0V31.39a7.07,7.07,0,0,1,7.07-7.07Z" transform="translate(6.28 -4.87) rotate(3.69)"/><path class="cls-3" d="M69.86,184.41h46.5a7.13,7.13,0,0,1,7.13,7.13v0a7.13,7.13,0,0,1-7.13,7.13H69.86a0,0,0,0,1,0,0V184.41A0,0,0,0,1,69.86,184.41Z" transform="translate(150.27 -16.21) rotate(41.25)"/><path class="cls-1" d="M8.2,154.17H233.5a0,0,0,0,1,0,0v18.78a0,0,0,0,1,0,0H8.2a9.39,9.39,0,0,1-9.39-9.39v0a9.39,9.39,0,0,1,9.39-9.39Z" transform="translate(-25.48 21.49) rotate(-9.53)"/><path class="cls-1" d="M208.19,204.87l39.12-5.65c1.54-.22,2.19-4.56,1.45-9.69h0c-.74-5.14-2.59-9.12-4.13-8.89l-39.12,5.64,3.81,4-2.63,4.19,7,1.53Z"/><path class="cls-5" d="M274.13,4.73H253.91a12.86,12.86,0,0,0-11.17,6.41C230.48,32.53,222.23,72.39,222.23,118c0,41.79,6.91,78.72,17.49,101.08a17.64,17.64,0,0,0,16,10h16.06c5.8.23,12.14-3.73,15-9.44C298,197.64,304.56,160.18,304.56,118c0-46.59-8.59-87.15-21.28-108.2A10.67,10.67,0,0,0,274.13,4.73Z"/><ellipse class="cls-6" cx="274.94" cy="116.94" rx="29.62" ry="112.21"/><ellipse class="cls-7" cx="274.94" cy="116.94" rx="23.69" ry="94.17"/><polygon class="cls-1" points="226.6 229.15 179.07 229.15 184.74 225.47 179.07 221.28 186.14 214.12 179.07 211.98 226.6 211.98 222.97 213.84 226.6 217.38 223.9 221.1 226.6 223.98 221.02 224.91 226.6 229.15"/></g></g></svg>