<svg xmlns="http://www.w3.org/2000/svg" width="123" height="72.992" viewBox="0 0 123 72.992"><path d="M45.5,72.886C30.837,71.6,17.9,66.163,9.476,57.743A31.532,31.532,0,0,1,.447,41.608,29.281,29.281,0,0,1,.454,31.373c1.827-8.529,7.338-15.99,16.017-21.681,19.793-12.98,50.114-12.915,69.721.15a40.058,40.058,0,0,1,6.642,5.439A36.963,36.963,0,0,1,100.1,25.423a1.558,1.558,0,0,0,.9.445,11.2,11.2,0,0,1,4.738,2.766c1.158,1.081,2.055,2.26,4.266,5.6,2.229,3.37,12.318,18.949,12.931,19.968.238.4-.233,1.034-.765,1.034-.377,0-.646-.251-1.2-1.128-.394-.62-2.967-4.614-5.719-8.874-9.735-15.078-10.264-15.778-12.975-17.134l-1.426-.713H96.663c-4.181,0-4.187,0-4.288.441-.556,2.412-.657,3-.537,3.115.077.072,2.453,1.425,5.279,3.007l5.139,2.876-.321.674c-.177.371-.38.674-.451.674s-4.4-2.394-9.61-5.321-9.785-5.405-10.157-5.508c-1.483-.41-3.761,1.234-3.761,2.713,0,1.5.445,1.935,9.606,9.437,5.716,4.681,8.986,7.493,9.485,8.157a22.219,22.219,0,0,1,2.674,5.187,10.5,10.5,0,0,0,7.884,7.013l1.308.328-.11.715a3.418,3.418,0,0,1-.187.8c-.168.193-2.8-.648-4.327-1.38a12.373,12.373,0,0,1-5.63-5.611c-.012-.021-.946.3-2.076.711-2.007.732-2.1.792-3.994,2.642C84.508,65.947,72.922,70.984,58.932,72.7a122.593,122.593,0,0,1-13.434.189Zm13.925-2.428A63.567,63.567,0,0,0,76.028,66.2a47.416,47.416,0,0,0,14.233-8.881l1.422-1.349L88.1,54.264c-3.824-1.827-4.2-2.13-4.69-3.763a3.272,3.272,0,0,1,1.017-3.187l.761-.826-1.659-1.26c-1.313-1-1.725-1.434-1.978-2.1a3.332,3.332,0,0,1,.4-3.16l.5-.709-5.245-.923c-2.885-.507-5.573-1.019-5.975-1.138a2.957,2.957,0,0,1-1.794-2c-.111-.471,2.459-13.02,3.033-14.811a3.436,3.436,0,0,1,2.183-1.925c.867-.162,16.326,2.555,17.1,3,1.218.712,1.6,1.856,1.217,3.617l-.162.735h.855c.47,0,1.584-.058,2.475-.127l1.619-.126-.8-1.491c-2.432-4.514-6.821-9.055-12.241-12.663A66.065,66.065,0,0,0,73.542,5.9,69.239,69.239,0,0,0,57.95,2.45a98.914,98.914,0,0,0-13.532.008A65.221,65.221,0,0,0,25.881,7.077C13.272,12.453,4.794,21.358,2.624,31.508a29.182,29.182,0,0,0-.093,9.708,29.085,29.085,0,0,0,7.732,14.246c8.308,8.753,21,14.129,36.215,15.345A128.434,128.434,0,0,0,59.422,70.458Zm-2.779-9.552A2.855,2.855,0,0,1,54.9,58.854c-.109-.581.024-.983.856-2.593a40.631,40.631,0,0,0,4.823-19.753,39.994,39.994,0,0,0-4.507-19.03,19.785,19.785,0,0,1-1.254-2.9,2.95,2.95,0,0,1,1.214-2.1,2.746,2.746,0,0,1,3.01.21,14.234,14.234,0,0,1,1.541,2.529,48.056,48.056,0,0,1,4.653,14.625A57.381,57.381,0,0,1,65.424,42a47.817,47.817,0,0,1-4.409,14.907c-1.376,2.847-2.24,4.019-2.964,4.019a2.141,2.141,0,0,0-.524.08,2.16,2.16,0,0,1-.883-.1Zm-9.358-4.9a2.564,2.564,0,0,1-1.724-2.934c.084-.268.651-1.5,1.259-2.742a30.6,30.6,0,0,0,3.121-16.408,29.616,29.616,0,0,0-3.3-11.6c-1.376-2.812-1.44-3.247-.64-4.379a2.617,2.617,0,0,1,3.656-.336c.691.634,2.841,5.123,3.67,7.665a36.416,36.416,0,0,1-1.192,25.708C50.338,55.223,49.073,56.531,47.286,56.011Zm-9.65-4.965a2.917,2.917,0,0,1-1.558-1.915c-.106-.483.076-1.017.959-2.8a20.57,20.57,0,0,0,.107-19.3c-1.392-2.816-1.422-3.376-.245-4.487a1.855,1.855,0,0,1,1.643-.645c1.369,0,2.078.688,3.3,3.2a24.38,24.38,0,0,1,2.645,11.51,23.426,23.426,0,0,1-2.736,11.518c-1.151,2.333-1.72,2.948-2.872,3.107a2.692,2.692,0,0,1-1.244-.185Zm-9-4.625a3.035,3.035,0,0,1-1.462-1.743c-.223-.779-.04-1.4.844-2.852a8.317,8.317,0,0,0,1.4-5.319,8.318,8.318,0,0,0-1.4-5.319,10.484,10.484,0,0,1-.861-1.689,2.577,2.577,0,0,1,2.041-3c1.17-.22,1.973.3,3.049,1.981a15.165,15.165,0,0,1,0,16.173c-1.1,1.7-2.324,2.3-3.609,1.769ZM95.72,53.973a20.236,20.236,0,0,0,2-.783,4.73,4.73,0,0,0-.447-1.48c-.624-1.551-.523-1.511-2.74-1.087-2.394.458-3.784.05-6.4-1.88a5.91,5.91,0,0,0-1.637-.957,1.884,1.884,0,0,0-.908.609,1.977,1.977,0,0,0-.226,2.511A39.516,39.516,0,0,0,93.2,54.635a11.322,11.322,0,0,0,2.524-.663Zm-1.036-5.036c.976-.2,1.083-.263.915-.576-.187-.35-9.288-7.9-10.077-8.364a1.232,1.232,0,0,0-1.72.287c-1.581,1.695-1.4,2.05,2.7,5.189C91.438,49.26,91.965,49.483,94.684,48.937ZM82.466,37.5c0-.047-1.032-.937-2.294-1.975C77.055,32.959,76.386,32,76.386,30.1a4.689,4.689,0,0,1,2.759-4,4.952,4.952,0,0,1,3.2-.294c.6.2,3.321,1.669,7.089,3.835l.794.456.654-3.1c.67-3.178.682-4.011.062-4.2-.189-.059-3.821-.719-8.073-1.467C75.327,20,74.5,19.923,74.151,20.492c-.187.3-3.059,13.612-3.059,14.178a1.14,1.14,0,0,0,.32.781,42.777,42.777,0,0,0,5.442,1.183C82.3,37.609,82.466,37.636,82.466,37.5Z" transform="translate(0 0)" fill="#b5b5b5"/></svg>