<svg xmlns="http://www.w3.org/2000/svg" width="293.309" height="253.15" viewBox="0 0 293.309 253.15">
  <g id="Group_7" data-name="Group 7" transform="translate(-1132.847 -3580.067)">
    <g id="Layer_2" data-name="Layer 2" transform="translate(1132.847 3819.148) rotate(-90)">
      <g id="Layer_10" data-name="Layer 10" transform="translate(0)">
        <path id="Path_59" data-name="Path 59" d="M142.476,121.706l-108.3,41.529A25.158,25.158,0,0,1,.324,135.791L18.494,21.25A25.171,25.171,0,0,1,59.2,5.639L149.308,78.65A25.163,25.163,0,0,1,142.476,121.706Z" transform="translate(4.917 124.398)" fill="#a5db21"/>
        <circle id="Ellipse_3" data-name="Ellipse 3" cx="63.195" cy="63.195" r="63.195" transform="translate(112.691 95.081)" fill="#a5db21"/>
        <rect id="Rectangle_3" data-name="Rectangle 3" width="135.705" height="135.705" rx="35.44" transform="matrix(0.971, 0.239, -0.239, 0.971, 32.393, 0)" fill="#a5db21"/>
        <path id="Path_60" data-name="Path 60" d="M110.8,32.237,92.076,17.069,24.29.409C23.794.282,23.3.15,22.821,0a25.347,25.347,0,0,0-2.471,7.6L.221,134.467a17.939,17.939,0,0,0,24.137,19.558L144.3,108.008a25.111,25.111,0,0,0,16.072-25.877A63.247,63.247,0,0,1,110.8,32.237Z" transform="translate(3.056 138.096)" fill="#7aab11"/>
        <path id="Path_61" data-name="Path 61" d="M63.172,0a62.9,62.9,0,0,0-28.8,6.965L25.814,41.748A28.164,28.164,0,0,1,0,63.149V63.2A63.431,63.431,0,0,0,1.152,75.252l40.325,32.686a24.835,24.835,0,0,1,9.217,17.219A63.2,63.2,0,1,0,63.172,0Z" transform="translate(112.697 95.081)" fill="#7aab11"/>
        <path id="Path_62" data-name="Path 62" d="M59.827,125.912l30.981,25.1,9.3,2.3a27.9,27.9,0,0,0,8.255.778,63.166,63.166,0,0,1,34.374-56.2L155.127,47.5A19.828,19.828,0,0,0,140.61,23.51L47.327.576A19.834,19.834,0,0,0,23.339,15.1L2.4,100.277c-8.123,23.619,5.922,31.649,19.154,33.666A25.218,25.218,0,0,1,59.827,125.912Z" transform="translate(4.324 4.153)" fill="#7aab11"/>
      </g>
    </g>
    <g id="truck_eco" transform="translate(1132.847 3643.396)">
      <g id="Layer_2-2" data-name="Layer 2">
        <g id="truck_v2" data-name="truck v2">
          <path id="Path_54" data-name="Path 54" d="M173.183,7.677a8.9,8.9,0,0,1,8.9,8.9V152.512H80.473a21.285,21.285,0,1,1-39.157,0H16.577a8.9,8.9,0,0,1-8.9-8.895V16.577a8.9,8.9,0,0,1,8.9-8.9H173.183m0-7.677H16.577A16.6,16.6,0,0,0,0,16.577v127.04a16.6,16.6,0,0,0,16.577,16.572H31.93v.67a28.961,28.961,0,1,0,57.921,0c0-.225,0-.445,0-.67H189.76V16.577A16.6,16.6,0,0,0,173.183,0Z" fill="#2d2d2d"/>
          <path id="Path_55" data-name="Path 55" d="M91.382,265.417A21.28,21.28,0,1,1,70.091,286.7a21.28,21.28,0,0,1,21.29-21.283m0-7.677A28.957,28.957,0,1,0,120.344,286.7,28.956,28.956,0,0,0,91.382,257.74Z" transform="translate(-30.479 -125.833)" fill="#2d2d2d"/>
          <path id="Path_56" data-name="Path 56" d="M438.017,265.417a21.28,21.28,0,1,1-21.28,21.28,21.28,21.28,0,0,1,21.28-21.28m0-7.677A28.957,28.957,0,1,0,466.974,286.7,28.957,28.957,0,0,0,438.017,257.74Z" transform="translate(-199.709 -125.833)" fill="#2d2d2d"/>
          <path id="Path_57" data-name="Path 57" d="M414.512,73.817a7.677,7.677,0,0,1,7.339,5.338l11.049,34.6a6.684,6.684,0,0,0,5.3,4.555l11.966,1.935a12.283,12.283,0,0,1,10.343,12.1v45.8a6.653,6.653,0,0,1-6.653,6.679h-21.1a21.28,21.28,0,1,1-39.172,0H365.836V73.817h48.676m0-7.677H358.18V192.479h26.065v.676a28.936,28.936,0,1,0,57.873,0v-.676h11.73a14.33,14.33,0,0,0,14.33-14.33v-45.8A19.852,19.852,0,0,0,451.4,112.687L440.02,110.85l-10.87-34.034A15.307,15.307,0,0,0,414.512,66.15Z" transform="translate(-174.869 -32.291)" fill="#2d2d2d"/>
          <path id="Path_58" data-name="Path 58" d="M145.3,158.175l17.375-34.049a1.105,1.105,0,0,0-.978-1.612l-10.364-.087a1.6,1.6,0,0,1-1.4-2.329l18.184-35.262a2.262,2.262,0,0,1,2.109-1.218l14.755.578a1.418,1.418,0,0,1,1.111,2.175l-16.172,24.857a.814.814,0,0,0,.655,1.259L184.3,113a.839.839,0,0,1,.589,1.4Z" transform="translate(-70.938 -40.822)" fill="none" stroke="#000" stroke-miterlimit="10" stroke-width="5"/>
        </g>
      </g>
    </g>
  </g>
</svg>
