<svg xmlns="http://www.w3.org/2000/svg" viewBox="0 0 208.25 211.08"><defs><style>.cls-1{fill:#ddd;}.cls-2{fill:#b5b5b5;}.cls-3{fill:#757575;}.cls-4{fill:#fff;}.cls-5{fill:#8fc541;}.cls-6{fill:#ed9121;}.cls-7{fill:#b75f00;}.cls-8{fill:#ffaa4d;}</style></defs><title>Asset 15</title><g id="Layer_2" data-name="Layer 2"><g id="_3d_printer_lasercutter_foodprinter_waterjet" data-name="3d printer lasercutter foodprinter waterjet"><rect class="cls-1" x="19.16" y="152.53" width="172.52" height="15.15"/><rect class="cls-1" x="17.56" y="58.57" width="173.29" height="7.08"/><path class="cls-2" d="M192.55,0H15.7A15.7,15.7,0,0,0,0,15.7V195.38a15.7,15.7,0,0,0,15.7,15.7H192.55a15.7,15.7,0,0,0,15.7-15.7V15.7A15.7,15.7,0,0,0,192.55,0ZM186.4,154.31A10.7,10.7,0,0,1,175.7,165H32.55a10.7,10.7,0,0,1-10.69-10.7V29.85a10.7,10.7,0,0,1,10.69-10.7H175.7a10.7,10.7,0,0,1,10.7,10.7Z"/><path class="cls-3" d="M91.2,95.24H87.37a1.58,1.58,0,0,1-1.51-1.08L77.54,69.51H101L92.71,94.16A1.59,1.59,0,0,1,91.2,95.24Z"/><rect class="cls-2" x="72.81" y="45.63" width="32.96" height="32.96" rx="6.34"/><path class="cls-4" d="M30,190.48H22.22v10.15h-5V175.75H31v4.19H22.22v6.37H30Z"/><path class="cls-4" d="M51.35,190.43c0,3.34-.78,5.93-2.36,7.78A8.2,8.2,0,0,1,42.42,201a8.25,8.25,0,0,1-6.58-2.74q-2.4-2.74-2.43-7.68v-4.26q0-5.11,2.37-8a8.1,8.1,0,0,1,6.6-2.88,8.12,8.12,0,0,1,6.55,2.83c1.59,1.88,2.4,4.53,2.42,7.93Zm-5-4.17a10.36,10.36,0,0,0-1-5,3.54,3.54,0,0,0-5.93-.06,9.78,9.78,0,0,0-1,4.81v4.43a9.22,9.22,0,0,0,1,4.81,3.31,3.31,0,0,0,3,1.55,3.23,3.23,0,0,0,2.92-1.51,9.08,9.08,0,0,0,1-4.7Z"/><path class="cls-4" d="M72.48,190.43q0,5-2.37,7.78A8.2,8.2,0,0,1,63.54,201,8.26,8.26,0,0,1,57,198.23c-1.6-1.83-2.4-4.39-2.43-7.68v-4.26q0-5.11,2.38-8a8.08,8.08,0,0,1,6.6-2.88,8.11,8.11,0,0,1,6.54,2.83c1.6,1.88,2.4,4.53,2.43,7.93Zm-5-4.17a10.23,10.23,0,0,0-1-5,3.54,3.54,0,0,0-5.93-.06,9.68,9.68,0,0,0-1,4.81v4.43a9.24,9.24,0,0,0,1,4.81,3.31,3.31,0,0,0,3,1.55,3.23,3.23,0,0,0,2.92-1.51,9.17,9.17,0,0,0,1-4.7Z"/><path class="cls-4" d="M76.08,200.63V175.75h6.58a9,9,0,0,1,7,2.77,10.79,10.79,0,0,1,2.64,7.59v4q0,4.91-2.59,7.7a9.24,9.24,0,0,1-7.13,2.79Zm5-20.69v16.52h1.5a4.22,4.22,0,0,0,3.54-1.32c.68-.88,1-2.41,1.08-4.57v-4.33c0-2.32-.33-3.94-1-4.86a3.9,3.9,0,0,0-3.31-1.44Z"/><path class="cls-4" d="M109,191.88v8.75h-5V175.75h8.48a7.78,7.78,0,0,1,5.89,2.29,8.26,8.26,0,0,1,2.19,6,7.67,7.67,0,0,1-2.17,5.77,8.2,8.2,0,0,1-6,2.12Zm0-4.19h3.45a2.74,2.74,0,0,0,2.22-.93,4.15,4.15,0,0,0,.79-2.74,4.88,4.88,0,0,0-.81-3,2.55,2.55,0,0,0-2.15-1.12H109Z"/><path class="cls-4" d="M131.37,191.54h-2.5v9.09h-5V175.75h8a8.12,8.12,0,0,1,5.84,2,7.31,7.31,0,0,1,2.06,5.56c0,3.3-1.2,5.62-3.61,6.94l4.36,10.18v.24h-5.4Zm-2.5-4.19h2.86a2.62,2.62,0,0,0,2.25-1,4.26,4.26,0,0,0,.76-2.67c0-2.5-1-3.74-2.93-3.74h-2.94Z"/><path class="cls-4" d="M148.46,200.63h-5V175.75h5Z"/><path class="cls-4" d="M170.08,200.63h-5l-7.35-16.32v16.32h-5V175.75h5l7.37,16.34V175.75h5Z"/><path class="cls-4" d="M190.23,179.94h-6.16v20.69h-5V179.94H173v-4.19h17.25Z"/><g id="carrot"><circle class="cls-5" cx="152.02" cy="118.39" r="4.27"/><circle class="cls-5" cx="156.83" cy="112.08" r="4.27"/><circle class="cls-5" cx="148" cy="108.72" r="7.64"/><circle class="cls-5" cx="155.86" cy="104.74" r="4.27"/><circle class="cls-5" cx="150.52" cy="99.14" r="4.27"/><circle class="cls-5" cx="137.79" cy="105.65" r="4.27"/><circle class="cls-5" cx="142.99" cy="101.27" r="4.27"/><circle class="cls-5" cx="139.85" cy="111.67" r="4.27"/><circle class="cls-5" cx="145.21" cy="117.04" r="4.27"/><path class="cls-5" d="M139.66,111l5.27,5.58a77.62,77.62,0,0,0-6.74,4.84,81,81,0,0,0-5.23,6.47l-5.27-5.59A66,66,0,0,0,134,118,77.22,77.22,0,0,0,139.66,111Z"/><path class="cls-6" d="M130.19,140c-7,4.44-26.71,9.39-37.35,11.84a2.49,2.49,0,0,1-2.48-4c6.59-8,18.71-22.36,24.82-27.14,3.26-2.55,11.63-7.4,18.3-.45C140.87,127.94,133.91,137.62,130.19,140Z"/><path class="cls-7" d="M104.94,148.27a.46.46,0,0,1-.63-.17c-.27-.45-.56-1.47-.83-1.92s-1-1.2-1.28-1.64a.47.47,0,0,1,.16-.64h0a.5.5,0,0,1,.64.17,16.31,16.31,0,0,1,1.28,1.64,14,14,0,0,1,.82,1.92.51.51,0,0,1-.16.64Z"/><path class="cls-7" d="M111.18,146.15a.45.45,0,0,1-.61-.24c-.22-.47-.4-1.52-.61-2s-.88-1.31-1.09-1.78a.46.46,0,0,1,.23-.62h0a.51.51,0,0,1,.61.24,13.34,13.34,0,0,1,1.09,1.78,14.25,14.25,0,0,1,.61,2,.52.52,0,0,1-.23.62Z"/><path class="cls-7" d="M120,143.28a.45.45,0,0,1-.61-.24c-.21-.47-.39-1.52-.61-2s-.88-1.31-1.09-1.78a.47.47,0,0,1,.23-.62h0a.51.51,0,0,1,.61.24,13.34,13.34,0,0,1,1.09,1.78,14.38,14.38,0,0,1,.61,2,.51.51,0,0,1-.23.61Z"/><path class="cls-7" d="M124.47,138.42a.48.48,0,0,1-.62-.24c-.21-.48-.39-1.53-.6-2s-.88-1.31-1.1-1.78a.47.47,0,0,1,.23-.61h0a.49.49,0,0,1,.61.24,14.5,14.5,0,0,1,1.1,1.77,13.1,13.1,0,0,1,.6,2,.52.52,0,0,1-.22.62Z"/><path class="cls-7" d="M105.53,139.62a.47.47,0,0,1-.66,0c-.37-.36-.93-1.27-1.31-1.63s-1.31-.87-1.68-1.23a.46.46,0,0,1,0-.66h0a.51.51,0,0,1,.66,0,15.24,15.24,0,0,1,1.68,1.24,14.28,14.28,0,0,1,1.31,1.62.51.51,0,0,1,0,.66Z"/><path class="cls-7" d="M111.56,133.75a.47.47,0,0,1-.66,0c-.37-.36-.94-1.27-1.31-1.62s-1.31-.88-1.68-1.24a.46.46,0,0,1,0-.66h0a.5.5,0,0,1,.65,0,12.58,12.58,0,0,1,1.68,1.23,12.39,12.39,0,0,1,1.31,1.62.52.52,0,0,1,0,.66Z"/><path class="cls-7" d="M118.42,126.92a.47.47,0,0,1-.66,0c-.37-.36-.93-1.27-1.31-1.62s-1.31-.88-1.68-1.24a.46.46,0,0,1,0-.66h0a.51.51,0,0,1,.66,0,15.24,15.24,0,0,1,1.68,1.24,14.28,14.28,0,0,1,1.31,1.62.51.51,0,0,1,0,.66Z"/><path class="cls-7" d="M117.94,133.67a.47.47,0,0,1-.66,0c-.37-.36-.93-1.27-1.31-1.62s-1.3-.88-1.68-1.24a.46.46,0,0,1,0-.66h0a.51.51,0,0,1,.66,0,14,14,0,0,1,1.68,1.23,14.28,14.28,0,0,1,1.31,1.62.51.51,0,0,1,0,.66Z"/><ellipse class="cls-8" cx="125.24" cy="118.94" rx="0.81" ry="2.41" transform="translate(3.26 241.22) rotate(-88.59)"/></g></g></g></svg>