<svg xmlns="http://www.w3.org/2000/svg" width="251.825" height="100" viewBox="0 0 251.825 100"><g transform="translate(-0.003 0.005)"><path d="M199.4,53.073V82.385h-9.3V10h24.663a22.3,22.3,0,0,1,15.97,6.267A20.146,20.146,0,0,1,237.4,31.54,20.054,20.054,0,0,1,230.733,46.9a22.233,22.233,0,0,1-15.97,6.163H199.4Zm0-34.164V44.178h15.595a12.519,12.519,0,0,0,9.2-21.434,12.129,12.129,0,0,0-9.2-3.841H199.4Z" transform="translate(-80.3 -4.223)" fill="#5f6368"/><path d="M293.279,46.78q10.31,0,16.276,5.51t5.961,15.11V97.925h-8.895V91.052h-.4q-5.776,8.491-15.364,8.491a19.974,19.974,0,0,1-13.695-4.852,15.491,15.491,0,0,1-5.51-12.129,14.709,14.709,0,0,1,5.81-12.227q5.811-4.54,15.514-4.551,8.283,0,13.643,3.032V66.689a10.587,10.587,0,0,0-3.841-8.231,13.169,13.169,0,0,0-8.976-3.39,14.235,14.235,0,0,0-12.331,6.573l-8.19-5.158Q280.035,46.78,293.279,46.78ZM281.248,82.764a7.428,7.428,0,0,0,3.084,6.065,11.344,11.344,0,0,0,7.226,2.426,14.827,14.827,0,0,0,10.46-4.343A13.587,13.587,0,0,0,306.638,76.7q-4.349-3.466-12.129-3.466a15.722,15.722,0,0,0-9.449,2.732C282.513,77.819,281.248,80.066,281.248,82.764Z" transform="translate(-114.746 -19.763)" fill="#5f6368"/><path d="M399.765,49.58l-31.051,71.361h-9.6l11.523-24.969L350.22,49.58h10.108l14.757,35.579h.2L389.64,49.58Z" transform="translate(-147.937 -20.945)" fill="#5f6368"/><path d="M111.934,67.456A49.55,49.55,0,0,0,111.218,59H72V75.016H94.462a19.251,19.251,0,0,1-8.306,12.638v10.4H99.562C107.412,90.813,111.934,80.111,111.934,67.456Z" transform="translate(-30.413 -24.924)" fill="#4285f4"/><path d="M44.826,119.407c11.222,0,20.672-3.685,27.562-10.038l-13.406-10.4A25.223,25.223,0,0,1,21.48,85.78H7.67V96.494a41.586,41.586,0,0,0,37.156,22.913Z" transform="translate(-3.239 -36.237)" fill="#34a853"/><path d="M18.242,66.3a24.917,24.917,0,0,1,0-15.918V39.67H4.431a41.586,41.586,0,0,0,0,37.347Z" transform="translate(0 -16.759)" fill="#fbbc04"/><path d="M44.827,16.459A22.578,22.578,0,0,1,60.78,22.7h0L72.649,10.828A39.957,39.957,0,0,0,44.827,0,41.585,41.585,0,0,0,7.671,22.909L21.481,33.625A24.874,24.874,0,0,1,44.827,16.459Z" transform="translate(-3.239)" fill="#ea4335"/></g></svg>