<svg xmlns="http://www.w3.org/2000/svg" viewBox="0 0 208.25 211.08"><defs><style>.cls-1{fill:#ddd;}.cls-2{fill:#b5b5b5;}.cls-3{fill:#ff2c3c;opacity:0.75;}.cls-4{fill:#8d1b1f;}.cls-5{fill:#757575;}.cls-6{fill:#fff;}</style></defs><title>Asset 16</title><g id="Layer_2" data-name="Layer 2"><g id="_3d_printer_lasercutter_foodprinter_waterjet" data-name="3d printer lasercutter foodprinter waterjet"><rect class="cls-1" x="19.16" y="152.53" width="172.52" height="15.15"/><rect class="cls-1" x="17.56" y="51.57" width="173.29" height="7.08"/><path class="cls-2" d="M192.55,0H15.7A15.7,15.7,0,0,0,0,15.7V195.38a15.7,15.7,0,0,0,15.7,15.7H192.55a15.7,15.7,0,0,0,15.7-15.7V15.7A15.7,15.7,0,0,0,192.55,0ZM186.4,154.31A10.7,10.7,0,0,1,175.7,165H32.55a10.7,10.7,0,0,1-10.69-10.7V29.85a10.7,10.7,0,0,1,10.69-10.7H175.7a10.7,10.7,0,0,1,10.7,10.7Z"/><rect class="cls-3" x="86.69" y="83.07" width="5.41" height="69.46" rx="2.71"/><rect class="cls-4" x="88.61" y="83.13" width="1.57" height="69.39" rx="0.78"/><path class="cls-5" d="M91.2,88.24H87.37a1.58,1.58,0,0,1-1.51-1.08L77.54,62.51H101L92.71,87.16A1.59,1.59,0,0,1,91.2,88.24Z"/><rect class="cls-2" x="72.81" y="38.63" width="32.96" height="32.96" rx="6.34"/><path class="cls-6" d="M63.87,195.4h8.81v4.17H58.84V174.69h5Z"/><path class="cls-6" d="M87.79,194.48H80.94l-1.33,5.09H74.29l7.78-24.88h4.59l7.83,24.88H89.12ZM82,190.29h4.65l-2.32-8.87Z"/><path class="cls-6" d="M107.33,193a3.12,3.12,0,0,0-.78-2.3,9.16,9.16,0,0,0-2.83-1.61,13.05,13.05,0,0,1-5.38-3.33,6.64,6.64,0,0,1-1.64-4.5,6.31,6.31,0,0,1,2.23-5.05,8.39,8.39,0,0,1,5.66-1.9,8.55,8.55,0,0,1,4.09,1,6.78,6.78,0,0,1,2.76,2.73,8.19,8.19,0,0,1,1,4h-5a4.09,4.09,0,0,0-.74-2.66,2.61,2.61,0,0,0-2.14-.92,2.7,2.7,0,0,0-2.06.78,2.94,2.94,0,0,0-.73,2.1,2.56,2.56,0,0,0,.82,1.85,9.51,9.51,0,0,0,2.91,1.72,12.44,12.44,0,0,1,5.28,3.23,7.18,7.18,0,0,1,1.65,4.87,6.44,6.44,0,0,1-2.06,5.07,8.2,8.2,0,0,1-5.63,1.83,9.7,9.7,0,0,1-4.39-1,7.47,7.47,0,0,1-3.1-2.84,8.19,8.19,0,0,1-1.12-4.35h5a4.73,4.73,0,0,0,.84,3.12,3.43,3.43,0,0,0,2.73,1Q107.33,195.83,107.33,193Z"/><path class="cls-6" d="M128.57,188.8h-7.83v6.6H130v4.17H115.72V174.69H130v4.18h-9.23v5.88h7.83Z"/><path class="cls-6" d="M140.43,190.48h-2.5v9.09h-5V174.69h8a8.16,8.16,0,0,1,5.84,1.95,7.33,7.33,0,0,1,2.06,5.57q0,4.95-3.61,6.94l4.36,10.18v.24h-5.4Zm-2.5-4.19h2.86a2.62,2.62,0,0,0,2.25-1,4.36,4.36,0,0,0,.75-2.67q0-3.75-2.92-3.75h-2.94Z"/></g></g></svg>