<svg xmlns="http://www.w3.org/2000/svg" viewBox="0 0 713.01 346.62"><defs><style>.cls-1{fill:#f0d70f;}.cls-2{fill:#443939;}.cls-3{fill:#d5d5d5;}.cls-4{fill:none;stroke:#443939;stroke-miterlimit:10;stroke-width:2px;}</style></defs><title>Asset 10</title><g id="Layer_2" data-name="Layer 2"><g id="map_outlines" data-name="map outlines"><path class="cls-1" d="M471.93,342.52a5,5,0,0,1-2.47-.66c-3-2.34-39.55-30.85-50.13-39.57-6.91-5.7-16.92-7-20.74-7.35l.19-9.93a22.33,22.33,0,0,0-1-7.17l-2.87-9a7.19,7.19,0,0,1-.25-3.26l3-19.55.44-6.43a7.19,7.19,0,0,0-1.91-5.46,7.41,7.41,0,0,0-5.38-2.33,7.19,7.19,0,0,0-5.23,2.24c-1.5,1.55-4.17,4.51-4.94,6.77-5.33,15.69-15.38,25.08-29.07,27.14l-14.36,2.23a9.9,9.9,0,0,1-5.79-.84l-9.46-4.44a3.48,3.48,0,0,1-2-3.47l.63-6.46a14.87,14.87,0,0,0,.05-2.11l-.82-16.19a13.45,13.45,0,0,1,0-1.68l.58-8.89a11.09,11.09,0,0,0-5-10L301,206.85a14.65,14.65,0,0,0-8-2.35c-.42,0-.84,0-1.26.05l-14.19,1.22-3.57.47a9.66,9.66,0,0,1-1.2.07,9.09,9.09,0,0,1-9.07-8.63l-.55-10.53-.06-.28a9.72,9.72,0,0,0-9.31-7.83l-9.63-.17-9.83-.23a2.89,2.89,0,0,1-2-.93l-6.61-7.26a18.49,18.49,0,0,1-3.93-6.78l-5.43-16.79c-.91-5.22-4.49-13.78-12.53-14.42-.72-.06-1.81-.09-3.34-.09-2.29,0-4.79.06-5.18.07a10.35,10.35,0,0,0-5.82,1.84l-4.85,3.36a5.35,5.35,0,0,1-1.83.8l-5,1.12a2.66,2.66,0,0,1-.69.08,3.12,3.12,0,0,1-1.55-.41l-3.45-1.94a4,4,0,0,1-1-.8L150.87,114l-1.82-2.42a11.84,11.84,0,0,1-2.36-8.16l1.46-17.73-5.22-10.92,85.5-46.28,7.19,12.92a8.74,8.74,0,0,0,7.65,4.52,8.87,8.87,0,0,0,4-1l.15-.08.15-.09c3.44-2.18,8-4.71,9.36-5a8.85,8.85,0,0,1,1.89-.18c6.68,0,17.27,5.32,20.79,7.36l.35.21.38.13a50.12,50.12,0,0,0,14.7,2.42,32.39,32.39,0,0,0,5.34-.42c4.84-.81,20.41-4.64,23-20.23l11.8-.42a7.23,7.23,0,0,0,6.36-4.35l.61-1.43-.49-1.47c-.48-1.54-2.57-9.5,5-12.32a8.52,8.52,0,0,1,3-.55c5.37,0,10.25,5.12,12.09,7.32a6.26,6.26,0,0,0,9.09.52l.62-.58.33-.78c1.19-2.72,5.7-10.58,10.63-10.87h.28c4.61,0,8.07,7.41,9,9.68a5.67,5.67,0,0,0,9.83,1.16c5.2-7.14,8.51-8.74,9.25-8.74,2.26.4,5.69,8.27,7,16.19l.12.74.38.64c.24.41,5.92,10,14.93,13.38,8.05,3,17.48,3.67,24,3.67,1.93,0,3.51,0,4.54-.11,1.79,1.65,9.22,8.48,12.33,10.73,4.1,3,14.3,9.18,20,12.61a1.89,1.89,0,0,1,.9,2l-2.78,16a1.13,1.13,0,0,1-.14.36,116.17,116.17,0,0,0-9.86,18.6c-4.7,11.6-5.23,20.6-1.59,26.77,3.45,5.82,18.32,9.22,44.2,10.09a3.76,3.76,0,0,1,1.82.52c6.83,4,10.75,7,11.6,8.2,4,5.58,2.65,8.8,1,12.89a16.91,16.91,0,0,0-1.75,7.2c.32,7.43,9.74,11,13.65,12.12v0a118.24,118.24,0,0,0,.12,13.85,110.25,110.25,0,0,0,3.08,11.69.59.59,0,0,1-.16.54c-3.22,3.24-7.41,7.57-9.12,9.77-2.73,3.53-8.73,13.78-9.62,15.31a1.11,1.11,0,0,1-.9.48.91.91,0,0,1-.23,0L524,228.2A9.58,9.58,0,0,0,522,228a9.23,9.23,0,0,0-7.29,3.61L504.57,245a24.37,24.37,0,0,0-3.16,5.52l-7,16.91a18.75,18.75,0,0,0-1.09,3.73c-.84,4.55-2.23,12.73-2.23,16.33,0,6.86,2.4,13.35,7.78,21,.32.46.66.92,1,1.41,2.87,3.94,5.83,8,5,15.57a37.25,37.25,0,0,1-3,6.46l-.1.17-.08.18a5.5,5.5,0,0,1-3.29,3l-20.9,6.88a3.32,3.32,0,0,1-.95.17l-4.44.18Z"/><path class="cls-2" d="M382.73,8.21c.57,0,3,1.76,5.23,7.15a9.79,9.79,0,0,0,16.94,2,36.67,36.67,0,0,1,5.2-6,43.29,43.29,0,0,1,3.72,11.68l.25,1.48.76,1.29c.67,1.15,6.84,11.31,17,15.15,8.63,3.26,18.59,3.94,25.42,3.94,1.13,0,2.15,0,3,0,2.86,2.62,8.68,7.87,11.45,9.89,3.77,2.73,12.17,7.89,19,12L488.34,80.7a119,119,0,0,0-9.86,18.75c-5.21,12.84-5.65,23.07-1.32,30.4,1.9,3.2,6.34,10.71,47.53,12.1,6.2,3.63,9.55,6.2,10.33,7.08,2.6,3.68,2,5.21.48,8.88a20.77,20.77,0,0,0-2,8.92c.35,8.33,8,12.75,13.57,14.87a88.54,88.54,0,0,0,.23,11.51,88.33,88.33,0,0,0,2.6,10.3,115.9,115.9,0,0,0-8,8.65c-2.3,3-6.64,10.18-8.78,13.8l-8.27-1.77a13,13,0,0,0-2.79-.3,13.35,13.35,0,0,0-10.55,5.23l-10.18,13.34a28.85,28.85,0,0,0-3.7,6.44l-7,16.92a22,22,0,0,0-1.34,4.55c-1.05,5.73-2.3,13.34-2.3,17.07,0,9.94,4.56,17.72,8.53,23.39.33.48.69,1,1,1.47,2.57,3.54,4.8,6.61,4.26,12.35a45.63,45.63,0,0,1-2.54,5.27l-.19.35-.16.36a1.35,1.35,0,0,1-.82.75l-20.81,6.85-4.4.18a.84.84,0,0,1-.27,0c-4.66-3.63-39.47-30.8-49.71-39.24-6.06-5-13.92-7-19.18-7.83l.11-6.21a26.06,26.06,0,0,0-1.24-8.5l-2.87-9a3.1,3.1,0,0,1-.11-1.39l3-19.38.06-.34,0-.34.43-6.26a11.26,11.26,0,0,0-3-8.54,11.53,11.53,0,0,0-8.38-3.64,11.24,11.24,0,0,0-8.16,3.48c-3.13,3.22-5.11,6-5.89,8.32-4.81,14.14-13.73,22.58-25.8,24.4l-.29,0-14.09,2.18a5.46,5.46,0,0,1-.9.07,5.86,5.86,0,0,1-2.51-.56l-9.05-4.25.59-6a20.59,20.59,0,0,0,.06-2.72l-.82-16.19a9.77,9.77,0,0,1,0-1.21l.58-8.89a15.18,15.18,0,0,0-6.9-13.73l-14.29-9.24a18.68,18.68,0,0,0-10.21-3c-.53,0-1.08,0-1.61.07l-14.1,1.22h-.18l-.17,0-3.49.46a5,5,0,0,1-5.64-4.7l-.54-10.25,0-.57-.11-.56a13.84,13.84,0,0,0-13.27-11.15l-9.58-.17-9.32-.22-6.25-6.87a14.4,14.4,0,0,1-3.06-5.27l-5.34-16.54c-1.21-6.43-5.82-16.68-16.19-17.5-.84-.07-2-.1-3.67-.1-2.27,0-4.75.06-5.25.07a14.39,14.39,0,0,0-8.08,2.56l-4.86,3.37a1.13,1.13,0,0,1-.39.17l-4.61,1-3.1-1.74L154,111.39l-1.71-2.28a7.8,7.8,0,0,1-1.55-5.36l1.36-16.62.19-2.21-1-2-3.05-6.4L226.85,34,232,43.39a12.85,12.85,0,0,0,17.18,5.19l.3-.16.29-.18a63.16,63.16,0,0,1,8.18-4.5,4.91,4.91,0,0,1,.88-.07c5.11,0,14.2,4.18,18.72,6.81l.69.4.76.27a53.87,53.87,0,0,0,16.05,2.65,37.37,37.37,0,0,0,6-.48C318.4,50.41,324.48,40,326.62,33l8.71-.31a11.34,11.34,0,0,0,10-6.84L346.54,23l-1-2.94a11.3,11.3,0,0,1-.3-3.67c.2-1.91.91-2.8,2.84-3.52a4.45,4.45,0,0,1,1.58-.29c3,0,6.57,3,8.95,5.85a10.37,10.37,0,0,0,15,.87l1.24-1.17.67-1.55c1.56-3.61,5.22-8.29,7.1-8.4h0m0-8.21-.52,0c-8.62.5-14.15,13.33-14.15,13.33a2.15,2.15,0,0,1-1.49.59,2.11,2.11,0,0,1-1.64-.76c-2.54-3-8.29-8.78-15.24-8.78a12.52,12.52,0,0,0-4.44.81c-11.76,4.38-7.48,17.44-7.48,17.44A3.08,3.08,0,0,1,335,24.52L321.68,25a2.25,2.25,0,0,0-2.16,2c-.46,4.5-3.28,15.44-19.78,18.21a28.15,28.15,0,0,1-4.66.37,46.06,46.06,0,0,1-13.36-2.2s-13.57-7.93-22.86-7.93a12.53,12.53,0,0,0-2.8.29c-2.93.67-10.65,5.55-10.65,5.55a4.65,4.65,0,0,1-6.2-1.87l-7.12-12.9a4.16,4.16,0,0,0-5.62-1.65l-86,46.57A3.45,3.45,0,0,0,139,76l5,10.48-1.37,16.62a16.05,16.05,0,0,0,3.18,11l1.93,2.57,20.43,22.62a7.92,7.92,0,0,0,2,1.62l3.45,1.95a7.23,7.23,0,0,0,5.17.76l5-1.12A9.3,9.3,0,0,0,187,141l4.86-3.36a6.2,6.2,0,0,1,3.54-1.1s2.71-.07,5.12-.07c1.21,0,2.34,0,3,.07,7.18.57,8.86,11.3,8.86,11.3l5.52,17.09a22.63,22.63,0,0,0,4.8,8.27l6.62,7.26a6.9,6.9,0,0,0,5,2.27l9.86.24,9.62.17a5.56,5.56,0,0,1,5.36,4.5l.54,10.24a13.21,13.21,0,0,0,13.17,12.53,14.48,14.48,0,0,0,1.73-.11l3.48-.46,14.1-1.21c.31,0,.61,0,.91,0a10.57,10.57,0,0,1,5.75,1.7l14.29,9.24a7,7,0,0,1,3.17,6.31l-.58,8.89a19.29,19.29,0,0,0,0,2.15l.82,16.19a9.49,9.49,0,0,1,0,1.51l-.63,6.46a7.57,7.57,0,0,0,4.32,7.58l9.45,4.45a14.09,14.09,0,0,0,6,1.34,14.29,14.29,0,0,0,2.16-.17l14.09-2.18c3.43-.53,23.44-3,32.6-29.91.59-1.73,4-5.25,4-5.25a3.09,3.09,0,0,1,2.27-1,3.18,3.18,0,0,1,3.2,3.41l-.43,6.26-3,19.38a11.29,11.29,0,0,0,.4,5.13l2.87,9a18.37,18.37,0,0,1,.86,5.84l-.2,10.54A3.6,3.6,0,0,0,397,299s12.25.29,19.77,6.5c11.14,9.19,50.41,39.79,50.41,39.79a9.07,9.07,0,0,0,4.8,1.37h.38l4.44-.19a7.63,7.63,0,0,0,2.07-.37l20.89-6.89a9.5,9.5,0,0,0,5.77-5.26s3.24-5.82,3.49-8c1.14-10.17-3.71-15.51-6.7-19.79-4.41-6.3-7-12.09-7-18.69,0-3.41,1.52-12.08,2.16-15.59a14.74,14.74,0,0,1,.86-2.91l7-16.91a20.34,20.34,0,0,1,2.64-4.59L518,234.1a5.05,5.05,0,0,1,4-2,5.55,5.55,0,0,1,1.07.11l10.4,2.23a5.12,5.12,0,0,0,1.09.12,5.2,5.2,0,0,0,4.4-2.43s6.67-11.46,9.37-14.94c1.66-2.14,6.18-6.78,8.78-9.4a4.71,4.71,0,0,0,1.21-4.53s-2.59-8.27-3-11.12a119.13,119.13,0,0,1-.08-13.18,4.57,4.57,0,0,0-1.86-3.83s-11.55-2.84-11.8-8.65c-.24-5.57,7.69-11.49,0-22.3-2-2.77-9.41-7.32-12.87-9.35a8,8,0,0,0-3.76-1.09c-7.88-.26-37-1.66-40.79-8.07-7-11.83,8.17-36.18,11.34-41a5,5,0,0,0,.75-1.9l2.78-16a6,6,0,0,0-2.83-6.17c-5.45-3.28-15.71-9.5-19.72-12.41-3.24-2.35-12.25-10.7-12.25-10.7A3.79,3.79,0,0,0,462,36.6h-.2c-1,0-2.58.11-4.48.11-5.82,0-14.92-.54-22.53-3.41S421.92,21.7,421.92,21.7s-3.1-18.25-10.39-19.55a4,4,0,0,0-.7-.06c-4.35,0-9.84,6.69-12.56,10.43a1.56,1.56,0,0,1-1.28.65,1.59,1.59,0,0,1-1.46-1c-1.81-4.34-6-12.2-12.8-12.2Z"/><circle class="cls-2" cx="322.71" cy="103.64" r="3.55"/><circle class="cls-2" cx="322.71" cy="149.76" r="3.55"/><circle class="cls-2" cx="403.32" cy="113.32" r="3.55"/><circle class="cls-2" cx="222.97" cy="121.53" r="3.55"/><circle class="cls-2" cx="206.55" cy="64.07" r="3.55"/><circle class="cls-2" cx="460.51" cy="98.52" r="3.55"/><circle class="cls-2" cx="345.75" cy="58.05" r="3.55"/><circle class="cls-2" cx="160.56" cy="82.68" r="3.55"/><circle class="cls-2" cx="288.29" cy="74.47" r="3.55"/><circle class="cls-2" cx="355.17" cy="29.53" r="3.55"/><path class="cls-2" d="M6,.3H7.82V10.37a4.56,4.56,0,0,1-1,3.19A3.57,3.57,0,0,1,4,14.72a3.63,3.63,0,0,1-2.81-1.1,4.31,4.31,0,0,1-1-3H2a3,3,0,0,0,.54,1.91A1.81,1.81,0,0,0,4,13.18a1.78,1.78,0,0,0,1.49-.74A3.41,3.41,0,0,0,6,10.36Z"/><path class="cls-2" d="M17.42,10.8h-4.8l-1.11,3.72H9.68L14.26.3h1.53l4.59,14.22H18.54ZM13.09,9.27H17L15,2.8Z"/><path class="cls-2" d="M22.31,14.52V.3h4.06a4.06,4.06,0,0,1,2.92,1,3.75,3.75,0,0,1,1,2.84,3.17,3.17,0,0,1-.49,1.76A3.43,3.43,0,0,1,28.43,7,2.74,2.74,0,0,1,30,8.23a4.06,4.06,0,0,1,.57,2.19,4.18,4.18,0,0,1-1.05,3,4,4,0,0,1-3,1.09ZM24.1,6.37h2.3a1.94,1.94,0,0,0,1.5-.63,2.37,2.37,0,0,0,.57-1.66A2.39,2.39,0,0,0,28,2.37a2.1,2.1,0,0,0-1.58-.54H24.1Zm0,1.5V13h2.44a2.05,2.05,0,0,0,1.61-.67,2.74,2.74,0,0,0,.6-1.88c0-1.71-.72-2.57-2.17-2.57Z"/><path class="cls-2" d="M33.22,14.52V.3h4.06a4.06,4.06,0,0,1,2.92,1,3.79,3.79,0,0,1,1,2.84,3.1,3.1,0,0,1-.5,1.76A3.33,3.33,0,0,1,39.34,7a2.69,2.69,0,0,1,1.54,1.2,4.06,4.06,0,0,1,.58,2.19,4.22,4.22,0,0,1-1.05,3,4,4,0,0,1-3,1.09ZM35,6.37H37.3a1.93,1.93,0,0,0,1.5-.63,2.38,2.38,0,0,0,.58-1.66,2.39,2.39,0,0,0-.52-1.71,2.12,2.12,0,0,0-1.58-.54H35Zm0,1.5V13h2.44a2.05,2.05,0,0,0,1.61-.67,2.74,2.74,0,0,0,.6-1.88c0-1.71-.72-2.57-2.17-2.57Z"/><path class="cls-2" d="M51,8h-5v5h5.86v1.53H44.13V.3h7.55V1.83H45.92V6.41h5Z"/><path class="cls-2" d="M57.25,8l-1.4,1.69v4.86H54.06V.3h1.79V7.17L57,5.61,60.85.3H63L58.38,6.56l5,8H61.22Z"/><path class="cls-2" d="M71.78,8h-5v5h5.86v1.53H65V.3h7.55V1.83H66.75V6.41h5Z"/><path class="cls-3" d="M4.43,28.08H3.22V19.65l-2.1.94V19.44l3.12-1.36h.19Z"/><path class="cls-3" d="M8.23,23.09l.44-5H13v1.17H9.68L9.45,22a2.24,2.24,0,0,1,1.33-.43,2.14,2.14,0,0,1,1.82.9,4,4,0,0,1,.67,2.43,3.66,3.66,0,0,1-.73,2.42,2.4,2.4,0,0,1-2,.88,2.42,2.42,0,0,1-1.83-.73,3.16,3.16,0,0,1-.81-2H9.07a2.32,2.32,0,0,0,.49,1.29,1.34,1.34,0,0,0,2.11-.18,3.05,3.05,0,0,0,.39-1.65,2.76,2.76,0,0,0-.42-1.59,1.35,1.35,0,0,0-1.16-.62,1.41,1.41,0,0,0-1,.32l-.32.32Z"/><path class="cls-3" d="M18.13,28.08v-10H20.5a3.41,3.41,0,0,1,2.71,1.1,4.46,4.46,0,0,1,1,3.06V24a4.38,4.38,0,0,1-1,3.05,3.63,3.63,0,0,1-2.84,1.08Zm1.25-8.88V27h1a2.35,2.35,0,0,0,1.93-.75A3.62,3.62,0,0,0,22.94,24V22.24a3.57,3.57,0,0,0-.61-2.31,2.22,2.22,0,0,0-1.83-.73Z"/><path class="cls-3" d="M30.9,23.48H27.38V27h4.1v1.08H26.12v-10h5.29V19.2h-4v3.2H30.9Z"/><path class="cls-3" d="M39.32,24.91a3.72,3.72,0,0,1-.9,2.45,3.06,3.06,0,0,1-2.31.85,2.84,2.84,0,0,1-2.38-1.13A4.91,4.91,0,0,1,32.85,24v-1.8a4.72,4.72,0,0,1,.91-3.07A3,3,0,0,1,36.23,18a2.89,2.89,0,0,1,2.23.86,3.78,3.78,0,0,1,.86,2.47H38.05a3,3,0,0,0-.51-1.74,1.59,1.59,0,0,0-1.31-.52,1.8,1.8,0,0,0-1.57.8,4.16,4.16,0,0,0-.54,2.33V24a4.43,4.43,0,0,0,.5,2.31,1.66,1.66,0,0,0,1.49.81,1.82,1.82,0,0,0,1.41-.48,3.09,3.09,0,0,0,.53-1.75Z"/><path class="cls-3" d="M49.51,28.08H44v-.91l2.83-3.76A7.53,7.53,0,0,0,47.67,22a2.78,2.78,0,0,0,.25-1.18,2.07,2.07,0,0,0-.37-1.28,1.14,1.14,0,0,0-1-.49,1.41,1.41,0,0,0-1.17.52A2.42,2.42,0,0,0,45,21.06H43.79a3.21,3.21,0,0,1,.75-2.22,2.57,2.57,0,0,1,2-.85,2.44,2.44,0,0,1,1.88.73,2.72,2.72,0,0,1,.68,1.93,6.13,6.13,0,0,1-1.54,3.5l-2.21,2.9h4.12Z"/><path class="cls-3" d="M56.17,23.83a6.59,6.59,0,0,1-.64,3.29,2.41,2.41,0,0,1-4,.05A6.18,6.18,0,0,1,50.84,24v-1.7a6.48,6.48,0,0,1,.65-3.26,2.44,2.44,0,0,1,4,0,5.9,5.9,0,0,1,.68,3.08ZM55,22.1a5.83,5.83,0,0,0-.34-2.32A1.18,1.18,0,0,0,53.5,19a1.14,1.14,0,0,0-1.09.73A5.6,5.6,0,0,0,52.05,22V24a5.91,5.91,0,0,0,.36,2.36,1.17,1.17,0,0,0,1.11.79,1.14,1.14,0,0,0,1.08-.74A5.68,5.68,0,0,0,55,24.16Z"/><path class="cls-3" d="M61.37,28.08H60.15V19.65l-2.09.94V19.44l3.12-1.36h.19Z"/><path class="cls-3" d="M68.66,23.83a2.14,2.14,0,0,1-1.7.92,2,2,0,0,1-1.73-.92,4.08,4.08,0,0,1-.64-2.4,4.07,4.07,0,0,1,.7-2.5,2.37,2.37,0,0,1,3.88.15,5.53,5.53,0,0,1,.7,3v.37a11.43,11.43,0,0,1-.25,2.68,4.32,4.32,0,0,1-.73,1.66,3.08,3.08,0,0,1-1.24,1,4.7,4.7,0,0,1-1.88.32V27H66a2.58,2.58,0,0,0,2-.78A3.8,3.8,0,0,0,68.66,23.83Zm-1.49-.13a1.3,1.3,0,0,0,.85-.36,2.44,2.44,0,0,0,.65-1v-.54a4.17,4.17,0,0,0-.43-2c-.29-.52-.63-.78-1-.78a1.17,1.17,0,0,0-1,.65,3.21,3.21,0,0,0-.39,1.68,3.34,3.34,0,0,0,.38,1.68A1.13,1.13,0,0,0,67.17,23.7Z"/><path class="cls-3" d="M6.4,66.17H.83v-.91L3.67,61.5a8.46,8.46,0,0,0,.89-1.42,2.81,2.81,0,0,0,.25-1.18,2.08,2.08,0,0,0-.37-1.29,1.15,1.15,0,0,0-1-.49,1.39,1.39,0,0,0-1.17.52,2.36,2.36,0,0,0-.42,1.51H.67a3.17,3.17,0,0,1,.76-2.22,2.57,2.57,0,0,1,2-.85,2.42,2.42,0,0,1,1.87.73A2.69,2.69,0,0,1,6,58.75a6.18,6.18,0,0,1-1.54,3.49l-2.22,2.9H6.4Z"/><path class="cls-3" d="M12,56.21v1.07h-.2a2.49,2.49,0,0,0-1.89.82,4,4,0,0,0-.78,2.38,2.13,2.13,0,0,1,3.44.07,4.7,4.7,0,0,1-.07,4.85,2.34,2.34,0,0,1-1.92.91,2.27,2.27,0,0,1-1.95-1.08,4.93,4.93,0,0,1-.74-2.85V61.9a9.66,9.66,0,0,1,.45-3.27A3.64,3.64,0,0,1,9.6,56.82a3.81,3.81,0,0,1,2.15-.61ZM10.57,60.7a1.31,1.31,0,0,0-.91.37,2.17,2.17,0,0,0-.61,1v.5a4.08,4.08,0,0,0,.43,2,1.24,1.24,0,0,0,1,.76,1.19,1.19,0,0,0,1.06-.62A3.1,3.1,0,0,0,12,63a3.16,3.16,0,0,0-.38-1.66A1.15,1.15,0,0,0,10.57,60.7Z"/><path class="cls-3" d="M21.56,56.22h1.26v7.05a3.19,3.19,0,0,1-.73,2.23,2.48,2.48,0,0,1-1.95.81,2.54,2.54,0,0,1-2-.77,3,3,0,0,1-.71-2.12h1.25a2.14,2.14,0,0,0,.38,1.34,1.25,1.25,0,0,0,1.05.47,1.22,1.22,0,0,0,1-.51,2.41,2.41,0,0,0,.39-1.46Z"/><path class="cls-3" d="M29.54,63.57H26.18l-.77,2.6H24.12l3.21-10H28.4l3.21,10H30.33Zm-3-1.08h2.71L27.86,58Z"/><path class="cls-3" d="M39.47,66.17H38.21l-4-7.67v7.67H33v-10h1.25l4,7.7v-7.7h1.25Z"/><path class="cls-3" d="M50.13,66.17H44.57v-.91L47.4,61.5a8.64,8.64,0,0,0,.9-1.42,3,3,0,0,0,.25-1.18,2.14,2.14,0,0,0-.37-1.29,1.15,1.15,0,0,0-1-.49,1.42,1.42,0,0,0-1.18.52,2.42,2.42,0,0,0-.41,1.51H44.41a3.21,3.21,0,0,1,.75-2.22,2.58,2.58,0,0,1,2.05-.85,2.43,2.43,0,0,1,1.87.73,2.73,2.73,0,0,1,.68,1.94,6.11,6.11,0,0,1-1.54,3.49L46,65.14h4.12Z"/><path class="cls-3" d="M56.8,61.93a6.63,6.63,0,0,1-.65,3.29,2.4,2.4,0,0,1-4,0,6.14,6.14,0,0,1-.69-3.14V60.41a6.48,6.48,0,0,1,.65-3.26,2.45,2.45,0,0,1,4,0,6.13,6.13,0,0,1,.68,3.08ZM55.59,60.2a5.86,5.86,0,0,0-.35-2.33,1.17,1.17,0,0,0-1.12-.75,1.15,1.15,0,0,0-1.09.74,5.54,5.54,0,0,0-.36,2.21v2A6,6,0,0,0,53,64.49a1.18,1.18,0,0,0,1.11.79,1.13,1.13,0,0,0,1.08-.75,5.62,5.62,0,0,0,.37-2.28Z"/><path class="cls-3" d="M64,66.17H58.39v-.91l2.84-3.76a9.17,9.17,0,0,0,.89-1.42,2.81,2.81,0,0,0,.25-1.18A2.08,2.08,0,0,0,62,57.61a1.15,1.15,0,0,0-1-.49,1.39,1.39,0,0,0-1.17.52,2.36,2.36,0,0,0-.42,1.51H58.23A3.21,3.21,0,0,1,59,56.93,2.61,2.61,0,0,1,61,56.08a2.42,2.42,0,0,1,1.87.73,2.69,2.69,0,0,1,.68,1.94,6.15,6.15,0,0,1-1.53,3.49l-2.22,2.9H64Z"/><path class="cls-3" d="M70.62,61.93A6.76,6.76,0,0,1,70,65.22a2.41,2.41,0,0,1-4,0,6.15,6.15,0,0,1-.68-3.14V60.41a6.49,6.49,0,0,1,.64-3.26,2.45,2.45,0,0,1,4,0,6,6,0,0,1,.68,3.08ZM69.41,60.2a5.86,5.86,0,0,0-.35-2.33,1.19,1.19,0,0,0-2.21,0,5.54,5.54,0,0,0-.36,2.21v2a6,6,0,0,0,.36,2.37,1.18,1.18,0,0,0,1.11.79,1.16,1.16,0,0,0,1.09-.75,5.83,5.83,0,0,0,.36-2.28Z"/><path class="cls-3" d="M6.15,102.39a6.59,6.59,0,0,1-.64,3.29,2.17,2.17,0,0,1-2,1.09,2.2,2.2,0,0,1-2-1,6.19,6.19,0,0,1-.68-3.15v-1.71a6.45,6.45,0,0,1,.64-3.25,2.17,2.17,0,0,1,2-1.07,2.21,2.21,0,0,1,2,1,6,6,0,0,1,.68,3.09Zm-1.21-1.73a5.89,5.89,0,0,0-.35-2.33,1.14,1.14,0,0,0-1.11-.74,1.16,1.16,0,0,0-1.1.73A5.6,5.6,0,0,0,2,100.54v2A5.94,5.94,0,0,0,2.38,105a1.17,1.17,0,0,0,2.2,0,5.87,5.87,0,0,0,.36-2.28Z"/><path class="cls-3" d="M13.31,106.64H7.74v-.91L10.58,102a8.47,8.47,0,0,0,.89-1.43,2.78,2.78,0,0,0,.25-1.18,2,2,0,0,0-.37-1.28,1.14,1.14,0,0,0-1-.49,1.4,1.4,0,0,0-1.17.52,2.36,2.36,0,0,0-.42,1.51H7.58a3.26,3.26,0,0,1,.76-2.23,2.6,2.6,0,0,1,2-.84,2.45,2.45,0,0,1,1.87.72,2.72,2.72,0,0,1,.69,1.94,6.2,6.2,0,0,1-1.54,3.5L9.18,105.6h4.13Z"/><path class="cls-3" d="M22.75,102.24H19.38v4.4H18.13v-10h5.18v1.08H19.38v3.41h3.37Z"/><path class="cls-3" d="M29.63,102H26.11v3.52h4.1v1.08H24.86v-10h5.28v1.08h-4V101h3.52Z"/><path class="cls-3" d="M31.81,106.64v-10h2.84a2.81,2.81,0,0,1,2.05.67,2.66,2.66,0,0,1,.68,2,2.16,2.16,0,0,1-.35,1.23,2.28,2.28,0,0,1-.94.82,1.88,1.88,0,0,1,1.08.84,2.82,2.82,0,0,1,.4,1.53,2.91,2.91,0,0,1-.73,2.11,2.78,2.78,0,0,1-2.1.77Zm1.25-5.71h1.61a1.37,1.37,0,0,0,1-.44,2,2,0,0,0,0-2.36,1.49,1.49,0,0,0-1.11-.37H33.06Zm0,1v3.58h1.71a1.41,1.41,0,0,0,1.13-.47,1.89,1.89,0,0,0,.42-1.31c0-1.2-.51-1.8-1.52-1.8Z"/><path class="cls-3" d="M47.94,106.64H42.38v-.91L45.22,102a8.47,8.47,0,0,0,.89-1.43,2.78,2.78,0,0,0,.25-1.18A2,2,0,0,0,46,98.08a1.15,1.15,0,0,0-1-.49,1.39,1.39,0,0,0-1.17.52,2.36,2.36,0,0,0-.42,1.51H42.22A3.25,3.25,0,0,1,43,97.39,2.63,2.63,0,0,1,45,96.55a2.45,2.45,0,0,1,1.87.72,2.72,2.72,0,0,1,.69,1.94,6.2,6.2,0,0,1-1.54,3.5l-2.22,2.89h4.12Z"/><path class="cls-3" d="M54.61,102.39a6.59,6.59,0,0,1-.64,3.29,2.17,2.17,0,0,1-2,1.09,2.2,2.2,0,0,1-2-1,6.19,6.19,0,0,1-.68-3.15v-1.71a6.45,6.45,0,0,1,.64-3.25,2.17,2.17,0,0,1,2-1.07,2.21,2.21,0,0,1,2,1,6,6,0,0,1,.68,3.09Zm-1.21-1.73a5.89,5.89,0,0,0-.35-2.33,1.2,1.2,0,0,0-2.21,0,5.6,5.6,0,0,0-.36,2.22v2a5.94,5.94,0,0,0,.36,2.36,1.17,1.17,0,0,0,2.2,0,5.87,5.87,0,0,0,.36-2.28Z"/><path class="cls-3" d="M61.77,106.64H56.2v-.91L59,102a8.47,8.47,0,0,0,.89-1.43,2.78,2.78,0,0,0,.25-1.18,2,2,0,0,0-.37-1.28,1.14,1.14,0,0,0-1-.49,1.39,1.39,0,0,0-1.17.52,2.36,2.36,0,0,0-.42,1.51H56a3.26,3.26,0,0,1,.76-2.23,2.6,2.6,0,0,1,2-.84,2.45,2.45,0,0,1,1.87.72,2.72,2.72,0,0,1,.69,1.94,6.2,6.2,0,0,1-1.54,3.5l-2.22,2.89h4.13Z"/><path class="cls-3" d="M68.43,102.39a6.59,6.59,0,0,1-.64,3.29,2.17,2.17,0,0,1-2,1.09,2.2,2.2,0,0,1-2-1,6.3,6.3,0,0,1-.68-3.15v-1.71a6.33,6.33,0,0,1,.65-3.25,2.17,2.17,0,0,1,2-1.07,2.2,2.2,0,0,1,2,1,6,6,0,0,1,.68,3.09Zm-1.21-1.73a5.71,5.71,0,0,0-.35-2.33,1.14,1.14,0,0,0-1.11-.74,1.13,1.13,0,0,0-1.09.73,5.4,5.4,0,0,0-.37,2.22v2a5.74,5.74,0,0,0,.37,2.36,1.17,1.17,0,0,0,1.1.79,1.15,1.15,0,0,0,1.09-.74,5.87,5.87,0,0,0,.36-2.28Z"/><path class="cls-3" d="M6.15,141.86a6.64,6.64,0,0,1-.64,3.29,2.19,2.19,0,0,1-2,1.09,2.19,2.19,0,0,1-2-1.05,6.15,6.15,0,0,1-.68-3.14v-1.71a6.52,6.52,0,0,1,.64-3.26,2.19,2.19,0,0,1,2-1.07,2.2,2.2,0,0,1,2,1,6,6,0,0,1,.68,3.08Zm-1.21-1.73a5.86,5.86,0,0,0-.35-2.33,1.15,1.15,0,0,0-1.11-.75,1.16,1.16,0,0,0-1.1.74A5.51,5.51,0,0,0,2,140v2.05a6,6,0,0,0,.36,2.37,1.18,1.18,0,0,0,1.11.79,1.16,1.16,0,0,0,1.09-.75,5.83,5.83,0,0,0,.36-2.28Z"/><path class="cls-3" d="M11.34,146.1H10.13v-8.43L8,138.61v-1.15l3.11-1.36h.19Z"/><path class="cls-3" d="M22.48,143.59a1.55,1.55,0,0,0-.4-1.15,4.25,4.25,0,0,0-1.46-.77,6.17,6.17,0,0,1-1.61-.79,2.72,2.72,0,0,1-.83-.94,2.53,2.53,0,0,1-.28-1.22,2.58,2.58,0,0,1,.79-1.94,2.86,2.86,0,0,1,2.07-.77,3.11,3.11,0,0,1,1.56.39,2.69,2.69,0,0,1,1.05,1.09,3.15,3.15,0,0,1,.37,1.53H22.48a2.13,2.13,0,0,0-.44-1.43,1.62,1.62,0,0,0-1.28-.51,1.46,1.46,0,0,0-1.59,1.62,1.41,1.41,0,0,0,.45,1.06,4,4,0,0,0,1.39.75,4.88,4.88,0,0,1,2.1,1.2,2.73,2.73,0,0,1,.64,1.86,2.54,2.54,0,0,1-.79,1.94,3,3,0,0,1-2.14.73,3.46,3.46,0,0,1-1.6-.38,2.85,2.85,0,0,1-1.16-1.07,3,3,0,0,1-.42-1.57H18.9a1.77,1.77,0,0,0,1.92,1.94,1.66,1.66,0,0,0,1.24-.42A1.56,1.56,0,0,0,22.48,143.59Z"/><path class="cls-3" d="M30.16,141.5H26.64V145h4.1v1.07H25.39v-9.95h5.28v1.07h-4v3.21h3.52Z"/><path class="cls-3" d="M33.59,142.2v3.9H32.34v-9.95h3.17a2.88,2.88,0,0,1,2.18.83,3.56,3.56,0,0,1,0,4.42,2.9,2.9,0,0,1-2.13.8Zm0-1.07h1.92a1.6,1.6,0,0,0,1.28-.5,2.51,2.51,0,0,0,0-2.87,1.54,1.54,0,0,0-1.25-.54H33.59Z"/><path class="cls-3" d="M48.59,146.1H43v-.91l2.84-3.76a9.17,9.17,0,0,0,.89-1.42,3,3,0,0,0,.25-1.18,2.14,2.14,0,0,0-.37-1.29,1.15,1.15,0,0,0-1-.49,1.39,1.39,0,0,0-1.17.52,2.36,2.36,0,0,0-.42,1.51H42.87a3.21,3.21,0,0,1,.75-2.22,2.61,2.61,0,0,1,2.05-.85,2.42,2.42,0,0,1,1.87.73,2.69,2.69,0,0,1,.68,1.94,6.15,6.15,0,0,1-1.53,3.49l-2.22,2.9h4.12Z"/><path class="cls-3" d="M55.26,141.86a6.76,6.76,0,0,1-.64,3.29,2.41,2.41,0,0,1-4,0,6,6,0,0,1-.68-3.14v-1.71a6.52,6.52,0,0,1,.64-3.26,2.45,2.45,0,0,1,4-.05,6,6,0,0,1,.68,3.08Zm-1.21-1.73a5.86,5.86,0,0,0-.35-2.33,1.19,1.19,0,0,0-2.21,0,5.51,5.51,0,0,0-.36,2.21v2.05a6,6,0,0,0,.36,2.37,1.18,1.18,0,0,0,1.11.79,1.16,1.16,0,0,0,1.09-.75,5.83,5.83,0,0,0,.36-2.28Z"/><path class="cls-3" d="M60.45,146.1H59.24v-8.43l-2.09.94v-1.15l3.11-1.36h.19Z"/><path class="cls-3" d="M67.74,141.85a2.12,2.12,0,0,1-1.69.92,2,2,0,0,1-1.73-.91,4.08,4.08,0,0,1-.65-2.4,4.17,4.17,0,0,1,.7-2.51,2.29,2.29,0,0,1,1.92-.94,2.21,2.21,0,0,1,2,1.09,5.53,5.53,0,0,1,.71,3v.38a11.55,11.55,0,0,1-.25,2.68,4.34,4.34,0,0,1-.74,1.65,3,3,0,0,1-1.23.95,4.72,4.72,0,0,1-1.88.33V145h.21a2.48,2.48,0,0,0,2-.78A3.8,3.8,0,0,0,67.74,141.85Zm-1.49-.12a1.34,1.34,0,0,0,.86-.37,2.38,2.38,0,0,0,.64-1v-.53a4.12,4.12,0,0,0-.43-2,1.21,1.21,0,0,0-1-.79,1.19,1.19,0,0,0-1.05.65,4,4,0,0,0,0,3.36A1.14,1.14,0,0,0,66.25,141.73Z"/><path class="cls-3" d="M6.4,186.87H.83V186l2.84-3.76a8.09,8.09,0,0,0,.89-1.43,2.77,2.77,0,0,0,.25-1.17,2.08,2.08,0,0,0-.37-1.29,1.15,1.15,0,0,0-1-.49,1.39,1.39,0,0,0-1.17.52,2.36,2.36,0,0,0-.42,1.51H.67a3.17,3.17,0,0,1,.76-2.22,2.57,2.57,0,0,1,2-.85,2.42,2.42,0,0,1,1.87.73A2.68,2.68,0,0,1,6,179.44a6.2,6.2,0,0,1-1.54,3.5l-2.22,2.9H6.4Z"/><path class="cls-3" d="M11.72,182.62a2.12,2.12,0,0,1-1.69.92,2,2,0,0,1-1.73-.92,4.08,4.08,0,0,1-.65-2.4,4.14,4.14,0,0,1,.7-2.5,2.26,2.26,0,0,1,1.91-.94,2.22,2.22,0,0,1,2,1.09,5.53,5.53,0,0,1,.71,3v.37a12,12,0,0,1-.25,2.68A4.32,4.32,0,0,1,12,185.6a3.05,3.05,0,0,1-1.23,1,4.72,4.72,0,0,1-1.88.33V185.8h.21A2.56,2.56,0,0,0,11,185,3.8,3.8,0,0,0,11.72,182.62Zm-1.49-.13a1.28,1.28,0,0,0,.85-.36,2.44,2.44,0,0,0,.65-1v-.54a4.17,4.17,0,0,0-.43-2,1.22,1.22,0,0,0-1-.78,1.19,1.19,0,0,0-1,.65,3.22,3.22,0,0,0-.38,1.68,3.34,3.34,0,0,0,.37,1.68A1.13,1.13,0,0,0,10.23,182.49Z"/><path class="cls-3" d="M22.48,184.35a1.54,1.54,0,0,0-.4-1.14,4.25,4.25,0,0,0-1.46-.77,6.17,6.17,0,0,1-1.61-.79,2.81,2.81,0,0,1-.83-.94,2.55,2.55,0,0,1-.28-1.22,2.6,2.6,0,0,1,.79-2,2.86,2.86,0,0,1,2.07-.76,3.11,3.11,0,0,1,1.56.39,2.69,2.69,0,0,1,1.05,1.09,3.15,3.15,0,0,1,.37,1.53H22.48a2.13,2.13,0,0,0-.44-1.43,1.62,1.62,0,0,0-1.28-.51,1.56,1.56,0,0,0-1.18.43,1.61,1.61,0,0,0-.41,1.19,1.38,1.38,0,0,0,.45,1.05,3.79,3.79,0,0,0,1.39.76,4.88,4.88,0,0,1,2.1,1.2,2.69,2.69,0,0,1,.64,1.86,2.54,2.54,0,0,1-.79,1.94,3,3,0,0,1-2.14.73,3.46,3.46,0,0,1-1.6-.38,2.92,2.92,0,0,1-1.16-1.07,3,3,0,0,1-.42-1.58H18.9a1.77,1.77,0,0,0,1.92,2,1.66,1.66,0,0,0,1.24-.42A1.57,1.57,0,0,0,22.48,184.35Z"/><path class="cls-3" d="M30.16,182.27H26.64v3.53h4.1v1.07H25.39v-10h5.28V178h-4v3.2h3.52Z"/><path class="cls-3" d="M33.59,183v3.9H32.34v-10h3.17a2.84,2.84,0,0,1,2.18.83,3.56,3.56,0,0,1,0,4.42,2.94,2.94,0,0,1-2.13.8Zm0-1.07h1.92a1.63,1.63,0,0,0,1.28-.5,2.51,2.51,0,0,0,0-2.87,1.54,1.54,0,0,0-1.25-.54H33.59Z"/><path class="cls-3" d="M48.59,186.87H43V186l2.84-3.76a8.73,8.73,0,0,0,.89-1.43A2.93,2.93,0,0,0,47,179.6a2.14,2.14,0,0,0-.37-1.29,1.15,1.15,0,0,0-1-.49,1.39,1.39,0,0,0-1.17.52,2.36,2.36,0,0,0-.42,1.51H42.87a3.21,3.21,0,0,1,.75-2.22,2.61,2.61,0,0,1,2.05-.85,2.42,2.42,0,0,1,1.87.73,2.68,2.68,0,0,1,.68,1.93,6.18,6.18,0,0,1-1.53,3.5l-2.22,2.9h4.12Z"/><path class="cls-3" d="M55.26,182.62a6.77,6.77,0,0,1-.64,3.3,2.41,2.41,0,0,1-4,0,6.09,6.09,0,0,1-.68-3.15v-1.7a6.49,6.49,0,0,1,.64-3.26,2.45,2.45,0,0,1,4,0,6,6,0,0,1,.68,3.08Zm-1.21-1.73a5.83,5.83,0,0,0-.35-2.32,1.2,1.2,0,0,0-2.21,0,5.6,5.6,0,0,0-.36,2.22v2a5.91,5.91,0,0,0,.36,2.36,1.17,1.17,0,0,0,2.2,0,5.87,5.87,0,0,0,.36-2.28Z"/><path class="cls-3" d="M60.45,186.87H59.24v-8.43l-2.09.94v-1.15l3.11-1.36h.19Z"/><path class="cls-3" d="M67.74,182.62a2.12,2.12,0,0,1-1.69.92,2,2,0,0,1-1.73-.92,4.08,4.08,0,0,1-.65-2.4,4.14,4.14,0,0,1,.7-2.5,2.26,2.26,0,0,1,1.92-.94,2.21,2.21,0,0,1,2,1.09,5.53,5.53,0,0,1,.71,3v.37a11.43,11.43,0,0,1-.25,2.68A4.32,4.32,0,0,1,68,185.6a3.05,3.05,0,0,1-1.23,1,4.72,4.72,0,0,1-1.88.33V185.8h.21a2.54,2.54,0,0,0,2-.78A3.8,3.8,0,0,0,67.74,182.62Zm-1.49-.13a1.32,1.32,0,0,0,.86-.36,2.53,2.53,0,0,0,.64-1v-.54a4.17,4.17,0,0,0-.43-2,1.22,1.22,0,0,0-1-.78,1.19,1.19,0,0,0-1.05.65,4,4,0,0,0,0,3.36A1.13,1.13,0,0,0,66.25,182.49Z"/><path class="cls-3" d="M611.36,28.08h-1.21V19.65l-2.09.94V19.44l3.11-1.36h.19Z"/><path class="cls-3" d="M620.24,28.08h-5.57v-.91l2.84-3.76A8.09,8.09,0,0,0,618.4,22a2.78,2.78,0,0,0,.25-1.18,2.07,2.07,0,0,0-.37-1.28,1.14,1.14,0,0,0-1-.49,1.4,1.4,0,0,0-1.17.52,2.36,2.36,0,0,0-.41,1.51h-1.22a3.21,3.21,0,0,1,.76-2.22,2.57,2.57,0,0,1,2-.85,2.42,2.42,0,0,1,1.87.73,2.68,2.68,0,0,1,.69,1.93,6.2,6.2,0,0,1-1.54,3.5l-2.22,2.9h4.13Z"/><path class="cls-3" d="M628.49,18.12h1.26v7.05a3.2,3.2,0,0,1-.73,2.24,2.48,2.48,0,0,1-2,.8,2.52,2.52,0,0,1-2-.76,3,3,0,0,1-.71-2.12h1.25a2.1,2.1,0,0,0,.38,1.33,1.25,1.25,0,0,0,1,.48,1.22,1.22,0,0,0,1-.52,2.36,2.36,0,0,0,.39-1.45Z"/><path class="cls-3" d="M636.47,25.47h-3.36l-.77,2.61h-1.29l3.21-10h1.07l3.21,10h-1.28Zm-3-1.07h2.71l-1.36-4.53Z"/><path class="cls-3" d="M646.4,28.08h-1.26l-4-7.67v7.67H639.9v-10h1.25l4,7.71V18.12h1.25Z"/><path class="cls-3" d="M657.06,28.08H651.5v-.91l2.83-3.76a8.25,8.25,0,0,0,.9-1.43,2.94,2.94,0,0,0,.25-1.18,2.13,2.13,0,0,0-.37-1.28,1.15,1.15,0,0,0-1-.49,1.42,1.42,0,0,0-1.18.52,2.42,2.42,0,0,0-.41,1.51h-1.21a3.21,3.21,0,0,1,.75-2.22,2.58,2.58,0,0,1,2-.85,2.43,2.43,0,0,1,1.87.73,2.72,2.72,0,0,1,.68,1.93,6.13,6.13,0,0,1-1.54,3.5l-2.21,2.9h4.12Z"/><path class="cls-3" d="M663.73,23.83a6.58,6.58,0,0,1-.65,3.29,2.15,2.15,0,0,1-2,1.09,2.18,2.18,0,0,1-2-1A6.09,6.09,0,0,1,658.4,24v-1.7a6.49,6.49,0,0,1,.64-3.26,2.45,2.45,0,0,1,4,0,6.11,6.11,0,0,1,.68,3.08Zm-1.21-1.73a5.8,5.8,0,0,0-.35-2.32,1.17,1.17,0,0,0-1.12-.75,1.14,1.14,0,0,0-1.09.73A5.6,5.6,0,0,0,659.6,22V24a5.91,5.91,0,0,0,.36,2.36,1.17,1.17,0,0,0,1.11.79,1.14,1.14,0,0,0,1.08-.74,5.65,5.65,0,0,0,.37-2.28Z"/><path class="cls-3" d="M670.88,28.08h-5.56v-.91l2.84-3.76a8.73,8.73,0,0,0,.89-1.43,2.78,2.78,0,0,0,.25-1.18,2.13,2.13,0,0,0-.37-1.28,1.15,1.15,0,0,0-1-.49,1.39,1.39,0,0,0-1.17.52,2.36,2.36,0,0,0-.42,1.51h-1.21a3.21,3.21,0,0,1,.75-2.22A2.61,2.61,0,0,1,668,18a2.42,2.42,0,0,1,1.87.73,2.68,2.68,0,0,1,.68,1.93,6.18,6.18,0,0,1-1.53,3.5l-2.22,2.9h4.12Z"/><path class="cls-3" d="M677.55,23.83a6.7,6.7,0,0,1-.64,3.29,2.42,2.42,0,0,1-4,.05,6.09,6.09,0,0,1-.68-3.15v-1.7a6.49,6.49,0,0,1,.64-3.26,2.45,2.45,0,0,1,4,0,6,6,0,0,1,.68,3.08Zm-1.21-1.73a5.8,5.8,0,0,0-.35-2.32,1.2,1.2,0,0,0-2.21,0,5.6,5.6,0,0,0-.36,2.22V24a5.91,5.91,0,0,0,.36,2.36,1.17,1.17,0,0,0,2.2.05,5.87,5.87,0,0,0,.36-2.28Z"/><path class="cls-3" d="M611.36,66.17h-1.21V57.74l-2.09.94V57.53l3.11-1.36h.19Z"/><path class="cls-3" d="M615.16,61.18l.43-5h4.33v1.17h-3.31l-.23,2.71a2.24,2.24,0,0,1,1.33-.43,2.14,2.14,0,0,1,1.82.9A4,4,0,0,1,620.2,63a3.69,3.69,0,0,1-.73,2.43,2.65,2.65,0,0,1-3.8.15,3.21,3.21,0,0,1-.81-2H616a2.32,2.32,0,0,0,.49,1.29,1.33,1.33,0,0,0,2.11-.18A3,3,0,0,0,619,63a2.69,2.69,0,0,0-.43-1.59,1.31,1.31,0,0,0-1.15-.61,1.4,1.4,0,0,0-1,.31l-.32.32Z"/><path class="cls-3" d="M629.41,63.66a1.55,1.55,0,0,0-.4-1.15,4.25,4.25,0,0,0-1.46-.77,6.17,6.17,0,0,1-1.61-.79,2.72,2.72,0,0,1-.83-.94,2.51,2.51,0,0,1-.28-1.21,2.59,2.59,0,0,1,.79-1.95,2.86,2.86,0,0,1,2.07-.77,3.11,3.11,0,0,1,1.56.39,2.69,2.69,0,0,1,1,1.09,3.15,3.15,0,0,1,.37,1.53h-1.26a2.13,2.13,0,0,0-.44-1.43,1.62,1.62,0,0,0-1.28-.51,1.59,1.59,0,0,0-1.18.43,1.61,1.61,0,0,0-.42,1.19,1.39,1.39,0,0,0,.46,1.06,4.11,4.11,0,0,0,1.39.76,4.78,4.78,0,0,1,2.1,1.19,2.72,2.72,0,0,1,.63,1.86,2.53,2.53,0,0,1-.78,1.94,3,3,0,0,1-2.14.73,3.46,3.46,0,0,1-1.6-.38A2.85,2.85,0,0,1,625,64.86a3,3,0,0,1-.42-1.57h1.26a1.77,1.77,0,0,0,1.92,1.94,1.66,1.66,0,0,0,1.24-.42A1.56,1.56,0,0,0,629.41,63.66Z"/><path class="cls-3" d="M637.09,61.57h-3.52V65.1h4.1v1.07h-5.36v-10h5.29v1.07h-4V60.5h3.52Z"/><path class="cls-3" d="M640.52,62.27v3.9h-1.25v-10h3.17a2.86,2.86,0,0,1,2.18.83,3.56,3.56,0,0,1,0,4.42,2.9,2.9,0,0,1-2.13.8Zm0-1.07h1.92a1.6,1.6,0,0,0,1.28-.5,2.51,2.51,0,0,0,0-2.87,1.54,1.54,0,0,0-1.25-.54h-1.93Z"/><path class="cls-3" d="M655.52,66.17H650v-.91l2.84-3.76a9.17,9.17,0,0,0,.89-1.42,3,3,0,0,0,.25-1.18,2.14,2.14,0,0,0-.37-1.29,1.15,1.15,0,0,0-1-.49,1.39,1.39,0,0,0-1.17.52,2.36,2.36,0,0,0-.42,1.51H649.8a3.21,3.21,0,0,1,.75-2.22,2.61,2.61,0,0,1,2.05-.85,2.42,2.42,0,0,1,1.87.73,2.69,2.69,0,0,1,.68,1.94,6.15,6.15,0,0,1-1.53,3.49l-2.22,2.9h4.12Z"/><path class="cls-3" d="M662.19,61.93a6.76,6.76,0,0,1-.64,3.29,2.41,2.41,0,0,1-4,0,6,6,0,0,1-.68-3.14V60.41a6.49,6.49,0,0,1,.64-3.26,2.45,2.45,0,0,1,4,0,6,6,0,0,1,.68,3.08ZM661,60.2a5.86,5.86,0,0,0-.35-2.33,1.19,1.19,0,0,0-2.21,0,5.54,5.54,0,0,0-.36,2.21v2a6,6,0,0,0,.36,2.37,1.18,1.18,0,0,0,1.11.79,1.16,1.16,0,0,0,1.09-.75,5.83,5.83,0,0,0,.36-2.28Z"/><path class="cls-3" d="M667.38,66.17h-1.21V57.74l-2.1.94V57.53l3.12-1.36h.19Z"/><path class="cls-3" d="M674.67,61.92a2.12,2.12,0,0,1-1.69.92,2,2,0,0,1-1.73-.91,4.08,4.08,0,0,1-.65-2.4,4.17,4.17,0,0,1,.7-2.51,2.29,2.29,0,0,1,1.92-.94,2.21,2.21,0,0,1,2,1.09,5.53,5.53,0,0,1,.71,3v.38a11.55,11.55,0,0,1-.25,2.68,4.34,4.34,0,0,1-.74,1.65,3,3,0,0,1-1.23.95,4.72,4.72,0,0,1-1.88.33V65.1H672a2.49,2.49,0,0,0,2-.78A3.8,3.8,0,0,0,674.67,61.92Zm-1.49-.12a1.34,1.34,0,0,0,.86-.37,2.38,2.38,0,0,0,.64-1v-.53a4.12,4.12,0,0,0-.43-2,1.21,1.21,0,0,0-1-.79,1.19,1.19,0,0,0-1.05.65,3.22,3.22,0,0,0-.38,1.68,3.32,3.32,0,0,0,.37,1.68A1.14,1.14,0,0,0,673.18,61.8Z"/><path class="cls-3" d="M613.32,106.64h-5.56v-.91L610.6,102a8.47,8.47,0,0,0,.89-1.43,2.78,2.78,0,0,0,.25-1.18,2,2,0,0,0-.37-1.28,1.15,1.15,0,0,0-1-.49,1.39,1.39,0,0,0-1.17.52,2.36,2.36,0,0,0-.42,1.51H607.6a3.21,3.21,0,0,1,.76-2.23,2.6,2.6,0,0,1,2-.84,2.45,2.45,0,0,1,1.87.72,2.72,2.72,0,0,1,.69,1.94,6.2,6.2,0,0,1-1.54,3.5l-2.22,2.89h4.12Z"/><path class="cls-3" d="M619.25,103.29h1.11v1h-1.11v2.31H618v-2.31h-3.76v-.75l3.7-6.9h1.27Zm-3.63,0H618V98.56Z"/><path class="cls-3" d="M631.56,106.64h-1.25l-4-7.67v7.67h-1.26v-10h1.26l4,7.71V96.68h1.24Z"/><path class="cls-3" d="M640.2,102.53a5,5,0,0,1-.86,3.14,3.31,3.31,0,0,1-4.9,0,4.67,4.67,0,0,1-.93-3v-1.87a5,5,0,0,1,.88-3.13,2.93,2.93,0,0,1,2.46-1.13,3,3,0,0,1,2.46,1.08,4.88,4.88,0,0,1,.89,3.09ZM639,100.79a4.34,4.34,0,0,0-.51-2.35,1.8,1.8,0,0,0-1.59-.77,1.78,1.78,0,0,0-1.56.78,4.14,4.14,0,0,0-.53,2.3v1.78a4.16,4.16,0,0,0,.53,2.33,2,2,0,0,0,3.14.06,4.18,4.18,0,0,0,.52-2.26Z"/><path class="cls-3" d="M644.83,104.72l2.28-8h1.37l-3.09,10h-1.1l-3.09-10h1.37Z"/><path class="cls-3" d="M658.33,106.64h-5.57v-.91L655.6,102a8.47,8.47,0,0,0,.89-1.43,2.78,2.78,0,0,0,.25-1.18,2,2,0,0,0-.37-1.28,1.14,1.14,0,0,0-1-.49,1.4,1.4,0,0,0-1.17.52,2.36,2.36,0,0,0-.42,1.51H652.6a3.21,3.21,0,0,1,.76-2.23,2.6,2.6,0,0,1,2-.84,2.45,2.45,0,0,1,1.87.72,2.72,2.72,0,0,1,.69,1.94,6.2,6.2,0,0,1-1.54,3.5l-2.22,2.89h4.13Z"/><path class="cls-3" d="M665,102.39a6.59,6.59,0,0,1-.64,3.29,2.17,2.17,0,0,1-2,1.09,2.2,2.2,0,0,1-2-1,6.19,6.19,0,0,1-.68-3.15v-1.71a6.33,6.33,0,0,1,.65-3.25,2.17,2.17,0,0,1,2-1.07,2.2,2.2,0,0,1,2,1,6,6,0,0,1,.68,3.09Zm-1.21-1.73a5.89,5.89,0,0,0-.35-2.33,1.14,1.14,0,0,0-1.11-.74,1.13,1.13,0,0,0-1.09.73,5.4,5.4,0,0,0-.37,2.22v2a5.74,5.74,0,0,0,.37,2.36,1.17,1.17,0,0,0,1.1.79,1.15,1.15,0,0,0,1.09-.74,5.87,5.87,0,0,0,.36-2.28Z"/><path class="cls-3" d="M670.19,106.64H669V98.21l-2.09.93V98L670,96.64h.2Z"/><path class="cls-3" d="M677.47,102.38a2.1,2.1,0,0,1-1.69.93,2,2,0,0,1-1.73-.92,4.82,4.82,0,0,1,.06-4.9,2.23,2.23,0,0,1,1.91-.94,2.2,2.2,0,0,1,2,1.09,5.49,5.49,0,0,1,.71,3V101a11.49,11.49,0,0,1-.25,2.68,4.42,4.42,0,0,1-.73,1.65,3.18,3.18,0,0,1-1.24,1,4.88,4.88,0,0,1-1.88.32v-1.07h.21a2.54,2.54,0,0,0,2-.78A3.72,3.72,0,0,0,677.47,102.38Zm-1.49-.12a1.32,1.32,0,0,0,.86-.36,2.51,2.51,0,0,0,.65-1v-.53a4.26,4.26,0,0,0-.43-2,1.24,1.24,0,0,0-1-.78,1.15,1.15,0,0,0-1,.64,3.88,3.88,0,0,0,0,3.37A1.14,1.14,0,0,0,676,102.26Z"/><path class="cls-3" d="M613.32,146.1h-5.56v-.91l2.84-3.76a8.46,8.46,0,0,0,.89-1.42,2.81,2.81,0,0,0,.25-1.18,2.08,2.08,0,0,0-.37-1.29,1.15,1.15,0,0,0-1-.49,1.39,1.39,0,0,0-1.17.52,2.36,2.36,0,0,0-.42,1.51H607.6a3.17,3.17,0,0,1,.76-2.22,2.57,2.57,0,0,1,2-.85,2.42,2.42,0,0,1,1.87.73,2.69,2.69,0,0,1,.69,1.94,6.18,6.18,0,0,1-1.54,3.49l-2.22,2.9h4.12Z"/><path class="cls-3" d="M620,141.86a6.64,6.64,0,0,1-.64,3.29,2.41,2.41,0,0,1-4,0,6.15,6.15,0,0,1-.68-3.14v-1.71a6.52,6.52,0,0,1,.64-3.26,2.45,2.45,0,0,1,4-.05,6,6,0,0,1,.68,3.08Zm-1.21-1.73a5.86,5.86,0,0,0-.35-2.33,1.19,1.19,0,0,0-2.21,0,5.51,5.51,0,0,0-.36,2.21v2.05a6,6,0,0,0,.36,2.37,1.19,1.19,0,0,0,1.11.79,1.15,1.15,0,0,0,1.09-.75,5.83,5.83,0,0,0,.36-2.28Z"/><path class="cls-3" d="M631.54,142a5,5,0,0,1-.87,3.14,3.31,3.31,0,0,1-4.9,0,4.82,4.82,0,0,1-.93-3v-1.87a5,5,0,0,1,.89-3.13,2.93,2.93,0,0,1,2.46-1.13,3,3,0,0,1,2.45,1.09,4.94,4.94,0,0,1,.9,3.09Zm-1.25-1.74a4.28,4.28,0,0,0-.52-2.35,2,2,0,0,0-3.15,0,4.12,4.12,0,0,0-.53,2.3V142a4.13,4.13,0,0,0,.53,2.32,2,2,0,0,0,3.14.07,4.22,4.22,0,0,0,.53-2.27Z"/><path class="cls-3" d="M639.71,142.94a3.65,3.65,0,0,1-.9,2.45,3.06,3.06,0,0,1-2.3.85,2.85,2.85,0,0,1-2.38-1.14,4.91,4.91,0,0,1-.89-3.09v-1.8a4.78,4.78,0,0,1,.91-3.07,3,3,0,0,1,2.47-1.13,2.88,2.88,0,0,1,2.23.86,3.75,3.75,0,0,1,.86,2.47h-1.26a3.12,3.12,0,0,0-.52-1.74,1.61,1.61,0,0,0-1.31-.52,1.77,1.77,0,0,0-1.56.8,4.09,4.09,0,0,0-.55,2.34V142a4.36,4.36,0,0,0,.51,2.32,1.64,1.64,0,0,0,1.49.8,1.78,1.78,0,0,0,1.4-.48,3,3,0,0,0,.54-1.74Z"/><path class="cls-3" d="M647,137.22h-2.62v8.88h-1.25v-8.88h-2.61v-1.07H647Z"/><path class="cls-3" d="M656.72,146.1h-5.57v-.91l2.84-3.76a7.84,7.84,0,0,0,.89-1.42,2.81,2.81,0,0,0,.25-1.18,2.08,2.08,0,0,0-.37-1.29,1.14,1.14,0,0,0-1-.49,1.41,1.41,0,0,0-1.17.52,2.42,2.42,0,0,0-.41,1.51H651a3.21,3.21,0,0,1,.75-2.22,2.57,2.57,0,0,1,2-.85,2.44,2.44,0,0,1,1.88.73,2.73,2.73,0,0,1,.68,1.94,6.11,6.11,0,0,1-1.54,3.49l-2.21,2.9h4.12Z"/><path class="cls-3" d="M663.39,141.86a6.63,6.63,0,0,1-.65,3.29,2.4,2.4,0,0,1-4,0,6.14,6.14,0,0,1-.69-3.14v-1.71a6.5,6.5,0,0,1,.65-3.26,2.44,2.44,0,0,1,4-.05,6,6,0,0,1,.69,3.08Zm-1.22-1.73a5.89,5.89,0,0,0-.34-2.33,1.18,1.18,0,0,0-1.12-.75,1.15,1.15,0,0,0-1.09.74,5.51,5.51,0,0,0-.36,2.21v2.05a6,6,0,0,0,.36,2.37,1.18,1.18,0,0,0,1.11.79,1.13,1.13,0,0,0,1.08-.75,5.48,5.48,0,0,0,.36-2.28Z"/><path class="cls-3" d="M668.58,146.1h-1.22v-8.43l-2.09.94v-1.15l3.12-1.36h.19Z"/><path class="cls-3" d="M675.87,141.85a2.14,2.14,0,0,1-1.7.92,2,2,0,0,1-1.73-.91,4.84,4.84,0,0,1,.06-4.91,2.27,2.27,0,0,1,1.91-.94,2.23,2.23,0,0,1,2,1.09,5.53,5.53,0,0,1,.7,3v.38a11.55,11.55,0,0,1-.25,2.68,4.34,4.34,0,0,1-.73,1.65,3,3,0,0,1-1.24.95,4.69,4.69,0,0,1-1.88.33V145h.21a2.51,2.51,0,0,0,2-.78A3.8,3.8,0,0,0,675.87,141.85Zm-1.49-.12a1.31,1.31,0,0,0,.85-.37,2.3,2.3,0,0,0,.65-1v-.53a4.12,4.12,0,0,0-.43-2c-.29-.53-.63-.79-1-.79a1.17,1.17,0,0,0-1,.65,3.21,3.21,0,0,0-.39,1.68,3.32,3.32,0,0,0,.38,1.68A1.14,1.14,0,0,0,674.38,141.73Z"/><path class="cls-3" d="M611.36,186.87h-1.21v-8.43l-2.09.94v-1.15l3.11-1.36h.19Z"/><path class="cls-3" d="M620,182.62a6.66,6.66,0,0,1-.64,3.3,2.41,2.41,0,0,1-4,0,6.19,6.19,0,0,1-.68-3.15v-1.7a6.49,6.49,0,0,1,.64-3.26,2.45,2.45,0,0,1,4,0,6,6,0,0,1,.68,3.08Zm-1.21-1.73a5.83,5.83,0,0,0-.35-2.32,1.2,1.2,0,0,0-2.21,0,5.6,5.6,0,0,0-.36,2.22v2a5.91,5.91,0,0,0,.36,2.36,1.18,1.18,0,0,0,1.11.79,1.15,1.15,0,0,0,1.09-.74,5.87,5.87,0,0,0,.36-2.28Z"/><path class="cls-3" d="M631.56,186.87h-1.25l-4-7.67v7.67h-1.26v-10h1.26l4,7.7v-7.7h1.24Z"/><path class="cls-3" d="M640.2,182.77a5,5,0,0,1-.86,3.13,3.3,3.3,0,0,1-4.9,0,4.72,4.72,0,0,1-.93-3V181a5,5,0,0,1,.88-3.13,3,3,0,0,1,2.46-1.13,3,3,0,0,1,2.46,1.08,4.91,4.91,0,0,1,.89,3.1ZM639,181a4.28,4.28,0,0,0-.51-2.34,2,2,0,0,0-3.15,0,4.1,4.1,0,0,0-.53,2.29v1.79a4.15,4.15,0,0,0,.53,2.32,2,2,0,0,0,3.14.06,4.16,4.16,0,0,0,.52-2.26Z"/><path class="cls-3" d="M644.83,185l2.28-8h1.37l-3.09,10h-1.1l-3.09-10h1.37Z"/><path class="cls-3" d="M658.33,186.87h-5.57V186l2.84-3.76a8.09,8.09,0,0,0,.89-1.43,2.77,2.77,0,0,0,.25-1.17,2.08,2.08,0,0,0-.37-1.29,1.14,1.14,0,0,0-1-.49,1.4,1.4,0,0,0-1.17.52,2.36,2.36,0,0,0-.42,1.51H652.6a3.17,3.17,0,0,1,.76-2.22,2.57,2.57,0,0,1,2-.85,2.42,2.42,0,0,1,1.87.73,2.68,2.68,0,0,1,.69,1.93,6.2,6.2,0,0,1-1.54,3.5l-2.22,2.9h4.13Z"/><path class="cls-3" d="M665,182.62a6.66,6.66,0,0,1-.64,3.3,2.41,2.41,0,0,1-4,0,6.19,6.19,0,0,1-.68-3.15v-1.7a6.37,6.37,0,0,1,.65-3.26,2.44,2.44,0,0,1,4,0,6,6,0,0,1,.68,3.08Zm-1.21-1.73a5.83,5.83,0,0,0-.35-2.32,1.15,1.15,0,0,0-1.11-.75,1.13,1.13,0,0,0-1.09.73,5.4,5.4,0,0,0-.37,2.22v2a5.71,5.71,0,0,0,.37,2.36,1.17,1.17,0,0,0,1.1.79,1.15,1.15,0,0,0,1.09-.74,5.87,5.87,0,0,0,.36-2.28Z"/><path class="cls-3" d="M670.19,186.87H669v-8.43l-2.09.94v-1.15l3.11-1.36h.2Z"/><path class="cls-3" d="M677.47,182.62a2.11,2.11,0,0,1-1.69.92,2,2,0,0,1-1.73-.92,4.82,4.82,0,0,1,.06-4.9,2.23,2.23,0,0,1,1.91-.94,2.2,2.2,0,0,1,2,1.09,5.53,5.53,0,0,1,.71,3v.37a11.43,11.43,0,0,1-.25,2.68,4.48,4.48,0,0,1-.73,1.66,3.15,3.15,0,0,1-1.24,1,4.69,4.69,0,0,1-1.88.33V185.8h.21a2.54,2.54,0,0,0,2-.78A3.69,3.69,0,0,0,677.47,182.62Zm-1.49-.13a1.32,1.32,0,0,0,.86-.36,2.55,2.55,0,0,0,.65-1v-.54a4.29,4.29,0,0,0-.43-2,1.24,1.24,0,0,0-1-.78,1.16,1.16,0,0,0-1,.65,3.86,3.86,0,0,0,0,3.36A1.12,1.12,0,0,0,676,182.49Z"/><path class="cls-2" d="M10,50.7l-.31.39a4.92,4.92,0,0,1-4,1.57,4.53,4.53,0,0,1-3.62-1.53A6.58,6.58,0,0,1,.8,46.81V44A7,7,0,0,1,2,39.54a4.32,4.32,0,0,1,3.58-1.49,4.33,4.33,0,0,1,3.17,1.13A4.7,4.7,0,0,1,10,42.41H8.23a3.59,3.59,0,0,0-.73-2.08,2.36,2.36,0,0,0-1.91-.75,2.58,2.58,0,0,0-2.25,1,5.73,5.73,0,0,0-.74,3.2v2.9A5.63,5.63,0,0,0,3.42,50a2.72,2.72,0,0,0,2.35,1.15,3.16,3.16,0,0,0,2.2-.7l.26-.25V46.92H5.63V45.38H10Z"/><path class="cls-2" d="M19.76,45.89h-5v5h5.86v1.53H12.94V38.24h7.55v1.54H14.73v4.58h5Z"/><path class="cls-2" d="M32.16,52.46h-1.8l-5.69-11v11h-1.8V38.24h1.8l5.71,11v-11h1.78Z"/><path class="cls-2" d="M43.56,39.78H39.82V52.46H38V39.78H34.31V38.24h9.25Z"/><path class="cls-2" d="M5.19,90.78,8.44,79.3h2L6,93.52H4.41L0,79.3H2Z"/><path class="cls-2" d="M19.14,87h-5v5H20v1.53H12.32V79.3h7.55v1.54H14.11v4.58h5Z"/><path class="cls-2" d="M30.73,79.3V89.41a4.28,4.28,0,0,1-1.17,3.16,4.34,4.34,0,0,1-3.21,1.15,4.4,4.4,0,0,1-3.23-1.12A4.44,4.44,0,0,1,22,89.41V79.3h1.78v10a3.23,3.23,0,0,0,.61,2.15,2.47,2.47,0,0,0,2,.7,2.5,2.5,0,0,0,2-.7,3.28,3.28,0,0,0,.61-2.15v-10Z"/><path class="cls-2" d="M37.78,87.77h-2.5v5.75H33.49V79.3h4a4.22,4.22,0,0,1,3.16,1.09,4.35,4.35,0,0,1,1.08,3.19,4.42,4.42,0,0,1-.58,2.3,3.71,3.71,0,0,1-1.65,1.48l2.76,6v.12H40.31Zm-2.5-1.53h2.17a2.32,2.32,0,0,0,1.79-.73,2.73,2.73,0,0,0,.67-1.94c0-1.82-.82-2.73-2.48-2.73H35.28Z"/><path class="cls-2" d="M53.39,93.52h-1.8l-5.69-11v11H44.1V79.3h1.8l5.71,11v-11h1.78Z"/><path class="cls-2" d="M63.3,87h-5v5h5.86v1.53H56.48V79.3H64v1.54H58.27v4.58h5Z"/><path class="cls-2" d="M7.75,129.14H3l-1.1,3.72H0l4.58-14.22H6.12l4.59,14.22H8.88Zm-4.33-1.53H7.29l-1.94-6.47Z"/><path class="cls-2" d="M19.28,129.14H14.47l-1.1,3.72H11.53l4.58-14.22h1.54l4.59,14.22H20.4Zm-4.34-1.53h3.88l-1.94-6.47Z"/><path class="cls-2" d="M26,131.33h5.57v1.53H24.17V118.64H26Z"/><path class="cls-2" d="M39.88,129.27a2.2,2.2,0,0,0-.57-1.63,6,6,0,0,0-2.08-1.11,8.78,8.78,0,0,1-2.3-1.12,4.06,4.06,0,0,1-1.19-1.35,3.62,3.62,0,0,1-.4-1.73,3.73,3.73,0,0,1,1.13-2.79,4,4,0,0,1,3-1.09,4.32,4.32,0,0,1,2.23.56,3.8,3.8,0,0,1,1.5,1.55,4.6,4.6,0,0,1,.53,2.19h-1.8a3,3,0,0,0-.63-2,2.32,2.32,0,0,0-1.83-.72,2.24,2.24,0,0,0-1.68.61,2.34,2.34,0,0,0-.59,1.7,2,2,0,0,0,.64,1.51,5.77,5.77,0,0,0,2,1.08,7.08,7.08,0,0,1,3,1.71,3.88,3.88,0,0,1,.9,2.66A3.64,3.64,0,0,1,40.57,132a4.35,4.35,0,0,1-3.06,1,4.92,4.92,0,0,1-2.29-.54A4.13,4.13,0,0,1,33.57,131a4.21,4.21,0,0,1-.6-2.25h1.8a2.76,2.76,0,0,0,.73,2,2.71,2.71,0,0,0,2,.73,2.41,2.41,0,0,0,1.78-.6A2.27,2.27,0,0,0,39.88,129.27Z"/><path class="cls-2" d="M52.34,120.18H48.6v12.68H46.82V120.18H43.09v-1.54h9.25Z"/><path class="cls-2" d="M4.31,166.76l-1.4,1.69v4.86H1.12V159.09H2.91V166l1.17-1.55,3.83-5.32h2.15l-4.62,6.26,5,8H8.28Z"/><path class="cls-2" d="M21,167.45a7.11,7.11,0,0,1-1.24,4.48,4.25,4.25,0,0,1-3.53,1.58A4.28,4.28,0,0,1,12.73,172a6.74,6.74,0,0,1-1.32-4.32V165a7.11,7.11,0,0,1,1.26-4.47,4.21,4.21,0,0,1,3.51-1.61,4.22,4.22,0,0,1,3.5,1.55A6.93,6.93,0,0,1,21,164.86ZM19.18,165a6.09,6.09,0,0,0-.74-3.35,2.51,2.51,0,0,0-2.26-1.1A2.52,2.52,0,0,0,14,161.62a6,6,0,0,0-.77,3.28v2.55a6.06,6.06,0,0,0,.76,3.32,2.54,2.54,0,0,0,2.26,1.15,2.53,2.53,0,0,0,2.23-1.06,5.93,5.93,0,0,0,.75-3.23Z"/><path class="cls-2" d="M28,167.56h-2.5v5.75h-1.8V159.09h4a4.29,4.29,0,0,1,3.17,1.09,5.1,5.1,0,0,1,.49,5.49,3.68,3.68,0,0,1-1.64,1.48l2.75,6v.12H30.56ZM25.53,166H27.7a2.32,2.32,0,0,0,1.79-.73,2.76,2.76,0,0,0,.67-1.93c0-1.83-.83-2.74-2.48-2.74H25.53Z"/><path class="cls-2" d="M41.88,160.63H38.13v12.68H36.35V160.63H32.62v-1.54h9.26Z"/><path class="cls-2" d="M48.27,167.56h-2.5v5.75H44V159.09h4a4.26,4.26,0,0,1,3.16,1.09,4.35,4.35,0,0,1,1.08,3.19,4.49,4.49,0,0,1-.58,2.3A3.71,3.71,0,0,1,50,167.15l2.75,6v.12H50.8ZM45.77,166h2.17a2.29,2.29,0,0,0,1.79-.73,2.72,2.72,0,0,0,.67-1.93c0-1.83-.83-2.74-2.48-2.74H45.77Z"/><path class="cls-2" d="M56.46,173.31H54.67V159.09h1.79Z"/><path class="cls-2" d="M64.49,159.09h1.8v10.07a4.59,4.59,0,0,1-1,3.19,3.58,3.58,0,0,1-2.8,1.16,3.63,3.63,0,0,1-2.81-1.1,4.29,4.29,0,0,1-1-3h1.79a3,3,0,0,0,.54,1.9,1.92,1.92,0,0,0,3-.06,3.41,3.41,0,0,0,.55-2.08Z"/><path class="cls-2" d="M72.44,166.76,71,168.45v4.86H69.26V159.09H71V166l1.18-1.55L76,159.09h2.15l-4.62,6.26,5,8H76.42Z"/><path class="cls-2" d="M610.68,8l-1.4,1.69v4.86h-1.79V.3h1.79V7.17l1.17-1.56L614.28.3h2.15l-4.62,6.26,5,8h-2.14Z"/><path class="cls-2" d="M625,10.8h-4.8l-1.11,3.72h-1.83L621.86.3h1.53L628,14.52h-1.83Zm-4.33-1.53h3.87L622.62,2.8Z"/><path class="cls-2" d="M631.71,13h5.58v1.53h-7.37V.3h1.79Z"/><path class="cls-2" d="M641.72.3l3.71,11.6L649.14.3h2.31V14.52h-1.79V9l.17-5.54-3.72,11.08h-1.37l-3.7-11L641.2,9v5.54h-1.78V.3Z"/><path class="cls-2" d="M662.84,1.83H659.1V14.52h-1.79V1.83h-3.73V.3h9.26Z"/><path class="cls-2" d="M674.24,14.52h-1.8V8h-5.72v6.57h-1.78V.3h1.78V6.41h5.72V.3h1.8Z"/><path class="cls-2" d="M686.59,8.66a7.13,7.13,0,0,1-1.24,4.48,4.72,4.72,0,0,1-7,0A6.8,6.8,0,0,1,677,8.87V6.19a7.11,7.11,0,0,1,1.26-4.47A4.21,4.21,0,0,1,681.8.11a4.25,4.25,0,0,1,3.5,1.54,7,7,0,0,1,1.29,4.42ZM684.8,6.17a6.09,6.09,0,0,0-.74-3.35,2.83,2.83,0,0,0-4.49,0,5.88,5.88,0,0,0-.77,3.28V8.66a6,6,0,0,0,.76,3.32,2.85,2.85,0,0,0,4.49.09,5.93,5.93,0,0,0,.75-3.23Z"/><path class="cls-2" d="M697.83.3V10.41a4.33,4.33,0,0,1-1.18,3.16,5.12,5.12,0,0,1-6.43,0,4.39,4.39,0,0,1-1.13-3.19V.3h1.77v10a3.23,3.23,0,0,0,.61,2.14,3.1,3.1,0,0,0,3.95,0,3.18,3.18,0,0,0,.61-2.14V.3Z"/><path class="cls-2" d="M708.89,1.83h-3.74V14.52h-1.79V1.83h-3.73V.3h9.26Z"/><path class="cls-2" d="M607.49,52.46V38.24h4.06a4.06,4.06,0,0,1,2.92.95,3.75,3.75,0,0,1,1,2.84,3.08,3.08,0,0,1-.5,1.76A3.33,3.33,0,0,1,613.61,45a2.73,2.73,0,0,1,1.54,1.2,4,4,0,0,1,.58,2.19,4.16,4.16,0,0,1-1.05,3,4,4,0,0,1-3,1.09Zm1.79-8.15h2.3a1.92,1.92,0,0,0,1.49-.63,2.32,2.32,0,0,0,.58-1.66,2.43,2.43,0,0,0-.52-1.71,2.14,2.14,0,0,0-1.58-.53h-2.27Zm0,1.5v5.12h2.44a2,2,0,0,0,1.61-.67,2.7,2.7,0,0,0,.6-1.88c0-1.71-.72-2.57-2.17-2.57Z"/><path class="cls-2" d="M627.65,46.6a7.1,7.1,0,0,1-1.24,4.49,4.23,4.23,0,0,1-3.53,1.57,4.28,4.28,0,0,1-3.47-1.53,6.74,6.74,0,0,1-1.32-4.32V44.13a7.06,7.06,0,0,1,1.26-4.46,4.2,4.2,0,0,1,3.51-1.62,4.28,4.28,0,0,1,3.51,1.55A7,7,0,0,1,627.65,44Zm-1.79-2.49a6.1,6.1,0,0,0-.73-3.35,2.56,2.56,0,0,0-2.27-1.1,2.53,2.53,0,0,0-2.23,1.11,5.93,5.93,0,0,0-.76,3.29V46.6a6,6,0,0,0,.75,3.32,2.53,2.53,0,0,0,2.26,1.15A2.5,2.5,0,0,0,625.11,50a5.93,5.93,0,0,0,.75-3.23Z"/><path class="cls-2" d="M639.66,46.6a7.1,7.1,0,0,1-1.24,4.49,4.22,4.22,0,0,1-3.52,1.57,4.29,4.29,0,0,1-3.48-1.53,6.74,6.74,0,0,1-1.32-4.32V44.13a7.06,7.06,0,0,1,1.26-4.46,4.2,4.2,0,0,1,3.52-1.62,4.27,4.27,0,0,1,3.5,1.55A7,7,0,0,1,639.66,44Zm-1.79-2.49a6.1,6.1,0,0,0-.73-3.35,2.54,2.54,0,0,0-2.26-1.1,2.51,2.51,0,0,0-2.23,1.11,5.92,5.92,0,0,0-.77,3.29V46.6a6,6,0,0,0,.76,3.32,2.82,2.82,0,0,0,4.48.09,5.93,5.93,0,0,0,.75-3.23Z"/><path class="cls-2" d="M644.73,38.24l3.71,11.61,3.71-11.61h2.31V52.46h-1.79V46.93l.17-5.55-3.73,11.08h-1.36l-3.7-11,.16,5.51v5.53h-1.78V38.24Z"/><path class="cls-2" d="M616.8,93.52H615V87h-5.72v6.57h-1.79V79.3h1.79v6.12H615V79.3h1.8Z"/><path class="cls-2" d="M626.7,89.8h-4.8l-1.1,3.72H619l4.58-14.22h1.53l4.59,14.22h-1.83Zm-4.33-1.53h3.87L624.3,81.8Z"/><path class="cls-2" d="M637.81,89.93a2.19,2.19,0,0,0-.58-1.63,5.87,5.87,0,0,0-2.08-1.11,8.92,8.92,0,0,1-2.3-1.13,3.94,3.94,0,0,1-1.19-1.34,3.78,3.78,0,0,1-.4-1.74,3.72,3.72,0,0,1,1.13-2.78,4.07,4.07,0,0,1,3-1.09,4.4,4.4,0,0,1,2.22.55,3.84,3.84,0,0,1,1.51,1.56,4.59,4.59,0,0,1,.52,2.18h-1.79a3,3,0,0,0-.64-2,2.29,2.29,0,0,0-1.82-.72,2.21,2.21,0,0,0-1.68.61,2.3,2.3,0,0,0-.6,1.7,2,2,0,0,0,.65,1.51,5.77,5.77,0,0,0,2,1.08,6.77,6.77,0,0,1,3,1.71,3.86,3.86,0,0,1,.9,2.66,3.6,3.6,0,0,1-1.12,2.77,4.35,4.35,0,0,1-3.06,1,4.84,4.84,0,0,1-2.29-.55,4,4,0,0,1-1.65-1.52,4.21,4.21,0,0,1-.6-2.25h1.8a2.77,2.77,0,0,0,.74,2,2.7,2.7,0,0,0,2,.73,2.41,2.41,0,0,0,1.78-.6A2.26,2.26,0,0,0,637.81,89.93Z"/><path class="cls-2" d="M648.17,89.93a2.15,2.15,0,0,0-.58-1.63,5.78,5.78,0,0,0-2.08-1.11,8.92,8.92,0,0,1-2.3-1.13A3.94,3.94,0,0,1,642,84.72a3.78,3.78,0,0,1-.39-1.74,3.72,3.72,0,0,1,1.12-2.78,4.08,4.08,0,0,1,3-1.09,4.4,4.4,0,0,1,2.22.55,3.78,3.78,0,0,1,1.51,1.56A4.59,4.59,0,0,1,650,83.4h-1.8a3,3,0,0,0-.64-2,2.29,2.29,0,0,0-1.82-.72,2.22,2.22,0,0,0-1.68.61,2.3,2.3,0,0,0-.6,1.7,2,2,0,0,0,.65,1.51,5.77,5.77,0,0,0,2,1.08,6.77,6.77,0,0,1,3,1.71,3.87,3.87,0,0,1,.91,2.66,3.61,3.61,0,0,1-1.13,2.77,4.34,4.34,0,0,1-3.05,1,4.81,4.81,0,0,1-2.29-.55,4.13,4.13,0,0,1-1.66-1.52,4.21,4.21,0,0,1-.6-2.25h1.8a2.77,2.77,0,0,0,.74,2,2.71,2.71,0,0,0,2,.73,2.38,2.38,0,0,0,1.77-.6A2.26,2.26,0,0,0,648.17,89.93Z"/><path class="cls-2" d="M659.14,87h-5v5H660v1.53h-7.65V79.3h7.55v1.54h-5.76v4.58h5Z"/><path class="cls-2" d="M664.05,92h5.57v1.53h-7.37V79.3h1.8Z"/><path class="cls-2" d="M677.38,80.84h-3.74V93.52h-1.79V80.84h-3.73V79.3h9.26Z"/><path class="cls-2" d="M610.68,126.31l-1.4,1.69v4.86h-1.79V118.64h1.79v6.87l1.17-1.55,3.83-5.32h2.15l-4.62,6.26,5,8h-2.14Z"/><path class="cls-2" d="M627.34,127a7.16,7.16,0,0,1-1.24,4.49,4.73,4.73,0,0,1-7,0,6.74,6.74,0,0,1-1.32-4.32v-2.68a7.11,7.11,0,0,1,1.26-4.47,4.68,4.68,0,0,1,7-.06,7,7,0,0,1,1.29,4.42Zm-1.79-2.49a6.09,6.09,0,0,0-.74-3.35,2.83,2.83,0,0,0-4.49,0,6,6,0,0,0-.77,3.28V127a6.06,6.06,0,0,0,.76,3.32,2.83,2.83,0,0,0,4.49.09,5.93,5.93,0,0,0,.75-3.23Z"/><path class="cls-2" d="M634.4,127.11h-2.5v5.75h-1.8V118.64h4a4.28,4.28,0,0,1,3.16,1.09,5.1,5.1,0,0,1,.49,5.49,3.63,3.63,0,0,1-1.64,1.48l2.75,6v.11h-1.92Zm-2.5-1.53h2.17a2.32,2.32,0,0,0,1.79-.73,2.74,2.74,0,0,0,.67-1.93c0-1.83-.83-2.74-2.48-2.74H631.9Z"/><path class="cls-2" d="M648.25,120.18h-3.74v12.68h-1.79V120.18H639v-1.54h9.26Z"/><path class="cls-2" d="M657.16,126.29h-5v5H658v1.53h-7.64V118.64h7.54v1.54h-5.76v4.58h5Z"/><path class="cls-2" d="M669.56,132.86h-1.79l-5.7-11v11h-1.79V118.64h1.79l5.72,11v-11h1.77Z"/><path class="cls-2" d="M672.66,132.86V118.64h4.05a4.08,4.08,0,0,1,2.93,1,3.79,3.79,0,0,1,1,2.84,3.16,3.16,0,0,1-.5,1.76,3.3,3.3,0,0,1-1.35,1.18,2.75,2.75,0,0,1,1.55,1.2,4.06,4.06,0,0,1,.57,2.19,4.16,4.16,0,0,1-1,3,3.94,3.94,0,0,1-3,1.09Zm1.79-8.15h2.29a1.93,1.93,0,0,0,1.5-.63,2.88,2.88,0,0,0,0-3.37,2.08,2.08,0,0,0-1.58-.53h-2.26Zm0,1.5v5.12h2.44a2,2,0,0,0,1.61-.67,2.72,2.72,0,0,0,.6-1.88c0-1.71-.73-2.57-2.17-2.57Z"/><path class="cls-2" d="M690.38,126.29h-5v5h5.86v1.53h-7.64V118.64h7.55v1.54h-5.77v4.58h5Z"/><path class="cls-2" d="M697.8,127.11h-2.5v5.75h-1.8V118.64h4a4.29,4.29,0,0,1,3.17,1.09,5.1,5.1,0,0,1,.49,5.49,3.63,3.63,0,0,1-1.64,1.48l2.75,6v.11h-1.92Zm-2.5-1.53h2.16a2.32,2.32,0,0,0,1.8-.73,2.74,2.74,0,0,0,.67-1.93c0-1.83-.83-2.74-2.49-2.74H695.3Z"/><path class="cls-2" d="M713,131.1l-.31.39a5,5,0,0,1-4,1.57,4.5,4.5,0,0,1-3.61-1.53,6.53,6.53,0,0,1-1.35-4.32v-2.79a7,7,0,0,1,1.2-4.48,5,5,0,0,1,6.76-.36A4.72,4.72,0,0,1,713,122.8h-1.79a3.58,3.58,0,0,0-.73-2.07,2.36,2.36,0,0,0-1.91-.75,2.6,2.6,0,0,0-2.25,1,5.82,5.82,0,0,0-.74,3.2v2.9a5.63,5.63,0,0,0,.82,3.3,2.72,2.72,0,0,0,2.35,1.14,3.14,3.14,0,0,0,2.2-.69l.26-.25v-3.26h-2.59v-1.54H713Z"/><path class="cls-2" d="M616.8,173.31H615v-6.57h-5.72v6.57h-1.79V159.09h1.79v6.12H615v-6.12h1.8Z"/><path class="cls-2" d="M626.71,166.74h-5v5h5.86v1.53H619.9V159.09h7.55v1.54h-5.77v4.58h5Z"/><path class="cls-2" d="M634.13,167.56h-2.5v5.75h-1.8V159.09h4a4.29,4.29,0,0,1,3.17,1.09,5.1,5.1,0,0,1,.49,5.49,3.71,3.71,0,0,1-1.65,1.48l2.76,6v.12h-1.93Zm-2.5-1.53h2.16a2.32,2.32,0,0,0,1.8-.73,2.76,2.76,0,0,0,.66-1.93c0-1.83-.82-2.74-2.48-2.74h-2.14Z"/><path class="cls-2" d="M649.73,173.31h-1.8l-5.69-11v11h-1.8V159.09h1.8l5.71,11v-11h1.78Z"/><path class="cls-2" d="M659.64,166.74h-5v5h5.86v1.53h-7.64V159.09h7.55v1.54h-5.77v4.58h5Z"/><polyline class="cls-4" points="355.17 29.53 372.36 29.57 578.13 7.99 601.95 7.99"/><polyline class="cls-4" points="345.75 58.05 364.18 58.05 578.41 45.47 601.95 45.72"/><polyline class="cls-4" points="460.51 98.52 478.56 86.23 601.95 86.23"/><polyline class="cls-4" points="403.32 113.32 416.64 125.75 601.95 125.75"/><polyline class="cls-4" points="322.71 149.76 342.2 166.22 601.95 166.22"/><polyline class="cls-4" points="222.97 121.53 195.9 122.96 102.69 165.94 83.16 165.94"/><polyline class="cls-4" points="322.71 103.64 291.84 98.96 79.85 125.24 56.92 125.08"/><polyline class="cls-4" points="160.56 82.68 88.46 85.83 68.36 86.23"/><polyline class="cls-4" points="288.29 74.47 263.99 90.03 74.22 44.9 49.8 44.9"/><polyline class="cls-4" points="205.58 64.22 200.09 52.28 97.39 6.59 77.3 6.59"/></g></g></svg>