<svg xmlns="http://www.w3.org/2000/svg" width="313.801" height="303.051" viewBox="0 0 313.801 303.051"><g transform="translate(9 0.005)"><g transform="translate(-9 -0.005)"><path d="M94.282,109.342v25.5H22.639v14.377H0V95H22.639v14.377Z" transform="translate(0 69.564)" fill="#2d2d2d"/><path d="M94.282,42.94V68.334H56.4V80.58H94.282v25.376H0V80.58H33.379V68.334H0V42.94Z" transform="translate(0 31.447)" fill="#2d2d2d"/><path d="M94.282,47.271H0V0H22.137V21.877H35.994V2.252H57.265V21.877H71.642V0H94.282Z" transform="translate(0 0.008)" fill="#2d2d2d"/><path d="M94.635,99.513H68.86V0h45.694V23.367H94.635V38h18.517V60.522H94.635Z" transform="translate(50.417 0.008)" fill="#32a4fc"/><path d="M170.95,99.513H144.361L142.2,86.833H125.065l-2.148,12.679H96.19L118.275,0h30.711ZM139.165,65.6l-3.759-26.8c-.242-1.732-.5-3.655-.762-5.941s-.589-5.318-1-9.111c-.433,3.793-.745,6.825-.953,9.111s-.45,4.278-.71,5.941l-3.932,26.8Z" transform="translate(70.427 0.008)" fill="#32a4fc"/><path d="M143.6,0h30.14a46.769,46.769,0,0,1,14.793,2.113,28.269,28.269,0,0,1,10.393,5.872,23.349,23.349,0,0,1,5.993,8.973,32.01,32.01,0,0,1,1.957,11.276q0,18.638-17.772,20.2,10.289,1.576,14.914,6.929t4.642,15.589a31.369,31.369,0,0,1-2.1,11.605,25.774,25.774,0,0,1-5.907,9.042,26.087,26.087,0,0,1-9.129,5.82,32.6,32.6,0,0,1-11.675,2.044H143.6Zm25.757,38.662h1.732a11.086,11.086,0,0,0,7.4-2.286,7.8,7.8,0,0,0,2.667-6.34q0-8.661-9.128-8.661H171a13.857,13.857,0,0,0-1.646.139Zm0,39.2a8.107,8.107,0,0,0,1.334.139h.953a11.051,11.051,0,0,0,7.673-2.581,9.007,9.007,0,0,0,2.858-7.05,8.8,8.8,0,0,0-2.858-6.929,11.588,11.588,0,0,0-7.933-2.546h-2.027Z" transform="translate(105.139 0.005)" fill="#32a4fc"/><path d="M113.377,166.162H68.86V71.88H94.254v71.642h19.054Z" transform="translate(50.417 52.636)" fill="#32a4fc"/><path d="M171.154,166.162H144.825l-2.113-12H125.823l-2.113,12H97.45L119.189,71.88h30.244ZM139.767,134.03l-3.62-25.376c-.242-1.594-.5-3.464-.745-5.63s-.589-5.041-1-8.661q-.624,5.387-.935,8.661c-.208,2.165-.433,4.036-.693,5.63l-3.88,25.376Z" transform="translate(71.349 52.636)" fill="#32a4fc"/><path d="M144.15,71.885h29.637a47.6,47.6,0,0,1,14.568,1.94,28.113,28.113,0,0,1,10.185,5.56,22.085,22.085,0,0,1,5.976,8.574,29.221,29.221,0,0,1,1.94,10.687q0,17.651-17.512,19.054,10.133,1.507,14.689,6.565t4.573,14.827a28.667,28.667,0,0,1-2.061,11,24.683,24.683,0,0,1-5.82,8.557,25.55,25.55,0,0,1-9.007,5.508,32.773,32.773,0,0,1-11.5,1.94H144.15Zm25.376,36.583h1.732a11.311,11.311,0,0,0,7.275-2.061,7.31,7.31,0,0,0,2.633-6.011c0-5.422-3.014-8.124-9.007-8.124h-1a13.063,13.063,0,0,0-1.628.121Zm0,37.138a7.726,7.726,0,0,0,1.316.121h.935a11.224,11.224,0,0,0,7.57-2.425,8.418,8.418,0,0,0,2.806-6.7,8.193,8.193,0,0,0-2.806-6.617,11.692,11.692,0,0,0-7.812-2.373h-2.009Z" transform="translate(105.541 52.631)" fill="#32a4fc"/><path d="M17.581,201.893H0v-65.3H31.179v15.33h-13.6v9.631H30.226v14.723H17.581Z" transform="translate(0 100.014)" fill="#2d2d2d"/><path d="M22,201.893v-65.3H54.738v15.33H39.495v9.631H53.179v14.723H39.495v9.96H54.651v15.589Z" transform="translate(16.108 100.014)" fill="#2d2d2d"/><path d="M44.511,180.32q5.2,7.1,11.259,7.1a5.422,5.422,0,0,0,3.672-1.213,3.828,3.828,0,0,0,1.438-3.031,6.929,6.929,0,0,0-3.118-5.11L54.9,175.816a31.405,31.405,0,0,1-8.193-8.661,19.054,19.054,0,0,1-2.46-9.735,23.107,23.107,0,0,1,1.507-8.4,21.652,21.652,0,0,1,4.209-6.807,20.111,20.111,0,0,1,6.322-4.59,18.274,18.274,0,0,1,7.795-1.732,26.987,26.987,0,0,1,12.645,3.464v19.92a19.383,19.383,0,0,0-4.9-5.2,9.267,9.267,0,0,0-5.4-1.94A4.919,4.919,0,0,0,63.08,153.3a3.655,3.655,0,0,0-1.334,2.823c0,1.732,1.178,3.464,3.464,5.2l2.858,2.079a28.494,28.494,0,0,1,7.968,8.262,19.4,19.4,0,0,1,2.425,9.839,24.25,24.25,0,0,1-1.559,8.869,22.155,22.155,0,0,1-4.3,7.015,18.708,18.708,0,0,1-6.478,4.521,21.27,21.27,0,0,1-8.366,1.646,36.011,36.011,0,0,1-13.251-2.771Z" transform="translate(32.397 99.502)" fill="#2d2d2d"/><path d="M93.528,201.856H75.86V152.229H65.9V136.64h37.588v15.589h-9.96Z" transform="translate(48.25 100.051)" fill="#2d2d2d"/><path d="M107.831,201.893H90.25v-65.3h17.581Z" transform="translate(66.078 100.014)" fill="#2d2d2d"/><path d="M137.347,201.893H119.419l-16.369-65.3h18.534l3.2,18.621c.624,3.638,1.3,7.431,1.992,11.38s1.23,8.159,1.732,12.61a121.123,121.123,0,0,1,1.732-12.61c.779-3.949,1.351-7.743,1.992-11.38l3.2-18.621h18.534Z" transform="translate(75.449 100.014)" fill="#2d2d2d"/><path d="M182.012,201.893h-18.1l-1.472-8.314H150.747l-1.472,8.314H131l15.07-65.3h20.959Zm-21.739-22.258-2.512-17.581q-.26-1.628-.52-3.9c-.173-1.507-.416-3.464-.693-5.976-.294,2.477-.5,4.469-.658,5.976s-.294,2.806-.468,3.9l-2.685,17.581Z" transform="translate(95.913 100.014)" fill="#2d2d2d"/><path d="M194.183,201.893H163.35v-65.3h17.581v49.626h13.251Z" transform="translate(119.599 100.014)" fill="#2d2d2d"/></g></g></svg>