<svg xmlns="http://www.w3.org/2000/svg" width="128.531" height="100" viewBox="0 0 128.531 100"><g transform="translate(-1837.838 -1267.928)"><g transform="translate(1837.838 1267.928)"><g transform="translate(123.971 62.808)"><path d="M-1.86-.856V-2.4h-.4l-.465,1.058L-3.188-2.4h-.4V-.856h.285V-2.018l.434,1h.3l.434-1.005V-.856Zm-2.549,0V-2.134h.515v-.26H-5.207v.26h.515V-.856Z" transform="translate(5.207 2.397)" fill="#0099df"/></g><path d="M3606.629,2210.048h-34.764v-62.477h34.764Z" transform="translate(-3524.984 -2139.071)" fill="#6c6bbd"/><g transform="translate(0 0)"><path d="M-27.284-22.075A39.667,39.667,0,0,1-12.109-53.314a39.559,39.559,0,0,0-24.554-8.5A39.731,39.731,0,0,0-76.392-22.075,39.731,39.731,0,0,0-36.663,17.659a39.559,39.559,0,0,0,24.554-8.5A39.667,39.667,0,0,1-27.284-22.075" transform="translate(76.392 61.809)" fill="#eb001b"/></g><g transform="translate(64.245 0)"><path d="M-35.716-22.075A39.731,39.731,0,0,1-75.444,17.659,39.572,39.572,0,0,1-100,9.163,39.662,39.662,0,0,0-84.824-22.075,39.662,39.662,0,0,0-100-53.314a39.572,39.572,0,0,1,24.557-8.5A39.731,39.731,0,0,1-35.716-22.075" transform="translate(100.001 61.809)" fill="#0099df"/></g><g transform="translate(20.98 85.685)"><path d="M-40.217-1.631a4.9,4.9,0,0,1,1.634.288L-39.289.82A3.719,3.719,0,0,0-40.724.554c-1.5,0-2.251.97-2.251,2.713V9.184h-2.3V-1.366H-43V-.085a3.114,3.114,0,0,1,2.781-1.546M-48.7.731h-3.751V5.5c0,1.058.374,1.766,1.523,1.766a4.23,4.23,0,0,0,2.028-.6l.662,1.963a5.383,5.383,0,0,1-2.867.818c-2.716,0-3.663-1.458-3.663-3.908V.731h-2.142v-2.1h2.142v-3.2h2.316v3.2H-48.7ZM-78.076,2.982A2.719,2.719,0,0,1-75.272.42,2.621,2.621,0,0,1-72.6,2.982Zm7.859.927c-.023-3.289-2.054-5.54-5.012-5.54-3.089,0-5.252,2.251-5.252,5.54a5.2,5.2,0,0,0,5.408,5.537,6.411,6.411,0,0,0,4.325-1.478l-1.127-1.7a5.016,5.016,0,0,1-3.067,1.1A2.93,2.93,0,0,1-78.1,4.791h7.834c.023-.288.045-.573.045-.882m10.084-2.582A6.765,6.765,0,0,0-63.419.42c-1.258,0-2.008.465-2.008,1.238,0,.7.793.9,1.786,1.036l1.081.154c2.3.333,3.686,1.3,3.686,3.158,0,2.008-1.766,3.443-4.81,3.443a7.612,7.612,0,0,1-4.57-1.369l1.081-1.789a5.626,5.626,0,0,0,3.511,1.1c1.566,0,2.4-.462,2.4-1.281,0-.594-.6-.927-1.854-1.1l-1.081-.154c-2.362-.333-3.643-1.392-3.643-3.112,0-2.1,1.723-3.377,4.393-3.377a7.884,7.884,0,0,1,4.3,1.1ZM-31.827.549A3.477,3.477,0,0,0-33.143.8a3.159,3.159,0,0,0-1.051.7,3.233,3.233,0,0,0-.7,1.074,3.629,3.629,0,0,0-.253,1.377,3.62,3.62,0,0,0,.253,1.377,3.233,3.233,0,0,0,.7,1.074,3.159,3.159,0,0,0,1.051.7,3.429,3.429,0,0,0,1.316.248,3.42,3.42,0,0,0,1.316-.248,3.155,3.155,0,0,0,1.056-.7,3.212,3.212,0,0,0,.7-1.074A3.62,3.62,0,0,0-28.5,3.944a3.629,3.629,0,0,0-.253-1.377,3.212,3.212,0,0,0-.7-1.074A3.155,3.155,0,0,0-30.511.8,3.467,3.467,0,0,0-31.827.549m0-2.18a5.942,5.942,0,0,1,2.274.427A5.519,5.519,0,0,1-27.745-.032,5.366,5.366,0,0,1-26.55,1.731a5.613,5.613,0,0,1,.432,2.213,5.613,5.613,0,0,1-.432,2.213,5.377,5.377,0,0,1-1.195,1.766A5.56,5.56,0,0,1-29.554,9.1a5.99,5.99,0,0,1-2.274.424A5.99,5.99,0,0,1-34.1,9.1a5.5,5.5,0,0,1-1.8-1.172,5.442,5.442,0,0,1-1.19-1.766,5.613,5.613,0,0,1-.432-2.213,5.613,5.613,0,0,1,.432-2.213A5.431,5.431,0,0,1-35.9-.032,5.459,5.459,0,0,1-34.1-1.2a5.942,5.942,0,0,1,2.274-.427m-59.658,5.54a3.166,3.166,0,0,1,3.2-3.377,3.163,3.163,0,0,1,3.178,3.377,3.161,3.161,0,0,1-3.178,3.375,3.164,3.164,0,0,1-3.2-3.375m8.541,0V-1.366h-2.294V-.085A4,4,0,0,0-88.57-1.631a5.284,5.284,0,0,0-5.275,5.54,5.286,5.286,0,0,0,5.275,5.54A4,4,0,0,0-85.238,7.9V9.184h2.294ZM-95.875,9.184V2.563a3.927,3.927,0,0,0-4.148-4.193A4.082,4.082,0,0,0-103.732.246a3.876,3.876,0,0,0-3.489-1.877A3.491,3.491,0,0,0-110.31-.065v-1.3H-112.6V9.184h2.316V3.336c0-1.831,1.016-2.8,2.582-2.8,1.523,0,2.3.993,2.3,2.781V9.184h2.316V3.336a2.49,2.49,0,0,1,2.582-2.8c1.569,0,2.319.993,2.319,2.781V9.184Z" transform="translate(112.603 4.566)" fill="#231f20"/></g><g transform="translate(109.044 97.903)"><path d="M-.5-.411v.26h.24A.236.236,0,0,0-.128-.184a.111.111,0,0,0,.051-.1.106.106,0,0,0-.051-.1A.217.217,0,0,0-.257-.411Zm.243-.182A.444.444,0,0,1,.034-.51a.277.277,0,0,1,.1.227.261.261,0,0,1-.081.2.4.4,0,0,1-.23.1L.142.379H-.105L-.4.016H-.5V.379H-.7V-.593ZM-.317.713A.767.767,0,0,0,0,.65.829.829,0,0,0,.256.475.812.812,0,0,0,.43.215.832.832,0,0,0,.493-.1.832.832,0,0,0,.43-.421a.84.84,0,0,0-.174-.26A.781.781,0,0,0,0-.853.767.767,0,0,0-.317-.916a.8.8,0,0,0-.321.063A.777.777,0,0,0-.9-.682a.792.792,0,0,0-.172.26A.787.787,0,0,0-1.136-.1a.787.787,0,0,0,.063.318A.766.766,0,0,0-.9.475.823.823,0,0,0-.638.65.8.8,0,0,0-.317.713m0-1.864A1.029,1.029,0,0,1,.1-1.068a1.041,1.041,0,0,1,.341.225A1.028,1.028,0,0,1,.665-.51,1,1,0,0,1,.749-.1,1,1,0,0,1,.665.3,1.045,1.045,0,0,1,.438.635,1.09,1.09,0,0,1,.1.862,1.029,1.029,0,0,1-.317.945,1.065,1.065,0,0,1-.739.862,1.061,1.061,0,0,1-1.08.635,1.045,1.045,0,0,1-1.308.3,1,1,0,0,1-1.391-.1,1,1,0,0,1-1.308-.51,1.028,1.028,0,0,1-1.08-.843a1.016,1.016,0,0,1,.341-.225,1.065,1.065,0,0,1,.422-.083" transform="translate(1.391 1.151)" fill="#231f20"/></g></g></g></svg>