<svg xmlns="http://www.w3.org/2000/svg" viewBox="0 0 219.19 227.76"><defs><style>.cls-1{fill:#32a4fc;}.cls-2{fill:#32caf9;}.cls-3{fill:#2d2d2d;}.cls-4{fill:#606060;}</style></defs><title>Asset 3</title><g id="Layer_2" data-name="Layer 2"><g id="Layer_8" data-name="Layer 8"><path class="cls-1" d="M54,24.86H179.53a39.66,39.66,0,0,1,39.66,39.66v73a0,0,0,0,1,0,0H54a0,0,0,0,1,0,0V24.86A0,0,0,0,1,54,24.86Z"/><path class="cls-2" d="M54,24.86h0A43.86,43.86,0,0,1,97.83,68.73v68.82a0,0,0,0,1,0,0H10.11a0,0,0,0,1,0,0V68.73A43.86,43.86,0,0,1,54,24.86Z"/><path class="cls-1" d="M97.83,137.55H10.11L1.17,175.23A42.68,42.68,0,0,0,42.7,227.76h0a42.69,42.69,0,0,0,41.53-32.83Z"/><polygon class="cls-3" points="143.01 0 117.3 0 117.3 7.76 117.3 12.54 117.3 101.84 128.96 101.84 128.96 12.54 143.01 12.54 143.01 0"/><path class="cls-3" d="M54,30.05h0A38.33,38.33,0,0,1,92.3,68.39v65.27a0,0,0,0,1,0,0H15.63a0,0,0,0,1,0,0V68.39A38.33,38.33,0,0,1,54,30.05Z"/><path class="cls-4" d="M18.29,54.5a38.36,38.36,0,0,0-2.6,13.89v65.27H86.18Z"/></g></g></svg>