<svg xmlns="http://www.w3.org/2000/svg" viewBox="0 0 498.58 428.3"><defs><style>.cls-1{fill:#6cc04a;}.cls-2{fill:#2d2d2d;}.cls-3{fill:#f5e0b2;}.cls-11,.cls-4{fill:#fff;}.cls-5{fill:#ddd;}.cls-6{fill:#b5b5b5;}.cls-7{fill:#32a4fc;}.cls-8{fill:#7ec6fd;}.cls-9{fill:#757575;}.cls-10{fill:#008c4a;}.cls-11,.cls-12{stroke:#2d2d2d;}.cls-11,.cls-12,.cls-13{stroke-miterlimit:10;}.cls-11{stroke-width:0.64px;}.cls-12,.cls-19{fill:#cecece;}.cls-12,.cls-13,.cls-14{stroke-width:0.21px;}.cls-13,.cls-14{fill:none;stroke:#d4af37;}.cls-14{stroke-linecap:round;stroke-linejoin:round;}.cls-15{fill:#d8d8d8;}.cls-16{fill:#939393;}.cls-17,.cls-18,.cls-20{isolation:isolate;}.cls-18{font-size:0.96px;font-family:Roboto-Bold, Roboto;font-weight:700;}.cls-20{fill:#ff2c3c;opacity:0.75;}.cls-21{fill:#8d1b1f;}.cls-22{fill:#006cb5;}.cls-23{fill:#8fc541;}.cls-24{fill:#ed9121;}.cls-25{fill:#b75f00;}.cls-26{fill:#ffaa4d;}</style></defs><title>Asset 19</title><g id="Layer_2" data-name="Layer 2"><g id="map"><path class="cls-1" d="M288.57,425.33c-.68,0-1.37,0-2,0a18.44,18.44,0,0,1-12-5.18c-12.58-12.07-28.56-17.55-44-22.86-13.42-4.6-27.3-9.37-38.83-18.4-21.1-16.53-23.81-43-24-45.93,0-.16,0-.32-.05-.49a111.66,111.66,0,0,0-5.52-21.37c-3-7.82-8.16-17.24-15.7-17.63-.46,0-.94,0-1.43,0-5.86,0-14,1.62-22.58,3.33-10.32,2-21,4.17-30.4,4.17-1.79,0-3.5-.08-5.08-.23l-.19,0a53.82,53.82,0,0,1-37.88-17.21,57.94,57.94,0,0,1-15.67-39.91c0-26.14,17-48.89,41.38-55.37,12.9-4.8,23.6-51.26,27.64-68.78,6.24-27.12,9.76-48.06,10.68-53.83a13.82,13.82,0,0,0,.17-1.88c.11-6,2.06-36.28,29.39-45.36A215.67,215.67,0,0,1,220.62,3c3.27,0,6.56.09,9.77.26l2.6.14c19.43,1,55.58,2.83,81.09,21.58a29.8,29.8,0,0,1,12.1,25.64c-.74,14.6-2.5,48.8,15.75,74.69.8,1.14,1.55,2.33,2.22,3.52a6.49,6.49,0,0,0,.39.62c5.65,7.75,21.26,24.83,62.3,52.19,8.58,5.72,30.26,20.51,32.7,22.17a6.51,6.51,0,0,0,.91.53,19.82,19.82,0,0,1,11.22,16.21,43.23,43.23,0,0,1-.71,10c-1.12,7.71-1.56,12.92,2.29,15,5.12,2.7,14.36,5.78,23.29,8.76,3.75,1.25,7.29,2.43,10.51,3.58a12.89,12.89,0,0,1,5.8,20.12C479.34,295.1,451.51,328,417,356c-56.85,46-100.05,69.35-128.41,69.35Z"/><path class="cls-2" d="M220.62,5.93q4.75,0,9.62.25c18.7,1,56.13,2.08,82.08,21.15a26.91,26.91,0,0,1,10.9,23.1c-1,19.44-1.51,51.3,16.28,76.55a37.56,37.56,0,0,1,2.07,3.27,9.81,9.81,0,0,0,.57.91c5.45,7.46,21.15,25,63.06,52.91,8.24,5.49,28.5,19.31,32.67,22.15a8.32,8.32,0,0,0,1.33.76,16.88,16.88,0,0,1,9.52,13.82c.82,8.44-5.63,22.67,3.14,27.31,7.52,4,23.21,8.6,34.19,12.51a9.92,9.92,0,0,1,4.47,15.49c-13.2,16.75-41,49.7-75.39,77.57C365,394.27,319,422.37,288.58,422.37c-.65,0-1.3,0-1.93,0A15.61,15.61,0,0,1,276.57,418c-24.11-23.14-58.8-22.44-83.07-41.46-20.07-15.72-22.68-40.82-22.92-43.82,0-.24-.05-.46-.08-.69-.63-4.2-6.53-40.62-24-41.53-.52,0-1,0-1.59,0-13.16,0-35.86,7.5-53,7.5-1.65,0-3.25-.07-4.78-.22l-.21,0C58.75,297,36.09,273,36.09,243.51c0-25.33,16.72-46.6,39.31-52.54h0C88.61,186.25,98.35,149,105,120c6.32-27.48,9.88-48.79,10.72-54a16,16,0,0,0,.2-2.29c.11-5.83,2-34.23,27.47-42.63a210.76,210.76,0,0,1,77.2-15.15m0-5.93a218.63,218.63,0,0,0-79.28,15.52C112.22,25.26,110.14,57.27,110,63.6a11.06,11.06,0,0,1-.12,1.46c-.93,5.75-4.43,26.6-10.65,53.64-3.06,13.27-7.2,30.24-12.16,43.87-6.58,18.12-11.54,22-13.5,22.75C48,192.2,30.16,216.08,30.16,243.51a60.91,60.91,0,0,0,16.47,41.95,56.76,56.76,0,0,0,39.79,18.13l.14,0c1.68.16,3.49.25,5.38.25,9.7,0,20.52-2.15,31-4.23,8.45-1.68,16.43-3.27,22-3.27.45,0,.88,0,1.27,0,9.57.5,16.39,22.64,18.44,36.48a2.89,2.89,0,0,1,0,.29c.25,3.1,3.08,30.71,25.17,48,11.93,9.34,26,14.19,39.7,18.88,15.85,5.44,30.82,10.57,42.93,22.19a21.39,21.39,0,0,0,13.94,6c.71,0,1.44.05,2.17.05,29.05,0,72.88-23.56,130.28-70,34.74-28.12,62.73-61.26,76.32-78.51A15.85,15.85,0,0,0,488,255c-3.25-1.15-6.8-2.34-10.57-3.59-8.41-2.81-17.93-6-22.84-8.58-1.94-1-1.79-4.65-.74-11.9a46.47,46.47,0,0,0,.73-10.74,22.8,22.8,0,0,0-12.91-18.61,2.91,2.91,0,0,1-.5-.29c-4-2.74-24.47-16.68-32.72-22.19-42.18-28.12-57.1-45.36-61.56-51.46-.05-.08-.11-.18-.19-.33-.72-1.28-1.53-2.55-2.39-3.78-17.65-25-15.94-58.53-15.21-72.83a32.76,32.76,0,0,0-13.31-28.18C289.61,3.28,252.88,1.4,233.14.4L230.55.26C227.28.09,223.94,0,220.62,0Z"/><path class="cls-3" d="M415.09,269c-8.54-9.65-25.33-8.75-37.49,2a37.16,37.16,0,0,0-5.8,6.51,71.58,71.58,0,0,0-18.15-8.2c-4.08-1.18-8.74-2.47-13.2-2.42,3.29-4.94,6.84-9.87,9.72-15.11a36.86,36.86,0,0,0,5.42,6c12.19,10.73,29,11.59,37.49,1.92s5.55-26.22-6.64-36.95-29-11.59-37.48-1.92c-5.73,6.5-6.26,16.09-2.3,24.94a80,80,0,0,1-6.9,11.63c-5.48-2.82-10.08-7.31-14.72-11.32q-7.74-6.68-15.25-13.61c-8.1-7.48-20.13-16-22.91-27.31a32.31,32.31,0,0,0,4.17-3.46c11.06,8.15,25,8.71,33.06.67,9.12-9.12,7.2-25.81-4.29-37.3s-28.17-13.4-37.29-4.28a18.86,18.86,0,0,0-3.4,4.73,57,57,0,0,1-20.94-26.95c11.7-6.41,19.21-16.28,19.21-27.38,0-19.3-22.69-34.94-50.68-34.94S176,91.9,176,111.2c0,17.69,19.08,32.31,43.83,34.61-4,11.37-11.79,19.67-20.57,28.06-.08-.05-.15-.11-.24-.16A49.28,49.28,0,0,0,184,168.27c4.83-15.09-1.14-30.69-13.76-35.33-13-4.78-28.21,3.93-33.92,19.47s.23,32,13.26,36.79c11.82,4.34,25.42-2.44,32.1-15.34a42.68,42.68,0,0,1,13.11,4.29h0c-6.19,5.84-12.25,11.89-18.71,17.43s-14,9.49-20.93,14.38c-12.46,8.74-22,20.87-35.59,28.1a76.25,76.25,0,0,1-20.79,7,3.48,3.48,0,0,0,0-.63,47.89,47.89,0,0,0-23.45-33.48c-3.32-1.91-6.31,3.21-3,5.12A42.19,42.19,0,0,1,93,246l0,.08c-8.28,1.32-16.69,2-24.62,3.06-3.73.48-3.78,6.42,0,5.93,11.33-1.46,23.42-2.34,34.86-4.95a15.39,15.39,0,0,1-3.61,17.28,2.12,2.12,0,0,0-.2.24A63.62,63.62,0,0,1,79,265.42c-3.67-1.05-5.24,4.67-1.57,5.72l.1,0a12.56,12.56,0,0,0-.67,1.26,19.63,19.63,0,0,0-.88,2.19c-.09.27-.17.53-.24.8-2.18,1.84-.61,6.21,2.61,5.14,2-.65,2.65-2.08,3.21-3.92a11.39,11.39,0,0,1,2-3.91l.11-.16a66.89,66.89,0,0,0,7.16.86c-.24,2.93-1.19,5.77-1,8.75.25,3.78,6.19,3.81,5.93,0-.19-2.91.72-5.71,1-8.58a97.09,97.09,0,0,0,9.78-.63c.41,2.56.38,5.32.59,7.88.3,3.77,6.23,3.81,5.92,0q-.24-3.18-.5-6.36c-.07-.78-.08-1.55-.17-2.3,4-.63,8-1.42,12-2.28q1.13,4.56,2,9.19c.7,3.74,6.42,2.15,5.71-1.58-.56-3-1.22-6-1.94-8.91l1.21-.28c3.71-.87,2.14-6.58-1.58-5.72a218.4,218.4,0,0,1-22.3,4.36A21.46,21.46,0,0,0,109,248.62a74.18,74.18,0,0,0,10-3.68c12.53-5.73,21.64-15.56,31.86-24.16a91.92,91.92,0,0,0,11.74,19.78c5.66,7.19,12.55,13.19,18.3,20.31a95.91,95.91,0,0,0,39.76,28.8h0a3.34,3.34,0,0,0,.44.17A63.54,63.54,0,0,0,232.64,292a25.27,25.27,0,0,1-1.92,10.68c-6.25-1.09-12.38.15-17.09,4-10,8.16-9.73,25,.55,37.54s26.69,16.14,36.67,8,9.74-25-.54-37.54a34.66,34.66,0,0,0-13.86-10.34,30.57,30.57,0,0,0,2-8.53,45.26,45.26,0,0,0,44.75,14.34,2.88,2.88,0,0,0,1.35-.09,53.68,53.68,0,0,0,7.18-2.75,38.23,38.23,0,0,0,4.09,22.13c-.4.24-.79.45-1.18.69-13.68,8.75-19.15,24.64-12.2,35.5s23.66,12.58,37.34,3.83,19.14-24.64,12.2-35.5c-5.89-9.2-18.79-11.81-30.92-7.07a32.66,32.66,0,0,1-2.73-22.95c2.36-1.31,4.69-2.67,7-4,7.06-4.1,14-8.56,20-14.13a80.77,80.77,0,0,0,10.3-11.86,5,5,0,0,0,.56-.22c5.28-2.71,14.56.76,19.75,2.63a67.28,67.28,0,0,1,12.93,6.38c-4.12,9-3.64,18.74,2.18,25.31,8.54,9.65,25.32,8.75,37.48-2S423.63,278.7,415.09,269ZM226.72,146.14a68.26,68.26,0,0,0,26.09-5,62.71,62.71,0,0,0,4.73,9.71c-11.13,3.34-23.55,6-35,3.83a51.19,51.19,0,0,0,3.51-8.56Zm-4,138-.18,0a2.8,2.8,0,0,0-.3-.15,90,90,0,0,1-37.59-27.87c-4.74-6-10.4-10.87-15.33-16.64a84.33,84.33,0,0,1-13.63-22.32c0-.05-.06-.09-.08-.14,1.41-1.07,2.85-2.12,4.33-3.11,6.92-4.59,14-8.65,20.33-14.09,7.3-6.28,14.15-13.12,21.16-19.73,3.77-3.56,7.39-7.07,10.68-10.71,5.16,3.28,8.49,9.2,11.09,15a134,134,0,0,1-9.79,9.26c-3.41,2.71-16,10.05-18.78,11.65a7.15,7.15,0,0,0-1,.71,14.29,14.29,0,0,0-2.83,18.11,6.5,6.5,0,0,0,2.34,2.23c2.79,1.61,9.23,5.43,10.75,7.34,2.36,3,.95,10.93,3.31,13.9a61.68,61.68,0,0,0,10.27,9.32,5.69,5.69,0,0,1,1.22,1.32c3,3.65,6.91,9.84,9.15,12.65,1.75,2.2,2.56,9.48,4.31,11.68a20.56,20.56,0,0,0,4.87,3.85A57.77,57.77,0,0,1,222.69,284.13ZM231,176.2s-1.39,1.49-3.43,3.63c-2.82-5.86-6.36-11.47-11.59-15.06,1.2-1.52,2.33-3.09,3.39-4.69,13.58,3.15,28.51,0,41.6-4.06a63.46,63.46,0,0,0,16.21,15.33c-1.53,8.52,1.75,18.65,9.39,26.45A34.92,34.92,0,0,1,276,205a25.85,25.85,0,0,0-6.1-10.6c-4.12-4.31-18.92-16-18.92-16C244.78,173.12,237.11,171.33,231,176.2Zm72.27,118.06c-2.82,1.65-5.68,3.37-8.6,5a2.77,2.77,0,0,0-.79.43,58.64,58.64,0,0,1-10.76,4.64,3.09,3.09,0,0,0-1.16.06A39.28,39.28,0,0,1,243,292.08c1.14-.07,2.27-.17,3.41-.31.07.07.16.12.23.2,4.75,5.16,11.15,4.41,19,1.56l.55-.23c1.95-.89,13.86-6.41,17.77-9.52,3.07-2.44,7.76-10.21,10.84-12.66a33.52,33.52,0,0,1,5.7-3,31.69,31.69,0,0,1,13.87,19C310.81,289.69,307.05,292,303.25,294.26Zm32.27-30.61c-4.24,6.42-8.71,12.68-14.38,17.93-.58.53-1.17,1.05-1.76,1.56a37.18,37.18,0,0,0-13-18c5.33-4.48,4.18-12.57-.64-17.81a5.13,5.13,0,0,0-.53-.51c-1.87-1.66-13-11.64-23.12-22.4-3.2-3.41-3.73-8.35-4.76-13.75,1.46-.66,2.87-1.43,4.26-2.21,3.46,11,14.22,19.17,22.33,26.71q8.31,7.73,16.92,15.16c4.9,4.23,9.77,9,15.55,12Z"/><rect class="cls-4" x="277.16" y="343.74" width="85.38" height="50.42" rx="8.74" transform="translate(-141.62 209.36) rotate(-30)"/><rect class="cls-4" x="348.44" y="193.48" width="77.22" height="50.42" rx="8.74" transform="translate(220.45 -193.47) rotate(38.52)"/><rect class="cls-4" x="92.95" y="127.4" width="77.22" height="50.42" rx="8.74" transform="translate(-53.41 232.51) rotate(-72.6)"/><rect class="cls-4" x="285.4" y="138.23" width="72.15" height="50.42" rx="8.74" transform="translate(209.73 -179.45) rotate(45)"/><rect class="cls-4" x="175.49" y="317.82" width="76.97" height="50.42" rx="8.74" transform="translate(344.11 -39.75) rotate(50.73)"/><rect class="cls-4" x="210.7" y="207.19" width="16.88" height="16.88" rx="3.64" transform="translate(247.37 -90.51) rotate(50.73)"/><rect class="cls-4" x="224.69" y="224.29" width="16.88" height="16.88" rx="3.64" transform="translate(265.74 -95.06) rotate(50.73)"/><rect class="cls-4" x="239.26" y="242.11" width="16.88" height="16.88" rx="3.64" transform="translate(284.89 -99.8) rotate(50.73)"/><rect class="cls-4" x="254.31" y="259.22" width="16.88" height="16.88" rx="3.64" transform="translate(303.66 -105.18) rotate(50.73)"/><rect class="cls-4" x="274.38" y="243.57" width="16.88" height="16.88" rx="3.64" transform="translate(266.64 630.48) rotate(-129.25)"/><rect class="cls-4" x="260.41" y="226.47" width="16.88" height="16.88" rx="3.64" transform="translate(257.06 591.73) rotate(-129.25)"/><rect class="cls-4" x="245.84" y="208.64" width="16.88" height="16.88" rx="3.64" transform="translate(247.08 551.34) rotate(-129.25)"/><rect class="cls-4" x="230.79" y="191.53" width="16.88" height="16.88" rx="3.64" transform="translate(235.75 511.75) rotate(-129.25)"/><rect class="cls-4" x="161.34" y="35.47" width="126.43" height="67.19" rx="8.74"/><rect class="cls-4" x="364.9" y="281.85" width="89.15" height="50.42" rx="8.74" transform="translate(-100.67 348.45) rotate(-41.5)"/><circle class="cls-2" cx="287.77" cy="35.47" r="11.11"/><path class="cls-4" d="M290,40.68h-2V32.94l-2.4.75V32.05l4.19-1.5H290Z"/><circle class="cls-2" cx="360.69" cy="170.12" r="11.11"/><path class="cls-4" d="M359.57,169.31h1a1.4,1.4,0,0,0,1-.35,1.32,1.32,0,0,0,.33-.93,1.15,1.15,0,0,0-.33-.88,1.33,1.33,0,0,0-.92-.31,1.4,1.4,0,0,0-.89.29,1,1,0,0,0-.35.76h-1.84a2.29,2.29,0,0,1,.39-1.31,2.64,2.64,0,0,1,1.09-.9,3.77,3.77,0,0,1,1.55-.32,3.46,3.46,0,0,1,2.31.7,2.39,2.39,0,0,1,.83,1.94,1.91,1.91,0,0,1-.38,1.17,2.6,2.6,0,0,1-1,.83,2.26,2.26,0,0,1,1.17.84,2.3,2.3,0,0,1,.38,1.32,2.44,2.44,0,0,1-.9,2,3.62,3.62,0,0,1-2.39.75,3.44,3.44,0,0,1-2.27-.74,2.39,2.39,0,0,1-.88-1.93h1.84a1.06,1.06,0,0,0,.39.85,1.48,1.48,0,0,0,1,.33,1.46,1.46,0,0,0,1-.34,1.21,1.21,0,0,0,.37-.92c0-.93-.51-1.39-1.53-1.39h-1Z"/><circle class="cls-2" cx="428.77" cy="223.1" r="11.11"/><path class="cls-4" d="M431.11,224.25h1.05v1.48h-1.05v2h-1.84v-2h-3.81l-.08-1.16,3.87-6.11h1.86Zm-3.9,0h2.06V221l-.13.21Z"/><circle class="cls-2" cx="425.63" cy="262.06" r="11.11"/><path class="cls-4" d="M422.73,262.11l.48-4.72,5.2-.07v1.54l-3.68,0-.21,2a3,3,0,0,1,1.39-.37,2.69,2.69,0,0,1,2.09.8,3.25,3.25,0,0,1,.78,2.29,3.5,3.5,0,0,1-.36,1.61,2.71,2.71,0,0,1-1.08,1.12,3.45,3.45,0,0,1-1.66.41,3.69,3.69,0,0,1-1.56-.32,2.77,2.77,0,0,1-1.15-.95,2.6,2.6,0,0,1-.46-1.4l1.82,0a1.32,1.32,0,0,0,.42.89,1.2,1.2,0,0,0,.91.31,1.09,1.09,0,0,0,.95-.46,2.11,2.11,0,0,0,.33-1.27,1.72,1.72,0,0,0-.41-1.21,1.43,1.43,0,0,0-1.11-.4,1.57,1.57,0,0,0-1.05.35l-.18.17Z"/><circle class="cls-2" cx="341.99" cy="327.06" r="11.11"/><path class="cls-4" d="M343.78,322.32v1.51h-.18a3.12,3.12,0,0,0-2,.65,2.67,2.67,0,0,0-.91,1.75,2.52,2.52,0,0,1,1.87-.75,2.37,2.37,0,0,1,1.92.87,3.42,3.42,0,0,1,.71,2.28,3.39,3.39,0,0,1-.39,1.63,2.77,2.77,0,0,1-1.11,1.14,3.1,3.1,0,0,1-1.62.41,3,3,0,0,1-2.36-1,4,4,0,0,1-.9-2.72v-.66a5.91,5.91,0,0,1,.56-2.66A4.27,4.27,0,0,1,341,323a4.79,4.79,0,0,1,2.48-.63ZM342,327a1.43,1.43,0,0,0-.81.24,1.45,1.45,0,0,0-.54.61v.56a2.44,2.44,0,0,0,.37,1.44,1.18,1.18,0,0,0,1,.52,1.16,1.16,0,0,0,1-.47,2.18,2.18,0,0,0,0-2.43A1.21,1.21,0,0,0,342,327Z"/><circle class="cls-2" cx="253.48" cy="356.79" r="11.11"/><path class="cls-4" d="M256.76,353.18l-3.59,8.24h-1.94l3.59-7.79h-4.61v-1.48h6.55Z"/><circle class="cls-2" cx="121.15" cy="110.16" r="11.11"/><path class="cls-4" d="M124.42,114.86h-6.36V113.6l3-3.2a7.55,7.55,0,0,0,.92-1.18,1.93,1.93,0,0,0,.29-1,1.4,1.4,0,0,0-.31-1,1.12,1.12,0,0,0-.89-.36,1.24,1.24,0,0,0-1,.43,1.72,1.72,0,0,0-.36,1.13h-1.84a3,3,0,0,1,.4-1.54,2.77,2.77,0,0,1,1.15-1.1,3.41,3.41,0,0,1,1.67-.4,3.29,3.29,0,0,1,2.23.69,2.42,2.42,0,0,1,.79,1.94,3.07,3.07,0,0,1-.36,1.4,7.26,7.26,0,0,1-1.22,1.66l-2.11,2.23h4Z"/><rect class="cls-2" y="239.65" width="69.42" height="26.26" rx="7.33"/><path class="cls-4" d="M10.24,253.57H6.94v2.23h3.88v1.38H5.22v-8.35H10.8v1.4H6.94v2h3.3Z"/><path class="cls-4" d="M18.62,257.18H16.9l-3.35-5.49v5.49H11.83v-8.35h1.72l3.35,5.51v-5.51h1.72Z"/><path class="cls-4" d="M26.24,250.23H23.68v7H22v-7H19.44v-1.4h6.8Z"/><path class="cls-4" d="M30.31,254.13H28.94v3.05H27.22v-8.35h3.1a3.53,3.53,0,0,1,2.29.66,2.29,2.29,0,0,1,.8,1.87,2.34,2.34,0,0,1-1.49,2.33l1.8,3.41v.08H31.88Zm-1.37-1.4h1.39a1.4,1.4,0,0,0,1-.33,1.17,1.17,0,0,0,.36-.91,1.21,1.21,0,0,0-.34-.92,1.36,1.36,0,0,0-1-.34H28.94Z"/><path class="cls-4" d="M39.43,255.46h-3l-.57,1.72H34l3.11-8.35h1.59l3.13,8.35H40Zm-2.55-1.39H39l-1-3.13Z"/><path class="cls-4" d="M49.41,257.18H47.69l-3.35-5.49v5.49H42.62v-8.35h1.72l3.36,5.51v-5.51h1.71Z"/><path class="cls-4" d="M57.47,254.4a3,3,0,0,1-1,2.13,3.49,3.49,0,0,1-2.36.77,3.16,3.16,0,0,1-2.53-1.08,4.45,4.45,0,0,1-.92-3v-.51a4.9,4.9,0,0,1,.43-2.12,3.16,3.16,0,0,1,1.21-1.41,3.39,3.39,0,0,1,1.83-.49,3.43,3.43,0,0,1,2.33.77,3.17,3.17,0,0,1,1,2.18H55.76a1.76,1.76,0,0,0-.45-1.18,1.68,1.68,0,0,0-1.18-.36,1.48,1.48,0,0,0-1.29.62,3.44,3.44,0,0,0-.43,1.91v.63a3.66,3.66,0,0,0,.41,2,1.41,1.41,0,0,0,1.29.62,1.71,1.71,0,0,0,1.19-.36,1.66,1.66,0,0,0,.45-1.13Z"/><path class="cls-4" d="M63.62,253.57h-3.3v2.23H64.2v1.38H58.6v-8.35h5.59v1.4H60.32v2h3.3Z"/><rect class="cls-2" x="43.5" y="204.54" width="43.69" height="14.88" rx="2.7" transform="translate(-116.12 84.41) rotate(-37.76)"/><path class="cls-4" d="M53.49,218.59l-1.64,1.26,3.44,4.45-1.09.85-3.45-4.44L49.14,222l-.69-.89,4.35-3.36Z"/><path class="cls-4" d="M58.72,221.64l-1.1.85-4.13-5.33,1.1-.85Z"/><path class="cls-4" d="M62.55,215.83a2.4,2.4,0,0,1,.41,1.85,2.82,2.82,0,0,1-1.12,1.67,2.57,2.57,0,0,1-2.15.56,3.64,3.64,0,0,1-2.06-1.44l-.25-.33a3.92,3.92,0,0,1-.78-1.57,2.58,2.58,0,0,1,.08-1.49,2.66,2.66,0,0,1,.93-1.22,2.72,2.72,0,0,1,1.87-.66,2.56,2.56,0,0,1,1.72.88l-1.09.85a1.41,1.41,0,0,0-.87-.52,1.31,1.31,0,0,0-.93.35,1.17,1.17,0,0,0-.52,1,2.81,2.81,0,0,0,.66,1.44l.32.4A2.92,2.92,0,0,0,60,218.69a1.15,1.15,0,0,0,1.13-.24,1.38,1.38,0,0,0,.58-.82,1.29,1.29,0,0,0-.27-.94Z"/><path class="cls-4" d="M64.66,213.62l-.09,1.06,1.18,1.52-1.1.85-4.13-5.33,1.1-.85,1.87,2.42,0-1v-2.81l1.35-1-.06,3.83L69,213.69l-1.3,1Z"/><path class="cls-4" d="M70.83,208.57l-2.11,1.63,1.1,1.43,2.48-1.92.68.89-3.57,2.76L65.28,208l3.57-2.76.68.89-2.46,1.91,1,1.27,2.11-1.63Z"/><path class="cls-4" d="M74.27,202.49l-1.63,1.26,3.44,4.45-1.1.85-3.44-4.45-1.61,1.25-.69-.89,4.34-3.36Z"/><path class="cls-4" d="M80,203a.7.7,0,0,0-.59-.31,4,4,0,0,0-1.06.26,6.23,6.23,0,0,1-1.19.34,1.86,1.86,0,0,1-1.93-.62,1.64,1.64,0,0,1-.35-1,2,2,0,0,1,.29-1.07,3.33,3.33,0,0,1,.87-1,3,3,0,0,1,1.18-.58,2,2,0,0,1,1.15,0,2,2,0,0,1,.91.67l-1.1.85a.9.9,0,0,0-.67-.39,1.17,1.17,0,0,0-.81.3,1.25,1.25,0,0,0-.49.65.68.68,0,0,0,.12.62.65.65,0,0,0,.6.24,3.84,3.84,0,0,0,1-.27,4.14,4.14,0,0,1,1.91-.36,1.75,1.75,0,0,1,1.23.71,1.63,1.63,0,0,1,.32,1.49,3,3,0,0,1-1.11,1.49,3.54,3.54,0,0,1-1.29.64,2.29,2.29,0,0,1-1.25,0,2,2,0,0,1-1-.7l1.1-.86c.46.59,1,.61,1.74.07a1.33,1.33,0,0,0,.49-.63A.67.67,0,0,0,80,203Z"/><rect class="cls-2" x="84.91" y="279.56" width="15.26" height="14.93" rx="2"/><path class="cls-4" d="M90,283.33H87.41a1.12,1.12,0,0,0-1.12,1.12l0,3.48a.47.47,0,0,0,.47.47h0a.47.47,0,0,0,.48-.47l0-3.48h0a.09.09,0,1,1,.18,0v8A.57.57,0,0,0,88,293a.56.56,0,0,0,.57-.57v-4.54h.25v4.54a.57.57,0,1,0,1.13,0c0-7.51,0-3.21,0-8a.1.1,0,0,1,.1-.1.1.1,0,0,1,.1.09h0v3.48a.47.47,0,0,0,.47.47h0a.47.47,0,0,0,.47-.47v-3.48h0A1.13,1.13,0,0,0,90,283.33Z"/><circle class="cls-4" cx="88.68" cy="282.04" r="0.98"/><path class="cls-4" d="M99.11,287.19s-.87-2.48-1-2.87c-.22-.64-.59-1-1.09-1H95.38c-.5,0-.87.32-1.09,1-.13.39-1,2.85-1,2.87a.46.46,0,0,0,.29.6.47.47,0,0,0,.6-.29c0-.08.54-1.52.83-2.34,0,.24.06-.27-.67,3.49a.26.26,0,0,0,.26.31H95v3.41a.57.57,0,0,0,.57.57.56.56,0,0,0,.56-.57V289h.25v3.41a.56.56,0,1,0,1.12,0V289h.36a.26.26,0,0,0,.26-.31c-.72-3.72-.64-3.29-.67-3.49.29.83.8,2.27.82,2.34a.47.47,0,0,0,.6.29A.46.46,0,0,0,99.11,287.19Z"/><circle class="cls-4" cx="96.2" cy="282.08" r="0.97"/><path class="cls-4" d="M92.3,281.69a.37.37,0,0,0-.37.36V292a.37.37,0,0,0,.37.36.36.36,0,0,0,.36-.36v-9.94A.36.36,0,0,0,92.3,281.69Z"/><rect class="cls-2" x="65.85" y="276.55" width="15.26" height="14.93" rx="2" transform="translate(98.41 -8.29) rotate(19.38)"/><path class="cls-4" d="M72.13,285.11l2.1.76a.2.2,0,0,0,.26-.12l1-2.64a.12.12,0,0,0,0-.1l-1.92.64a.67.67,0,0,1-.37,0l-.17.47a.19.19,0,0,1-.25.11.18.18,0,0,1-.11-.24l.19-.51a.69.69,0,0,1-.2-.3s0,0,0-.05L72,284.84A.21.21,0,0,0,72.13,285.11Z"/><path class="cls-4" d="M78.66,284.06l-2.11-.77a.22.22,0,0,0-.27.12l-1,2.64a.21.21,0,0,0,.12.27l2.11.77a.21.21,0,0,0,.27-.13l1-2.63A.21.21,0,0,0,78.66,284.06Zm-2.36,1.29a.21.21,0,0,1-.25.11.2.2,0,0,1-.11-.25l.33-.9a.21.21,0,0,1,.25-.12.19.19,0,0,1,.11.25Z"/><path class="cls-4" d="M80,280.42l-2.11-.78a.22.22,0,0,0-.27.13l-.9,2.47a.21.21,0,0,0,.12.27l2.11.77a.21.21,0,0,0,.27-.13l.9-2.47A.2.2,0,0,0,80,280.42Zm-2.34,1.22a.19.19,0,0,1-.24.11.21.21,0,0,1-.12-.25l.34-.9a.19.19,0,1,1,.35.13Z"/><path class="cls-4" d="M77.27,287.87l-2.11-.77a.21.21,0,0,0-.27.12l-.9,2.47a.21.21,0,0,0,.12.27l2.11.77a.22.22,0,0,0,.27-.12l.9-2.47A.21.21,0,0,0,77.27,287.87ZM75,289.15a.18.18,0,0,1-.24.11.19.19,0,0,1-.12-.24l.33-.91a.19.19,0,0,1,.25-.11.18.18,0,0,1,.11.24Z"/><path class="cls-4" d="M73.94,286.65l-2.1-.76a.2.2,0,0,0-.26.12l-.91,2.47a.21.21,0,0,0,.13.27l2.1.77a.2.2,0,0,0,.26-.13l.9-2.47A.21.21,0,0,0,73.94,286.65ZM71.7,288a.21.21,0,0,1-.25.11.2.2,0,0,1-.11-.25l.33-.9a.21.21,0,0,1,.25-.12A.19.19,0,0,1,72,287Z"/><path class="cls-4" d="M74,281.12v.06c0,.08,0,.19,0,.31l.32.12.39-.13a.9.9,0,0,1,.54,0,.8.8,0,0,1,.49.51v0a.16.16,0,0,0,.07-.09l.9-2.47a.21.21,0,0,0-.12-.27l-2.1-.76a.2.2,0,0,0-.26.12l-.59,1.59A2,2,0,0,1,74,281.12Zm.3-1.73a.19.19,0,0,1,.25-.11.18.18,0,0,1,.11.24l-.33.91a.18.18,0,0,1-.24.11.19.19,0,0,1-.12-.24Z"/><path class="cls-4" d="M73.51,283.23l1.66-.56a.42.42,0,0,0,.27-.55.44.44,0,0,0-.55-.28l-1.14.39c-.08-.79-.09-.93-.11-1.07A1.08,1.08,0,0,0,73,280.1l-2.2-.81a1,1,0,0,0-1.32.61l-1.12,3a.44.44,0,0,0,.26.56h0a.43.43,0,0,0,.56-.26l1.11-3h0a.08.08,0,0,1,.11,0,.08.08,0,0,1,0,.11L68,287.15a.52.52,0,1,0,1,.36l1.44-3.93.21.08-1.44,3.93a.54.54,0,0,0,.32.67.52.52,0,0,0,.67-.31c2.35-6.46,1-2.86,2.53-7l0,0,0,0c0,.33.2,1.56.23,1.87A.44.44,0,0,0,73.51,283.23Z"/><path class="cls-4" d="M72,279.43a.9.9,0,1,0,.62-1.7.89.89,0,0,0-1.14.49A.91.91,0,0,0,72,279.43Z"/><rect class="cls-2" x="103.95" y="277.79" width="15.26" height="14.93" rx="2" transform="translate(-50.29 25.22) rotate(-10.54)"/><path class="cls-4" d="M108.37,282.1l-2.51.47a1.13,1.13,0,0,0-.9,1.3l.62,3.42a.47.47,0,0,0,.55.38h0a.48.48,0,0,0,.38-.55l-.62-3.42h0a.09.09,0,0,1,.07-.11.1.1,0,0,1,.11.08l1.46,7.82a.56.56,0,1,0,1.11-.21l-.83-4.46.24-.05.84,4.47A.56.56,0,0,0,110,291c-1.37-7.38-.6-3.16-1.46-7.82a.09.09,0,0,1,.07-.11.1.1,0,0,1,.12.07h0l.63,3.42a.48.48,0,0,0,.56.38h0a.49.49,0,0,0,.38-.55l-.64-3.42h0A1.12,1.12,0,0,0,108.37,282.1Z"/><circle class="cls-4" cx="106.88" cy="281.06" r="0.98"/><path class="cls-4" d="M118.07,284.22s-1.31-2.28-1.51-2.64a1.18,1.18,0,0,0-1.25-.74l-1.61.3c-.49.09-.79.47-.89,1.14-.06.41-.46,3-.46,3a.47.47,0,0,0,.93.14c0-.08.26-1.59.39-2.46,0,.25,0-.27,0,3.56a.26.26,0,0,0,.31.26l.35-.07.62,3.36a.58.58,0,0,0,.66.45.56.56,0,0,0,.45-.66l-.62-3.35.24,0,.62,3.36a.58.58,0,0,0,.66.45.56.56,0,0,0,.45-.66l-.62-3.35.35-.07a.26.26,0,0,0,.2-.35c-1.4-3.53-1.24-3.12-1.3-3.32l1.24,2.16a.47.47,0,1,0,.81-.47Z"/><circle class="cls-4" cx="114.28" cy="279.72" r="0.97"/><path class="cls-4" d="M110.37,280.06a.36.36,0,0,0-.29.42l1.81,9.77a.38.38,0,0,0,.43.29.38.38,0,0,0,.29-.42l-1.82-9.77A.36.36,0,0,0,110.37,280.06Z"/><rect class="cls-2" x="122.53" y="274.1" width="15.26" height="14.93" rx="2" transform="translate(-50.76 29.59) rotate(-10.87)"/><path class="cls-4" d="M126.92,278.44l-2.5.48a1.12,1.12,0,0,0-.89,1.3l.64,3.42a.47.47,0,0,0,.55.38h0a.47.47,0,0,0,.38-.55l-.64-3.42h0a.1.1,0,0,1,.08-.11.09.09,0,0,1,.11.07l1.5,7.82a.56.56,0,0,0,1.11-.21l-.85-4.47.24,0,.85,4.46a.57.57,0,1,0,1.12-.22c-1.42-7.37-.62-3.15-1.51-7.8a.1.1,0,0,1,.08-.12.09.09,0,0,1,.11.07h0l.66,3.42a.47.47,0,0,0,.55.37h0a.47.47,0,0,0,.38-.55l-.66-3.42h0A1.12,1.12,0,0,0,126.92,278.44Z"/><circle class="cls-4" cx="125.43" cy="277.4" r="0.98"/><path class="cls-4" d="M136.64,280.5l-1.53-2.64a1.17,1.17,0,0,0-1.25-.73l-1.6.31c-.5.09-.8.48-.89,1.14-.06.42-.44,3-.45,3a.48.48,0,0,0,.4.53.46.46,0,0,0,.53-.4c0-.08.25-1.59.38-2.46,0,.25,0-.27,0,3.56a.26.26,0,0,0,.31.26l.35-.07.65,3.35a.56.56,0,0,0,.66.45.57.57,0,0,0,.44-.66l-.64-3.35.24-.05.64,3.35a.56.56,0,1,0,1.11-.21l-.64-3.35.35-.07a.26.26,0,0,0,.19-.35c-1.41-3.53-1.25-3.12-1.31-3.31.44.77,1.21,2.08,1.25,2.15a.47.47,0,1,0,.81-.47Z"/><circle class="cls-4" cx="132.82" cy="276.02" r="0.97"/><path class="cls-4" d="M128.91,276.38a.37.37,0,0,0-.29.42l1.88,9.76a.35.35,0,0,0,.42.29.36.36,0,0,0,.29-.43l-1.87-9.75A.36.36,0,0,0,128.91,276.38Z"/><path class="cls-2" d="M221.28,214.05a1.51,1.51,0,0,1-.25.87,1.72,1.72,0,0,1-.67.61,2,2,0,0,1,.78.65,1.68,1.68,0,0,1,.28,1,1.75,1.75,0,0,1-.61,1.42,2.47,2.47,0,0,1-1.66.53,2.5,2.5,0,0,1-1.67-.53,1.76,1.76,0,0,1-.61-1.42,1.65,1.65,0,0,1,.28-1,1.85,1.85,0,0,1,.78-.65,1.75,1.75,0,0,1-.68-.61,1.58,1.58,0,0,1-.24-.87,1.75,1.75,0,0,1,.57-1.37,2.29,2.29,0,0,1,1.56-.51,2.25,2.25,0,0,1,1.56.5A1.73,1.73,0,0,1,221.28,214.05Zm-1.2,3a1,1,0,0,0-.25-.71,1,1,0,0,0-1.37,0,1.09,1.09,0,0,0,0,1.4.91.91,0,0,0,.7.27.9.9,0,0,0,.68-.26A.94.94,0,0,0,220.08,217.06Zm-.14-2.94a.93.93,0,0,0-.21-.64.73.73,0,0,0-.59-.24.73.73,0,0,0-.58.24.9.9,0,0,0-.21.64,1,1,0,0,0,.21.64.82.82,0,0,0,1.18,0A1,1,0,0,0,219.94,214.12Z"/><path class="cls-2" d="M234,233.42a1.64,1.64,0,0,1-1.22.52,1.82,1.82,0,0,1-1.43-.62,2.41,2.41,0,0,1-.54-1.65,2.61,2.61,0,0,1,.29-1.22,2,2,0,0,1,.81-.86,2.23,2.23,0,0,1,1.17-.31,2.14,2.14,0,0,1,1.18.33,2.25,2.25,0,0,1,.81,1,3.45,3.45,0,0,1,.29,1.43v.5a3.9,3.9,0,0,1-.84,2.65,3.16,3.16,0,0,1-2.37,1h-.33v-1.11h.29C233.32,235,234,234.46,234,233.42Zm-.89-.51a1,1,0,0,0,.56-.16,1.24,1.24,0,0,0,.35-.41v-.55a1.77,1.77,0,0,0-.26-1,.8.8,0,0,0-.69-.38.76.76,0,0,0-.66.37,1.49,1.49,0,0,0-.26.92,1.53,1.53,0,0,0,.25.91A.83.83,0,0,0,233.15,232.91Z"/><path class="cls-2" d="M245.8,253.93h-1.34v-5.16l-1.6.49v-1.09l2.8-1h.14Z"/><path class="cls-2" d="M252.53,251.14a3.41,3.41,0,0,1-.58,2.14,2.31,2.31,0,0,1-3.38,0,3.3,3.3,0,0,1-.6-2.08V250a3.38,3.38,0,0,1,.59-2.15,2,2,0,0,1,1.69-.73,2.06,2.06,0,0,1,1.69.72,3.4,3.4,0,0,1,.59,2.09Zm-1.34-1.37a2.39,2.39,0,0,0-.23-1.22.77.77,0,0,0-.71-.38.76.76,0,0,0-.7.36,2.36,2.36,0,0,0-.24,1.14v1.64a2.61,2.61,0,0,0,.23,1.23.85.85,0,0,0,1.43,0,2.55,2.55,0,0,0,.22-1.18Z"/><path class="cls-2" d="M261.5,271h-1.34v-5.16l-1.6.49v-1.09l2.8-1h.14Z"/><path class="cls-2" d="M266.94,271H265.6v-5.16l-1.59.49v-1.09l2.79-1h.14Z"/><path class="cls-2" d="M237.29,203.39H236v-5.16l-1.6.5v-1.09l2.8-1h.14Z"/><path class="cls-2" d="M244.1,203.39h-4.62v-.92l2.18-2.32a5.68,5.68,0,0,0,.67-.86,1.37,1.37,0,0,0,.21-.69,1,1,0,0,0-.22-.71.83.83,0,0,0-.65-.26.9.9,0,0,0-.72.32,1.24,1.24,0,0,0-.26.82h-1.34a2.29,2.29,0,0,1,.29-1.13,2.13,2.13,0,0,1,.83-.8,2.59,2.59,0,0,1,1.22-.29,2.4,2.4,0,0,1,1.62.5,1.81,1.81,0,0,1,.58,1.42,2.34,2.34,0,0,1-.26,1,6.39,6.39,0,0,1-.89,1.21l-1.53,1.61h2.89Z"/><path class="cls-2" d="M252.39,220.45h-1.34v-5.16l-1.6.5V214.7l2.8-1h.14Z"/><path class="cls-2" d="M255.94,216.49h.72a1,1,0,0,0,.75-.26.9.9,0,0,0,.25-.67.84.84,0,0,0-.24-.64,1,1,0,0,0-.67-.22,1,1,0,0,0-.65.21.68.68,0,0,0-.26.55H254.5a1.64,1.64,0,0,1,.29-1,1.88,1.88,0,0,1,.8-.66,2.73,2.73,0,0,1,1.12-.23,2.52,2.52,0,0,1,1.68.51,1.73,1.73,0,0,1,.61,1.41,1.41,1.41,0,0,1-.29.85,1.76,1.76,0,0,1-.74.6,1.57,1.57,0,0,1,1.13,1.57,1.76,1.76,0,0,1-.65,1.44,2.61,2.61,0,0,1-1.74.55,2.48,2.48,0,0,1-1.65-.54,1.71,1.71,0,0,1-.64-1.4h1.34a.77.77,0,0,0,.28.62,1.07,1.07,0,0,0,.71.24,1,1,0,0,0,.74-.26.85.85,0,0,0,.27-.66c0-.68-.37-1-1.11-1h-.71Z"/><path class="cls-2" d="M266.86,238.29h-1.34v-5.17l-1.6.5v-1.09l2.79-1h.15Z"/><path class="cls-2" d="M273,235.75h.76v1.08H273v1.46h-1.34v-1.46H268.9l-.06-.85,2.82-4.44H273Zm-2.83,0h1.49v-2.38l-.09.15Z"/><path class="cls-2" d="M280.9,255.34h-1.34v-5.16l-1.6.5v-1.09l2.8-1h.14Z"/><path class="cls-2" d="M283.29,252l.39-3.43h3.78v1.12h-2.68l-.17,1.45a2.15,2.15,0,0,1,1-.26,2,2,0,0,1,1.51.6,2.4,2.4,0,0,1,.54,1.67,2.46,2.46,0,0,1-.27,1.17,2,2,0,0,1-.79.8,2.5,2.5,0,0,1-1.22.29,2.7,2.7,0,0,1-1.13-.25,2,2,0,0,1-.83-.7,1.89,1.89,0,0,1-.32-1h1.33a.91.91,0,0,0,.95.89.83.83,0,0,0,.7-.33,1.53,1.53,0,0,0,.24-.92,1.22,1.22,0,0,0-.28-.88,1,1,0,0,0-.8-.31,1.12,1.12,0,0,0-.77.25l-.13.12Z"/><g id="_3d_printer" data-name=" 3d printer"><rect class="cls-5" x="119.7" y="158.26" width="23.55" height="2.07"/><rect class="cls-5" x="119.49" y="145.44" width="23.66" height="0.97"/><path class="cls-6" d="M143.38,137.44H119.23a2.14,2.14,0,0,0-2.14,2.14h0v24.53a2.14,2.14,0,0,0,2.14,2.15h24.15a2.14,2.14,0,0,0,2.14-2.15V139.58A2.14,2.14,0,0,0,143.38,137.44Zm-.84,21.07a1.47,1.47,0,0,1-1.46,1.46H121.53a1.47,1.47,0,0,1-1.46-1.46v-17a1.47,1.47,0,0,1,1.46-1.46h19.55a1.47,1.47,0,0,1,1.46,1.46Z"/><circle class="cls-7" cx="131.53" cy="156.03" r="2.23"/><ellipse class="cls-8" cx="130.45" cy="154.8" rx="0.8" ry="0.3" transform="translate(-65.81 105.18) rotate(-35.69)"/><path class="cls-9" d="M129.54,150.44H129a.22.22,0,0,1-.21-.15l-1.14-3.36h3.21l-1.13,3.36A.23.23,0,0,1,129.54,150.44Z"/><rect class="cls-6" x="127.03" y="143.67" width="4.5" height="4.5" rx="0.87"/><path class="cls-4" d="M122.9,162.78h.32a.29.29,0,0,0,.27-.13.66.66,0,0,0,.09-.33.57.57,0,0,0-.09-.32.28.28,0,0,0-.24-.11.24.24,0,0,0-.22.1.47.47,0,0,0-.09.28h-.66a.88.88,0,0,1,.12-.48.83.83,0,0,1,.34-.33,1,1,0,0,1,.49-.12,1.07,1.07,0,0,1,.74.26,1,1,0,0,1,.27.71.82.82,0,0,1-.12.43.92.92,0,0,1-.32.3.73.73,0,0,1,.36.31,1,1,0,0,1-.17,1.21,1.06,1.06,0,0,1-.76.27.93.93,0,0,1-1-.87v-.11h.66a.5.5,0,0,0,.1.31.27.27,0,0,0,.24.12.3.3,0,0,0,.27-.12.47.47,0,0,0,.1-.34c0-.33-.13-.5-.39-.5h-.33Z"/><path class="cls-4" d="M124.78,164.78v-3.4h.9a1.2,1.2,0,0,1,.95.38,1.47,1.47,0,0,1,.36,1v.54a1.43,1.43,0,0,1-.35,1,1.23,1.23,0,0,1-1,.39Zm.68-2.82v2.25h.21a.57.57,0,0,0,.48-.18,1.14,1.14,0,0,0,.15-.62v-.59a1.21,1.21,0,0,0-.14-.67.52.52,0,0,0-.45-.19Z"/><path class="cls-4" d="M129.27,163.59v1.19h-.69v-3.4h1.16a1.08,1.08,0,0,1,.81.32,1.15,1.15,0,0,1,.3.81,1.1,1.1,0,0,1-.3.79,1.16,1.16,0,0,1-.82.29Zm0-.58h.47a.37.37,0,0,0,.3-.12.57.57,0,0,0,.11-.38.69.69,0,0,0-.11-.41.38.38,0,0,0-.3-.15h-.47Z"/><path class="cls-4" d="M132.33,163.54H132v1.24h-.68v-3.4h1.09a1.14,1.14,0,0,1,.79.28,1,1,0,0,1,.28.76,1,1,0,0,1-.49.94l.6,1.38v0h-.74ZM132,163h.39a.35.35,0,0,0,.31-.14.56.56,0,0,0,.1-.36c0-.34-.14-.51-.4-.51H132Z"/><path class="cls-4" d="M134.66,164.78H134v-3.4h.68Z"/><path class="cls-4" d="M137.61,164.78h-.68l-1-2.22v2.23h-.68v-3.41h.68l1,2.24v-2.24h.69Z"/><path class="cls-4" d="M140.36,162h-.84v2.82h-.69V162H138v-.58h2.35Z"/></g><g id="Layer_15" data-name="Layer 15"><rect class="cls-10" x="307.17" y="148.91" width="27.29" height="27.29" rx="3.16"/><circle class="cls-11" cx="310.13" cy="151.87" r="1.04"/><circle class="cls-11" cx="310.13" cy="173.34" r="1.04"/><circle class="cls-11" cx="331.54" cy="173.34" r="1.04"/><circle class="cls-11" cx="331.54" cy="151.74" r="1.04"/><rect class="cls-12" x="313.38" y="153.63" width="5.12" height="6.83" rx="0.43"/><path class="cls-2" d="M317.52,156.8l0-.07a.75.75,0,0,0-.44-.75c.07,0,.15,0,.17-.13a.19.19,0,0,0,.16-.15s.13-.08.12-.18a.15.15,0,0,0,.08-.17c.06-.08.08-.13.05-.19a.13.13,0,0,0,0-.2h0c.06-.1,0-.22-.15-.2a.26.26,0,0,0-.23-.07s-.05-.06-.15-.05a.18.18,0,0,0-.21,0c-.09-.06-.15,0-.22,0a.2.2,0,0,0-.18,0c-.11,0-.15,0-.21.09h-.05a.31.31,0,1,1-.58,0h-.07a.18.18,0,0,0-.2-.09.2.2,0,0,0-.18,0l-.13,0a.11.11,0,0,0-.08,0,.2.2,0,0,0-.22,0c-.1,0-.13,0-.15.05a.27.27,0,0,0-.23.07c-.16,0-.21.1-.15.2a.14.14,0,0,0,0,.2h0c0,.06,0,.11.05.19a.18.18,0,0,0,.08.17c0,.1.09.16.13.18s0,.12.16.15.09.11.16.13a.74.74,0,0,0-.43.75l0,.07a.73.73,0,0,0-.19,1l.06.08a1.35,1.35,0,0,0,.11.34.8.8,0,0,0,.5.65,1.83,1.83,0,0,0,.49.28.8.8,0,0,0,.6.27h0a.8.8,0,0,0,.6-.27,1.83,1.83,0,0,0,.49-.28.83.83,0,0,0,.51-.65,3.38,3.38,0,0,0,.11-.34.74.74,0,0,0-.06-1A.21.21,0,0,0,317.52,156.8Zm-.24-.08c0,.18-.93-.62-.77-.64a.61.61,0,0,1,.77.64Zm-1-1.85a.11.11,0,0,0,0,.07,1.14,1.14,0,0,1,.15-.16s0,.06,0,.09a.37.37,0,0,1,.15-.13s0,.07,0,.09a.57.57,0,0,1,.18-.12s-.06.06,0,.1a.43.43,0,0,1,.21-.09s-.08.06,0,.09l.2-.05s-.06.06,0,.08a.39.39,0,0,1,.24,0l-.05.06h.22a.61.61,0,0,0-.09.18h.1c0,.09-.12.12-.14.15a.11.11,0,0,0,.11,0,.61.61,0,0,1-.15.17.11.11,0,0,0,.09,0,.86.86,0,0,1-.18.14l.1,0a1,1,0,0,1-.22.13.12.12,0,0,0,.1,0,.65.65,0,0,1-.23.09.06.06,0,0,0,.06,0c-.08,0-.21,0-.25.06l.06.05c-.14,0-.53,0-.61-.3a3.12,3.12,0,0,1,.88-.6,2.82,2.82,0,0,0-.95.51C315.9,155.4,316.12,155,316.28,154.87Zm-.34,1.08c.23,0,.51.17.51.33s-.19.26-.5.26-.5-.14-.5-.28S315.69,156,315.94,156Zm-1.14-.12a.08.08,0,0,0,.07,0,.65.65,0,0,1-.23-.09.1.1,0,0,0,.09,0,.74.74,0,0,1-.21-.13s.08,0,.09,0l-.17-.14a.12.12,0,0,0,.09,0,.61.61,0,0,1-.15-.17.09.09,0,0,0,.1,0s-.09-.06-.13-.15h.09a.38.38,0,0,0-.09-.18h.22l-.05-.06a.39.39,0,0,1,.24,0s0-.05,0-.08l.2.05s0-.06,0-.09a.43.43,0,0,1,.21.09s0-.07,0-.1a.57.57,0,0,1,.18.12s0,0,0-.09a.29.29,0,0,1,.14.13s0-.06,0-.09l.16.16a.11.11,0,0,0,0-.07c.15.15.37.53.05.68a2.82,2.82,0,0,0-.95-.51,3.12,3.12,0,0,1,.88.6c-.08.3-.47.31-.61.3a.15.15,0,0,0,.06-.05S314.89,155.88,314.8,155.83Zm.54.23c.15,0-.75.82-.77.64a.6.6,0,0,1,.76-.64Zm-1,1.77a.6.6,0,0,1,.11-.93C314.75,156.83,314.58,157.92,314.38,157.83Zm.86.94a.54.54,0,0,1-.64-.27c-.15-.26-.13-.52,0-.6s.39,0,.57.24S315.37,158.67,315.24,158.77Zm-.25-1.14a.54.54,0,0,1-.09-.76.55.55,0,0,1,.74-.21.54.54,0,0,1,.09.76A.55.55,0,0,1,315,157.63Zm1,1.67c-.28,0-.55-.23-.54-.31s.33-.21.55-.21.52.07.52.18S316.21,159.3,316,159.3Zm0-.68a.51.51,0,0,1,.08-1,.5.5,0,0,1,.47.51A.53.53,0,0,1,316,158.62Zm.2-1.23a.5.5,0,1,1,.74.21A.55.55,0,0,1,316.16,157.39Zm1.12,1.12c-.23.33-.55.34-.67.25s0-.48.14-.68.4-.37.55-.25A.62.62,0,0,1,317.28,158.51Zm.19-.69c-.2.09-.37-1-.12-.94a.6.6,0,0,1,.22.81.64.64,0,0,1-.1.13Z"/><circle class="cls-2" cx="313.61" cy="151.27" r="0.23"/><circle class="cls-2" cx="313.61" cy="152.46" r="0.23"/><circle class="cls-2" cx="314.86" cy="151.27" r="0.23"/><circle class="cls-2" cx="314.86" cy="152.46" r="0.23"/><circle class="cls-2" cx="316.29" cy="151.27" r="0.23"/><circle class="cls-2" cx="316.29" cy="152.46" r="0.23"/><circle class="cls-2" cx="317.54" cy="151.27" r="0.23"/><circle class="cls-2" cx="317.54" cy="152.46" r="0.23"/><circle class="cls-2" cx="319" cy="151.27" r="0.23"/><circle class="cls-2" cx="319" cy="152.46" r="0.23"/><circle class="cls-2" cx="320.25" cy="151.27" r="0.23"/><circle class="cls-2" cx="320.25" cy="152.46" r="0.23"/><circle class="cls-2" cx="321.68" cy="151.27" r="0.23"/><circle class="cls-2" cx="321.68" cy="152.46" r="0.23"/><circle class="cls-2" cx="322.93" cy="151.27" r="0.23"/><circle class="cls-2" cx="322.93" cy="152.46" r="0.23"/><circle class="cls-2" cx="324.24" cy="151.27" r="0.23"/><circle class="cls-2" cx="324.24" cy="152.46" r="0.23"/><circle class="cls-2" cx="325.5" cy="151.27" r="0.23"/><circle class="cls-2" cx="325.5" cy="152.46" r="0.23"/><circle class="cls-2" cx="326.92" cy="151.27" r="0.23"/><circle class="cls-2" cx="326.92" cy="152.46" r="0.23"/><circle class="cls-2" cx="328.18" cy="151.27" r="0.23"/><circle class="cls-2" cx="328.18" cy="152.46" r="0.23"/><g id="circuits"><circle class="cls-13" cx="310.27" cy="163.69" r="0.32"/><circle class="cls-13" cx="310.27" cy="164.87" r="0.32"/><circle class="cls-13" cx="310.27" cy="166.05" r="0.32"/><circle class="cls-13" cx="310.27" cy="167.23" r="0.32"/><circle class="cls-13" cx="310.27" cy="168.42" r="0.32"/><line class="cls-14" x1="310.6" y1="163.69" x2="311.66" y2="163.69"/><line class="cls-14" x1="310.6" y1="164.87" x2="311.66" y2="164.87"/><line class="cls-14" x1="310.6" y1="166.05" x2="311.66" y2="166.05"/><line class="cls-14" x1="310.6" y1="167.23" x2="311.66" y2="167.23"/><line class="cls-14" x1="310.6" y1="168.42" x2="311.66" y2="168.42"/><line class="cls-14" x1="311.66" y1="163.69" x2="314.66" y2="165.19"/><line class="cls-14" x1="311.66" y1="164.87" x2="314.34" y2="166.21"/><line class="cls-14" x1="311.66" y1="166.05" x2="314.02" y2="167.23"/><line class="cls-14" x1="311.66" y1="167.23" x2="313.7" y2="168.25"/><line class="cls-14" x1="311.66" y1="168.42" x2="313.38" y2="169.27"/><line class="cls-14" x1="313.38" y1="169.27" x2="313.38" y2="171.74"/><line class="cls-14" x1="313.7" y1="168.25" x2="313.7" y2="171.42"/><line class="cls-14" x1="314.02" y1="167.23" x2="314.02" y2="171.1"/><line class="cls-14" x1="314.34" y1="166.21" x2="314.34" y2="170.78"/><line class="cls-14" x1="314.66" y1="165.19" x2="314.66" y2="170.46"/><line class="cls-14" x1="314.66" y1="170.46" x2="319.84" y2="170.46"/><line class="cls-14" x1="314.34" y1="170.78" x2="319.31" y2="170.78"/><line class="cls-14" x1="314.02" y1="171.1" x2="318.77" y2="171.1"/><line class="cls-14" x1="313.7" y1="171.42" x2="318.24" y2="171.42"/><line class="cls-14" x1="313.38" y1="171.74" x2="317.7" y2="171.74"/><line class="cls-14" x1="318.77" y1="171.1" x2="318.77" y2="172.94"/><line class="cls-14" x1="319.31" y1="170.78" x2="319.31" y2="172.94"/><line class="cls-14" x1="319.84" y1="170.46" x2="319.84" y2="172.94"/><line class="cls-14" x1="318.24" y1="171.42" x2="318.24" y2="172.94"/><line class="cls-14" x1="317.7" y1="171.74" x2="317.7" y2="172.94"/></g><rect class="cls-15" x="316.81" y="173.04" width="3.93" height="4.11" rx="0.49"/><path class="cls-2" d="M320.25,173.15a.38.38,0,0,1,.38.38v3.13a.38.38,0,0,1-.38.38H317.3a.38.38,0,0,1-.39-.38v-3.13a.38.38,0,0,1,.39-.38h2.95m0-.21H317.3a.59.59,0,0,0-.6.59v3.13a.6.6,0,0,0,.6.6h2.95a.6.6,0,0,0,.6-.6h0v-3.13a.59.59,0,0,0-.6-.59Z"/><path class="cls-15" d="M323.7,172.21h.88a.51.51,0,0,1,.51.52v4a.51.51,0,0,1-.51.52h-.88a.51.51,0,0,1-.51-.52v-4a.51.51,0,0,1,.51-.52Z"/><path class="cls-2" d="M324.58,172.3a.42.42,0,0,1,.43.42v4a.43.43,0,0,1-.43.43h-.88a.43.43,0,0,1-.43-.43v-4a.44.44,0,0,1,.43-.43h.88m0-.16h-.88a.59.59,0,0,0-.6.59h0v4a.6.6,0,0,0,.6.6h.88a.6.6,0,0,0,.6-.6v-4a.6.6,0,0,0-.6-.6Z"/><path class="cls-2" d="M323.16,174.72v-1.94a.59.59,0,0,1,.59-.59h.78a.59.59,0,0,1,.59.59v1.94Z"/><path class="cls-2" d="M324.53,172.25a.53.53,0,0,1,.53.53h0v1.88h-1.84v-1.88a.53.53,0,0,1,.53-.53h.78m0-.12h-.78a.64.64,0,0,0-.64.65v2h2.07v-2a.65.65,0,0,0-.64-.65h0Z"/><rect class="cls-2" x="317.93" y="174.35" width="0.32" height="1.49" rx="0.16"/><rect class="cls-2" x="319.21" y="174.35" width="0.32" height="1.49" rx="0.16"/><g id="circuits2"><line class="cls-14" x1="323.69" y1="163.83" x2="324.59" y2="163.83"/><line class="cls-14" x1="323.69" y1="163.19" x2="324.59" y2="163.19"/><line class="cls-14" x1="323.69" y1="162.55" x2="324.59" y2="162.55"/><line class="cls-14" x1="329.05" y1="163.71" x2="329.96" y2="163.71"/><line class="cls-14" x1="329.05" y1="163.28" x2="329.96" y2="163.28"/><line class="cls-14" x1="329.05" y1="162.86" x2="329.96" y2="162.86"/><line class="cls-14" x1="329.05" y1="157.77" x2="329.96" y2="157.77"/><line class="cls-14" x1="329.05" y1="157.13" x2="329.96" y2="157.13"/><line class="cls-14" x1="329.05" y1="156.49" x2="329.96" y2="156.49"/><line class="cls-14" x1="323.69" y1="164.36" x2="324.59" y2="164.36"/><line class="cls-14" x1="323.69" y1="164.79" x2="324.59" y2="164.79"/><line class="cls-14" x1="323.69" y1="165.22" x2="324.59" y2="165.22"/><line class="cls-14" x1="324.59" y1="162.55" x2="329.05" y2="156.49"/><line class="cls-14" x1="324.59" y1="163.19" x2="329.05" y2="157.13"/><line class="cls-14" x1="324.59" y1="163.83" x2="329.05" y2="157.77"/><line class="cls-14" x1="324.59" y1="164.36" x2="329.05" y2="162.86"/><line class="cls-14" x1="324.59" y1="164.79" x2="329.05" y2="163.28"/><line class="cls-14" x1="324.59" y1="165.22" x2="329.05" y2="163.71"/></g><rect class="cls-16" x="330.09" y="154.49" width="5.29" height="5.06" rx="0.46"/><path class="cls-2" d="M330.55,154.35v.27h4.38a.33.33,0,0,1,.32.32v4.15a.32.32,0,0,1-.32.32h-4.38a.32.32,0,0,1-.32-.32V155a.32.32,0,0,1,.32-.32v-.28m0,0a.59.59,0,0,0-.59.6h0v4.14a.59.59,0,0,0,.59.6h4.38a.59.59,0,0,0,.59-.6V155a.59.59,0,0,0-.59-.6h-4.38Z"/><rect class="cls-2" x="331.82" y="157.69" width="1.92" height="0.41" rx="0.16"/><rect class="cls-2" x="331.82" y="156.03" width="1.92" height="0.41" rx="0.16"/><rect class="cls-16" x="330.13" y="160.72" width="5.29" height="5.06" rx="0.46"/><path class="cls-2" d="M330.59,160.59v.27H335a.32.32,0,0,1,.32.32v4.15a.33.33,0,0,1-.32.32h-4.38a.32.32,0,0,1-.32-.32v-4.15a.32.32,0,0,1,.32-.32v-.27m0,0a.59.59,0,0,0-.6.59h0v4.15a.59.59,0,0,0,.6.59H335a.58.58,0,0,0,.59-.59v-4.15a.58.58,0,0,0-.59-.59h-4.38Z"/><rect class="cls-2" x="331.86" y="163.93" width="1.92" height="0.41" rx="0.16"/><rect class="cls-2" x="331.86" y="162.27" width="1.92" height="0.41" rx="0.16"/><path class="cls-2" d="M324.14,175.22h0a.16.16,0,0,1,.16.16v1.17a.16.16,0,0,1-.16.16h0a.16.16,0,0,1-.16-.16v-1.17A.16.16,0,0,1,324.14,175.22Z"/><g class="cls-17"><text class="cls-18" transform="translate(321.62 164.56)"><tspan xml:space="preserve">  </tspan></text></g><rect class="cls-19" x="318.88" y="161.34" width="4.7" height="4.7" rx="0.58"/><path class="cls-2" d="M323,161.45a.47.47,0,0,1,.47.47v3.54a.47.47,0,0,1-.47.47h-3.54a.47.47,0,0,1-.47-.47h0v-3.54a.47.47,0,0,1,.47-.47H323m0-.22h-3.54a.69.69,0,0,0-.69.69h0v3.54a.69.69,0,0,0,.69.69H323a.69.69,0,0,0,.69-.69h0v-3.54a.69.69,0,0,0-.69-.69Z"/><path class="cls-2" d="M320.83,163.88a.33.33,0,0,1-.09.23.27.27,0,0,1-.23.08.26.26,0,0,1-.23-.1.44.44,0,0,1-.08-.29v-.16a.44.44,0,0,1,.08-.29.34.34,0,0,1,.46,0,.38.38,0,0,1,.09.24h-.18a.31.31,0,0,0,0-.13.14.14,0,0,0-.1,0,.11.11,0,0,0-.11.06.47.47,0,0,0,0,.17v.17a.28.28,0,0,0,0,.18.11.11,0,0,0,.11.06.14.14,0,0,0,.1,0,.28.28,0,0,0,0-.13Z"/><path class="cls-2" d="M321.13,163.86v.32h-.19v-.91h.32a.32.32,0,0,1,.21.08.35.35,0,0,1,.08.22.26.26,0,0,1-.08.21.35.35,0,0,1-.22.08Zm0-.15h.13a.12.12,0,0,0,.08,0,.17.17,0,0,0,0-.1.23.23,0,0,0,0-.11.12.12,0,0,0-.08,0h-.13Z"/><path class="cls-2" d="M322.26,163.27v.63a.27.27,0,0,1-.07.21.37.37,0,0,1-.45,0,.35.35,0,0,1-.08-.22v-.62h.19v.62a.36.36,0,0,0,0,.11.17.17,0,0,0,.19,0,.36.36,0,0,0,0-.11v-.63Z"/></g><g id="_3d_printer_lasercutter_foodprinter_waterjet" data-name=" 3d printer lasercutter foodprinter waterjet"><rect class="cls-5" x="374.39" y="223.61" width="23.7" height="2.08"/><rect class="cls-5" x="374.17" y="209.74" width="23.8" height="0.97"/><path class="cls-6" d="M398.21,202.66H373.92a2.16,2.16,0,0,0-2.16,2.15h0v24.68a2.16,2.16,0,0,0,2.16,2.16h24.29a2.16,2.16,0,0,0,2.16-2.16V204.81A2.16,2.16,0,0,0,398.21,202.66Zm-.85,21.19a1.47,1.47,0,0,1-1.47,1.47H376.23a1.47,1.47,0,0,1-1.47-1.47V206.76a1.47,1.47,0,0,1,1.47-1.47h19.66a1.47,1.47,0,0,1,1.47,1.47Z"/><path class="cls-20" d="M384,214.07h0a.38.38,0,0,1,.37.37v8.8a.38.38,0,0,1-.37.37h0a.37.37,0,0,1-.37-.37v-8.8A.37.37,0,0,1,384,214.07Z"/><rect class="cls-21" x="383.93" y="214.08" width="0.22" height="9.53" rx="0.11"/><path class="cls-9" d="M384.29,214.78h-.53a.23.23,0,0,1-.21-.15l-1.14-3.39h3.22l-1.14,3.39A.21.21,0,0,1,384.29,214.78Z"/><rect class="cls-6" x="381.76" y="207.96" width="4.53" height="4.53" rx="0.87"/><path class="cls-4" d="M380.53,229.5h1.21v.57h-1.9v-3.42h.69Z"/><path class="cls-4" d="M383.82,229.37h-.94l-.18.7H382l1.07-3.42h.63l1.08,3.42H384Zm-.8-.57h.64l-.32-1.22Z"/><path class="cls-4" d="M386.5,229.17a.46.46,0,0,0-.1-.32,1.5,1.5,0,0,0-.39-.22,1.78,1.78,0,0,1-.74-.46.93.93,0,0,1-.23-.61.88.88,0,0,1,.31-.7,1.15,1.15,0,0,1,.78-.26,1.22,1.22,0,0,1,.56.14.9.9,0,0,1,.38.37,1.06,1.06,0,0,1,.13.55h-.68a.56.56,0,0,0-.1-.36.36.36,0,0,0-.3-.13.34.34,0,0,0-.28.11.38.38,0,0,0-.1.29.36.36,0,0,0,.11.25,1.63,1.63,0,0,0,.4.24,1.62,1.62,0,0,1,.73.44,1,1,0,0,1,.22.67.89.89,0,0,1-.28.7,1.19,1.19,0,0,1-.77.25,1.43,1.43,0,0,1-.61-.14,1.05,1.05,0,0,1-.42-.39,1.15,1.15,0,0,1-.16-.6h.69a.66.66,0,0,0,.12.43.47.47,0,0,0,.37.14Q386.5,229.56,386.5,229.17Z"/><path class="cls-4" d="M389.42,228.59h-1.08v.91h1.28v.57h-2v-3.42h2v.58h-1.27v.8h1.07Z"/><path class="cls-4" d="M391.05,228.82h-.34v1.25H390v-3.42h1.1a1.12,1.12,0,0,1,.8.27,1.18,1.18,0,0,1-.21,1.72l.6,1.4v0h-.75Zm-.34-.57h.39a.41.41,0,0,0,.31-.14.61.61,0,0,0,.1-.37c0-.34-.13-.51-.4-.51h-.4Z"/></g><g id="Layer_17" data-name="Layer 17"><path class="cls-7" d="M423.5,301.44l-2.94,2.95a.62.62,0,0,1-.86,0h0l-3-3a.59.59,0,0,1,0-.85l2.92-2.92a5.12,5.12,0,0,0-5.26,1.14,5.06,5.06,0,0,0-1.28,4.74,73.13,73.13,0,0,1-4.91,6.56c-1.8,1.81-8,6.39-8,6.39a3.27,3.27,0,1,0,4.11,5.1,3.82,3.82,0,0,0,.45-.45h0s4.84-6,6.66-7.85c1.44-1.44,6.36-5.17,6.36-5.17a5,5,0,0,0,4.67-1.29A5.12,5.12,0,0,0,423.5,301.44Z"/><path class="cls-22" d="M405.34,302.42l16.2,16.2a1.06,1.06,0,0,1,0,1.48l-.93.92a1,1,0,0,1-1.48,0l-16.19-16.19h0l2.4-2.41Z"/><polygon class="cls-7" points="407.01 301.8 404.75 299.53 405.35 294.41 402.49 297.27 402.49 297.27 397.89 301.87 398.96 302.94 396.49 303.33 395.13 304.69 399.66 309.22 401.02 307.86 401.29 305.26 402.42 306.39 407.01 301.8"/></g><g id="_3d_printer_lasercutter_foodprinter_waterjet-2" data-name=" 3d printer lasercutter foodprinter waterjet"><rect class="cls-5" x="309.96" y="375.55" width="23.68" height="2.08"/><rect class="cls-5" x="309.74" y="361.69" width="23.79" height="0.97"/><path class="cls-6" d="M333.76,354.62H309.48a2.15,2.15,0,0,0-2.15,2.15h0v24.66a2.15,2.15,0,0,0,2.15,2.16h24.28a2.15,2.15,0,0,0,2.15-2.16V356.77A2.15,2.15,0,0,0,333.76,354.62Zm-.84,21.18a1.47,1.47,0,0,1-1.47,1.46H311.8a1.46,1.46,0,0,1-1.47-1.46V358.71a1.48,1.48,0,0,1,1.47-1.47h19.65a1.47,1.47,0,0,1,1.47,1.47Z"/><path class="cls-7" d="M319.6,366h0a.37.37,0,0,1,.37.37v8.79a.36.36,0,0,1-.37.37h0a.37.37,0,0,1-.37-.37v-8.79A.38.38,0,0,1,319.6,366Z"/><rect class="cls-8" x="319.49" y="366.03" width="0.22" height="9.52" rx="0.11"/><path class="cls-9" d="M319.85,366.73h-.53a.2.2,0,0,1-.2-.15L318,363.2h3.22l-1.13,3.38A.23.23,0,0,1,319.85,366.73Z"/><rect class="cls-6" x="317.32" y="359.92" width="4.52" height="4.52" rx="0.87"/><path class="cls-4" d="M313.59,380.76l.32-2.14h.69L314,382h-.69l-.4-2-.39,2h-.69l-.61-3.41h.69l.32,2.14.4-2.14h.58Z"/><path class="cls-4" d="M316.49,381.33h-.94l-.18.7h-.73l1.06-3.41h.63l1.08,3.41h-.73Zm-.79-.57h.64l-.32-1.22Z"/><path class="cls-4" d="M319.66,379.19h-.84V382h-.69v-2.84h-.82v-.58h2.35Z"/><path class="cls-4" d="M321.82,380.56h-1.07v.91H322V382h-2v-3.42h2v.57h-1.27v.8h1.07Z"/><path class="cls-4" d="M323.45,380.79h-.33V382h-.69v-3.41h1.1a1.12,1.12,0,0,1,.8.27,1.17,1.17,0,0,1-.21,1.71l.59,1.4v0H324Zm-.34-.58h.39a.34.34,0,0,0,.31-.14.56.56,0,0,0,.1-.36c0-.35-.13-.52-.4-.52h-.39Z"/><path class="cls-4" d="M326.2,378.62h.69V381a1.12,1.12,0,0,1-.28.8.91.91,0,0,1-.71.3.94.94,0,0,1-.73-.27,1.12,1.12,0,0,1-.26-.78h.69q0,.48.3.48c.2,0,.3-.18.3-.56Z"/><path class="cls-4" d="M329.2,380.56h-1.08v.91h1.27V382h-2v-3.42h2v.57h-1.27v.8h1.08Z"/><path class="cls-4" d="M332.05,379.19h-.84V382h-.69v-2.84h-.83v-.58h2.37Z"/><path class="cls-7" d="M320.22,375.05a.12.12,0,0,1,.18,0h0a.12.12,0,0,1,0,.18h0a.2.2,0,1,1-.2-.16Z"/><ellipse class="cls-8" cx="320.3" cy="375.03" rx="0.04" ry="0.01" transform="translate(-61.24 62.51) rotate(-10.18)"/><path class="cls-7" d="M321,374.72a.12.12,0,0,1,.15-.09h0a.13.13,0,0,1,.09.15h0a2,2,0,0,1-.21.3A1.5,1.5,0,0,1,321,374.72Z"/><ellipse class="cls-8" cx="321.07" cy="374.67" rx="0.04" ry="0.01" transform="translate(-156.12 249.16) rotate(-34.67)"/><path class="cls-7" d="M320.4,373a.12.12,0,0,1,.17-.06.13.13,0,0,1,.08.16h0a1.33,1.33,0,0,1-.26.27C320.38,373.2,320.39,373.08,320.4,373Z"/><ellipse class="cls-8" cx="320.48" cy="372.92" rx="0.04" ry="0.01" transform="translate(-125.86 166.63) rotate(-24.52)"/><path class="cls-7" d="M320.53,374.28a.13.13,0,0,1,.17,0,.13.13,0,0,1,0,.18h0a1.35,1.35,0,0,1-.36.08A2.17,2.17,0,0,1,320.53,374.28Z"/><ellipse class="cls-8" cx="320.61" cy="374.29" rx="0.01" ry="0.04" transform="translate(-96.13 637.37) rotate(-81.68)"/><path class="cls-7" d="M318.87,375.16a.13.13,0,1,0-.22.12,1.55,1.55,0,0,0,.27.24A1.49,1.49,0,0,0,318.87,375.16Z"/><ellipse class="cls-8" cx="318.8" cy="375.12" rx="0.01" ry="0.04" transform="translate(-142.65 546.63) rotate(-70.03)"/><path class="cls-7" d="M318.31,374.6a.13.13,0,0,0-.18,0,.14.14,0,0,0,0,.18,2.2,2.2,0,0,0,.37.07A2.09,2.09,0,0,0,318.31,374.6Z"/><ellipse class="cls-8" cx="318.22" cy="374.6" rx="0.04" ry="0.01" transform="translate(-53.39 52.9) rotate(-8.77)"/><path class="cls-7" d="M318.78,374.11a.13.13,0,0,0-.18,0,.13.13,0,0,0,0,.19,1.57,1.57,0,0,0,.31.18A2.06,2.06,0,0,0,318.78,374.11Z"/><ellipse class="cls-8" cx="318.7" cy="374.09" rx="0.01" ry="0.04" transform="translate(-105.83 621.65) rotate(-79.82)"/><path class="cls-7" d="M318.86,373.36a.13.13,0,0,0-.16-.09.13.13,0,0,0-.09.16h0a1.7,1.7,0,0,0,.23.3A2.3,2.3,0,0,0,318.86,373.36Z"/><ellipse class="cls-8" cx="318.79" cy="373.31" rx="0.01" ry="0.04" transform="translate(-167.23 442.36) rotate(-57.59)"/></g><g id="_3d_printer_lasercutter_foodprinter_waterjet-3" data-name=" 3d printer lasercutter foodprinter waterjet"><rect class="cls-5" x="201.46" y="347.92" width="23.74" height="2.08"/><rect class="cls-5" x="201.24" y="334.99" width="23.84" height="0.97"/><path class="cls-6" d="M225.31,326.94H201a2.16,2.16,0,0,0-2.16,2.16h0v24.72A2.16,2.16,0,0,0,201,356h24.33a2.16,2.16,0,0,0,2.16-2.16V329.1A2.16,2.16,0,0,0,225.31,326.94Zm-.84,21.23a1.47,1.47,0,0,1-1.48,1.47H203.3a1.47,1.47,0,0,1-1.47-1.48V331a1.47,1.47,0,0,1,1.47-1.47H223a1.47,1.47,0,0,1,1.48,1.47Z"/><path class="cls-9" d="M211.37,340h-.53a.23.23,0,0,1-.21-.15l-1.14-3.39h3.23l-1.14,3.39A.23.23,0,0,1,211.37,340Z"/><rect class="cls-6" x="208.84" y="333.21" width="4.53" height="4.53" rx="0.87"/><path class="cls-4" d="M203,353.14h-1.07v1.4h-.69v-3.42h1.9v.57h-1.21v.88H203Z"/><path class="cls-4" d="M205.89,353.14a1.61,1.61,0,0,1-.33,1.07,1.15,1.15,0,0,1-.9.38,1.12,1.12,0,0,1-.91-.38,1.54,1.54,0,0,1-.33-1v-.59a1.72,1.72,0,0,1,.32-1.1,1.23,1.23,0,0,1,1.81,0,1.71,1.71,0,0,1,.34,1.09Zm-.69-.58a1.5,1.5,0,0,0-.14-.69.5.5,0,0,0-.67-.15.54.54,0,0,0-.15.15,1.35,1.35,0,0,0-.13.66v.61a1.26,1.26,0,0,0,.13.66.46.46,0,0,0,.42.21.44.44,0,0,0,.4-.21,1.3,1.3,0,0,0,.14-.64Z"/><path class="cls-4" d="M208.79,353.14a1.66,1.66,0,0,1-.32,1.07,1.15,1.15,0,0,1-.91.38,1.18,1.18,0,0,1-.9-.38,1.56,1.56,0,0,1-.33-1.06v-.58a1.71,1.71,0,0,1,.33-1.11,1.11,1.11,0,0,1,.9-.39,1.1,1.1,0,0,1,.9.39,1.69,1.69,0,0,1,.34,1.09Zm-.69-.58a1.37,1.37,0,0,0-.13-.69.51.51,0,0,0-.68-.15.67.67,0,0,0-.14.15,1.35,1.35,0,0,0-.14.66v.61a1.38,1.38,0,0,0,.14.66.46.46,0,0,0,.41.21.45.45,0,0,0,.41-.21,1.19,1.19,0,0,0,.13-.64Z"/><path class="cls-4" d="M209.29,354.54v-3.42h.9a1.22,1.22,0,0,1,1,.38,1.46,1.46,0,0,1,.36,1v.55a1.5,1.5,0,0,1-.36,1.06,1.27,1.27,0,0,1-1,.38Zm.69-2.85V354h.2a.57.57,0,0,0,.49-.18,1.16,1.16,0,0,0,.15-.63v-.59a1.21,1.21,0,0,0-.14-.67.54.54,0,0,0-.46-.2Z"/><path class="cls-4" d="M213.82,353.33v1.21h-.69v-3.42h1.17a1.08,1.08,0,0,1,.81.31,1.18,1.18,0,0,1,.3.83,1.06,1.06,0,0,1-.3.79,1.14,1.14,0,0,1-.83.29Zm0-.57h.47a.4.4,0,0,0,.31-.13.57.57,0,0,0,.11-.38.68.68,0,0,0-.12-.41.31.31,0,0,0-.29-.15h-.48Z"/><path class="cls-4" d="M216.89,353.29h-.34v1.25h-.69v-3.42H217a1.12,1.12,0,0,1,.81.27,1.17,1.17,0,0,1-.22,1.72l.6,1.4v0h-.74Zm-.34-.58h.39a.34.34,0,0,0,.31-.14.52.52,0,0,0,.11-.36c0-.35-.14-.52-.4-.52h-.41Z"/><path class="cls-4" d="M219.25,354.54h-.69v-3.42h.69Z"/><path class="cls-4" d="M222.22,354.54h-.69l-1-2.25v2.25h-.69v-3.42h.69l1,2.24v-2.24h.68Z"/><path class="cls-4" d="M225,351.69h-.84v2.85h-.69v-2.85h-.84v-.57H225Z"/><g id="carrot"><circle class="cls-23" cx="219.74" cy="343.22" r="0.59"/><circle class="cls-23" cx="220.4" cy="342.36" r="0.59"/><circle class="cls-23" cx="219.18" cy="341.89" r="1.05"/><circle class="cls-23" cx="220.26" cy="341.35" r="0.59"/><circle class="cls-23" cx="219.53" cy="340.58" r="0.59"/><circle class="cls-23" cx="217.78" cy="341.47" r="0.59"/><circle class="cls-23" cx="218.49" cy="340.87" r="0.59"/><circle class="cls-23" cx="218.06" cy="342.3" r="0.59"/><circle class="cls-23" cx="218.8" cy="343.04" r="0.59"/><path class="cls-23" d="M218,342.21l.72.76c-.32.21-.63.43-.93.67s-.49.58-.72.89l-.72-.77a10.22,10.22,0,0,0,.87-.59Q217.67,342.71,218,342.21Z"/><path class="cls-24" d="M216.73,346.2a23.55,23.55,0,0,1-5.14,1.63.36.36,0,0,1-.41-.26.37.37,0,0,1,.07-.29,33.91,33.91,0,0,1,3.42-3.74,1.83,1.83,0,0,1,2.52-.06C218.2,344.54,217.24,345.87,216.73,346.2Z"/><path class="cls-25" d="M213.26,347.33a.07.07,0,0,1-.09,0h0c0-.06-.08-.2-.11-.26l-.18-.23a.07.07,0,0,1,0-.09h0a.08.08,0,0,1,.09,0,1.92,1.92,0,0,1,.18.22c0,.09.08.18.11.27A.05.05,0,0,1,213.26,347.33Z"/><path class="cls-25" d="M214.12,347a.07.07,0,0,1-.09,0h0c0-.06-.05-.21-.08-.28s-.12-.18-.15-.24a.06.06,0,0,1,0-.08h0a.07.07,0,0,1,.08,0,1.58,1.58,0,0,1,.15.24,1.31,1.31,0,0,1,.09.28A.06.06,0,0,1,214.12,347Z"/><path class="cls-25" d="M215.33,346.65a.06.06,0,0,1-.08,0h0c0-.07-.06-.21-.09-.28s-.12-.18-.15-.24,0-.08,0-.09h0a.08.08,0,0,1,.09,0l.15.25a2.76,2.76,0,0,1,.08.27.08.08,0,0,1,0,.09Z"/><path class="cls-25" d="M216,346a.08.08,0,0,1-.09,0c0-.07-.05-.21-.08-.28s-.12-.18-.15-.24a.07.07,0,0,1,0-.09h0a.06.06,0,0,1,.08,0,1,1,0,0,1,.15.24,1.43,1.43,0,0,1,.09.27A.09.09,0,0,1,216,346Z"/><path class="cls-25" d="M213.34,346.14a.06.06,0,0,1-.09,0c-.05,0-.13-.17-.18-.22s-.18-.12-.23-.17a.06.06,0,0,1,0-.09h0a.07.07,0,0,1,.09,0l.23.17.18.22A.07.07,0,0,1,213.34,346.14Z"/><path class="cls-25" d="M214.17,345.34a.07.07,0,0,1-.09,0c-.05,0-.13-.18-.18-.23s-.18-.12-.23-.17a.06.06,0,0,1,0-.09h0a.07.07,0,0,1,.09,0l.23.17.18.22a.09.09,0,0,1,0,.1Z"/><path class="cls-25" d="M215.11,344.4a.07.07,0,0,1-.09,0c-.05,0-.13-.18-.18-.23s-.18-.12-.23-.17a.07.07,0,0,1,0-.09h0a.07.07,0,0,1,.09,0l.23.17a1.3,1.3,0,0,1,.18.23A.06.06,0,0,1,215.11,344.4Z"/><path class="cls-25" d="M215.05,345.33a.07.07,0,0,1-.09,0c-.05-.05-.13-.18-.18-.23l-.24-.17a.07.07,0,0,1,0-.09h0a.09.09,0,0,1,.1,0l.23.17.18.22a.07.07,0,0,1,0,.09Z"/><ellipse class="cls-26" cx="216.05" cy="343.3" rx="0.11" ry="0.33" transform="translate(-132.46 550.84) rotate(-88.59)"/></g></g></g></g></svg>