<svg xmlns="http://www.w3.org/2000/svg" width="128.568" height="100" viewBox="0 0 128.568 100"><g transform="translate(31.416 -156.573)"><g transform="translate(-31.416 156.573)"><path d="M37.921,106.649v-6.622a3.929,3.929,0,0,0-4.15-4.194,4.083,4.083,0,0,0-3.708,1.876,3.874,3.874,0,0,0-3.487-1.876,3.488,3.488,0,0,0-3.09,1.567V96.1h-2.3v10.551h2.318v-5.805a2.472,2.472,0,0,1,2.583-2.8c1.523,0,2.3.993,2.3,2.781v5.871H30.7v-5.849a2.483,2.483,0,0,1,2.583-2.8c1.567,0,2.318.993,2.318,2.781v5.871ZM72.211,96.1H68.437V92.9H66.119v3.2h-2.1v2.1h2.141v4.856c0,2.45.949,3.907,3.664,3.907a5.386,5.386,0,0,0,2.869-.817l-.662-1.964a4.238,4.238,0,0,1-2.031.6c-1.1,0-1.523-.706-1.523-1.766V98.195h3.752Zm19.579-.265a3.112,3.112,0,0,0-2.781,1.545V96.1H86.735v10.551h2.3v-5.915c0-1.744.75-2.715,2.207-2.715a3.741,3.741,0,0,1,1.435.265l.706-2.207a4.911,4.911,0,0,0-1.633-.287Zm-29.6,1.1a7.891,7.891,0,0,0-4.3-1.1c-2.671,0-4.415,1.28-4.415,3.377,0,1.722,1.28,2.781,3.642,3.112l1.1.155c1.258.177,1.854.508,1.854,1.1,0,.817-.839,1.28-2.406,1.28a5.618,5.618,0,0,1-3.51-1.1l-1.1,1.788a7.615,7.615,0,0,0,4.569,1.369c3.046,0,4.812-1.435,4.812-3.443s-1.391-2.825-3.686-3.156l-1.1-.155c-.993-.132-1.788-.331-1.788-1.037s.75-1.236,2.009-1.236a6.8,6.8,0,0,1,3.311.9Zm61.484-1.1a3.112,3.112,0,0,0-2.781,1.545V96.1h-2.273v10.551h2.3v-5.915c0-1.744.75-2.715,2.207-2.715a3.741,3.741,0,0,1,1.435.265l.706-2.207a4.911,4.911,0,0,0-1.633-.287ZM94.1,101.351a5.331,5.331,0,0,0,5.629,5.518,5.518,5.518,0,0,0,3.8-1.258l-1.1-1.854a4.635,4.635,0,0,1-2.759.949,3.388,3.388,0,0,1,0-6.754,4.635,4.635,0,0,1,2.759.949l1.1-1.854a5.518,5.518,0,0,0-3.8-1.258,5.331,5.331,0,0,0-5.629,5.518Zm21.5,0V96.1h-2.3v1.28a4.006,4.006,0,0,0-3.311-1.545,5.518,5.518,0,0,0,0,11.036,4.006,4.006,0,0,0,3.311-1.545v1.28h2.3Zm-8.542,0a3.167,3.167,0,1,1,.861,2.389,3.19,3.19,0,0,1-.861-2.389Zm-27.7-5.518a5.519,5.519,0,0,0,.155,11.036,6.412,6.412,0,0,0,4.381-1.435l-1.1-1.7a5.022,5.022,0,0,1-3.068,1.1,2.925,2.925,0,0,1-3.156-2.583H84.4v-.883c0-3.311-2.053-5.518-5.011-5.518Zm0,2.053a2.616,2.616,0,0,1,2.671,2.56H76.5a2.715,2.715,0,0,1,2.8-2.56Zm57.511,3.488V91.86h-2.207v5.518a4.006,4.006,0,0,0-3.311-1.545,5.518,5.518,0,0,0,0,11.036,4.006,4.006,0,0,0,3.311-1.545v1.28h2.207Zm3.83,3.741a1.061,1.061,0,0,1,.993.629,1.026,1.026,0,0,1,0,.817,1.055,1.055,0,0,1-.574.552,1.038,1.038,0,0,1-.419.088,1.1,1.1,0,0,1-.993-.64,1.037,1.037,0,0,1,0-.817,1.071,1.071,0,0,1,1.026-.629Zm0,1.865a.784.784,0,0,0,.32-.066.827.827,0,0,0,.254-.177.8.8,0,0,0-.254-1.28.8.8,0,0,0-.32-.066.828.828,0,0,0-.32.066.806.806,0,0,0-.265.177.8.8,0,0,0,.618,1.346Zm.066-1.313a.442.442,0,0,1,.287.088.276.276,0,0,1,.1.232.265.265,0,0,1-.077.2.386.386,0,0,1-.232.1l.32.364H140.9l-.3-.364h-.1v.364h-.21v-.971Zm-.243.188v.265h.243a.232.232,0,0,0,.132,0,.11.11,0,0,0,0-.1.11.11,0,0,0,0-.1.232.232,0,0,0-.132,0Zm-12.14-4.481a3.167,3.167,0,1,1,.861,2.389A3.189,3.189,0,0,1,128.375,101.373Zm-77.508,0V96.1h-2.3v1.28a4.006,4.006,0,0,0-3.311-1.545,5.518,5.518,0,0,0,0,11.036,4.006,4.006,0,0,0,3.311-1.545v1.28h2.3Zm-8.542,0a1.352,1.352,0,1,1-.022,0Z" transform="translate(-14.53 -7.201)" fill="#231f20"/><rect width="34.765" height="62.477" transform="translate(46.899 8.497)" fill="#ff5f00"/><path d="M64.261,54.892A39.665,39.665,0,0,1,79.436,23.648a39.731,39.731,0,1,0,0,62.477A39.665,39.665,0,0,1,64.261,54.892Z" transform="translate(-15.155 -15.15)" fill="#eb001b"/><path d="M137.687,54.892A39.731,39.731,0,0,1,73.4,86.125a39.731,39.731,0,0,0,0-62.477,39.731,39.731,0,0,1,64.287,31.233Z" transform="translate(-9.119 -15.151)" fill="#f79e1b"/><path d="M128.285,73.605v-1.28h.519V72.06H127.49v.265h.563v1.28Zm2.549,0V72.06h-.4l-.464,1.1-.464-1.1h-.353v1.545h.287V72.446l.43,1h.3l.43-1v1.17Z" transform="translate(-3.513 -9.253)" fill="#f79e1b"/></g></g></svg>