<svg xmlns="http://www.w3.org/2000/svg" viewBox="0 0 265.99 265.91"><defs><style>.cls-1{fill:#008c4a;}.cls-2{fill:#fff;stroke-width:6px;}.cls-2,.cls-3{stroke:#2d2d2d;}.cls-2,.cls-3,.cls-5{stroke-miterlimit:10;}.cls-10,.cls-3{fill:#cecece;}.cls-3,.cls-5,.cls-6{stroke-width:2px;}.cls-4{fill:#2d2d2d;}.cls-5,.cls-6{fill:none;stroke:#d4af37;}.cls-6{stroke-linecap:round;stroke-linejoin:round;}.cls-7{fill:#d8d8d8;}.cls-8{fill:#939393;}.cls-9{font-size:9px;font-family:RobotoCondensed-Bold, Roboto Condensed;font-weight:700;}</style></defs><title>Asset 13</title><g id="Layer_2" data-name="Layer 2"><g id="Layer_15" data-name="Layer 15"><rect class="cls-1" width="255.63" height="255.63" rx="29.58"/><circle class="cls-2" cx="27.74" cy="27.74" r="9.74"/><circle class="cls-2" cx="27.74" cy="228.93" r="9.74"/><circle class="cls-2" cx="228.37" cy="228.93" r="9.74"/><circle class="cls-2" cx="228.37" cy="26.54" r="9.74"/><rect class="cls-3" x="58.21" y="44.24" width="47.95" height="63.96" rx="4.02"/><path class="cls-4" d="M97,73.91l-.32-.58c0-4.12-1.87-5.8-4.07-7.08.66-.17,1.35-.32,1.54-1.17,1.14-.3,1.38-.83,1.49-1.4.3-.2,1.3-.77,1.2-1.75a1.45,1.45,0,0,0,.71-1.61c.6-.66.76-1.21.51-1.72a1.31,1.31,0,0,0,.09-1.86c.54-1,.06-2.07-1.45-1.89-.6-.9-1.91-.69-2.11-.69-.23-.29-.53-.53-1.45-.41a1.76,1.76,0,0,0-2-.19c-.81-.64-1.35-.12-2,.07-1-.32-1.22.12-1.71.3-1.07-.23-1.4.27-1.92.79H85a6.9,6.9,0,0,0-2.73,3.92,6.83,6.83,0,0,0-2.72-3.92h-.6c-.52-.52-.85-1-1.93-.79-.48-.18-.71-.62-1.7-.3a3.77,3.77,0,0,0-1.22-.38,1.27,1.27,0,0,0-.75.31,1.76,1.76,0,0,0-2,.19c-.92-.12-1.22.12-1.45.41-.2,0-1.51-.21-2.11.69-1.51-.18-2,.89-1.45,1.89a1.31,1.31,0,0,0,.09,1.86c-.25.51-.09,1.06.51,1.72a1.45,1.45,0,0,0,.71,1.61c-.1,1,.9,1.55,1.2,1.75.11.57.35,1.1,1.49,1.4.19.85.88,1,1.54,1.17-2.2,1.28-4.08,3-4.07,7.08l-.32.58a7,7,0,0,0-1.24,10.46,20.28,20.28,0,0,0,1,3.15A7.66,7.66,0,0,0,72,93.63a15.9,15.9,0,0,0,4.57,2.6,7.58,7.58,0,0,0,5.62,2.52h.09a7.58,7.58,0,0,0,5.62-2.52,15.9,15.9,0,0,0,4.57-2.6,7.66,7.66,0,0,0,4.79-6.11,20.28,20.28,0,0,0,1-3.15A7,7,0,0,0,97,73.91Zm-2.28-.71c-.13,1.67-8.65-5.78-7.18-6C91.52,66.5,94.85,68.87,94.71,73.2ZM85.35,55.85a1.32,1.32,0,0,0,.26.68A13.14,13.14,0,0,1,87.08,55c0,.29-.15.61.21.84a4.32,4.32,0,0,1,1.36-1.19c-.28.5-.05.65.1.86a4.9,4.9,0,0,1,1.71-1.1c-.23.28-.55.56-.21.88a4.87,4.87,0,0,1,2-.8c-.25.28-.76.56-.45.84a8.39,8.39,0,0,1,1.93-.48c-.34.28-.62.56-.34.78a4.25,4.25,0,0,1,2.31-.23l-.53.54a14.43,14.43,0,0,0,2.09.07,4.3,4.3,0,0,0-.81,1.62c.08.09.51,0,.91,0-.41.88-1.13,1.1-1.29,1.47a1,1,0,0,0,1,0,6.35,6.35,0,0,1-1.4,1.54c.13.09.34.15.85.08a7.65,7.65,0,0,1-1.64,1.34c.11.13.51.13.87.14a8.26,8.26,0,0,1-2,1.26,1.18,1.18,0,0,0,.87.18,6.7,6.7,0,0,1-2.14.89.79.79,0,0,0,.62.37c-.83.47-2,.25-2.36.49a1,1,0,0,0,.58.52c-1.34.08-5,0-5.72-2.87,1.37-1.54,3.88-3.34,8.2-5.57a28.1,28.1,0,0,0-8.93,4.76C81.84,60.82,83.9,57.26,85.35,55.85ZM82.23,66C84.34,66,87,67.61,87,69.12c0,1.34-1.84,2.41-4.71,2.39s-4.7-1.35-4.69-2.64C77.56,67.81,79.84,66,82.23,66ZM71.53,64.9a.79.79,0,0,0,.62-.37A6.73,6.73,0,0,1,70,63.64a1.18,1.18,0,0,0,.87-.18,8.32,8.32,0,0,1-2-1.26c.37,0,.76,0,.88-.14a8,8,0,0,1-1.65-1.34c.52.07.73,0,.86-.08a6.61,6.61,0,0,1-1.41-1.54,1,1,0,0,0,1,0c-.17-.37-.88-.59-1.29-1.47.4,0,.83.09.91,0A4.31,4.31,0,0,0,67.3,56a14.52,14.52,0,0,0,2.1-.07l-.53-.54a4.26,4.26,0,0,1,2.31.23c.28-.22,0-.5-.35-.78a8.39,8.39,0,0,1,1.93.48c.31-.28-.2-.56-.44-.84a4.87,4.87,0,0,1,2,.8c.33-.32,0-.6-.21-.88a4.85,4.85,0,0,1,1.7,1.1c.16-.21.39-.36.11-.86a4.28,4.28,0,0,1,1.35,1.19c.37-.23.22-.55.22-.84A13.14,13.14,0,0,1,79,56.53a1.32,1.32,0,0,0,.26-.68c1.45,1.41,3.51,5,.52,6.38a28,28,0,0,0-8.93-4.76c4.32,2.23,6.83,4,8.21,5.57-.7,2.82-4.38,2.95-5.72,2.87a1,1,0,0,0,.58-.52C73.56,65.15,72.37,65.37,71.53,64.9Zm5,2.15c1.47.24-7,7.69-7.19,6C69.17,68.75,72.49,66.37,76.49,67.05ZM67.54,83.63a5.52,5.52,0,0,1,1.1-8.74C71,74.27,69.42,84.47,67.54,83.63Zm8.07,8.74c-1.16.7-4,.41-6-2.48-1.36-2.44-1.18-4.91-.23-5.64,1.43-.87,3.64.31,5.34,2.28C76.18,88.31,76.85,91.45,75.61,92.37ZM73.32,81.73c-2.15-1.4-2.53-4.58-.86-7.11s4.75-3.43,6.9-2,2.53,4.59.86,7.11S75.46,83.14,73.32,81.73Zm8.92,15.6c-2.57.12-5.1-2.1-5.06-2.87,0-1.13,3.13-2,5.19-1.95,2.08-.09,4.87.67,4.88,1.67S84.72,97.38,82.24,97.33ZM82.35,91a4.79,4.79,0,1,1,5.18-4.77A5,5,0,0,1,82.35,91Zm1.93-11.55c-1.67-2.52-1.28-5.7.86-7.11s5.24-.5,6.9,2,1.29,5.71-.86,7.11S86,82,84.28,79.45ZM94.76,90c-2.21,3.07-5.21,3.19-6.33,2.33-1.17-1.1-.28-4.52,1.33-6.4,1.83-2.06,3.79-3.42,5.15-2.36C95.83,84.52,96.37,88,94.76,90Zm1.73-6.52c-1.88.83-3.41-9.36-1.1-8.74A5.51,5.51,0,0,1,96.49,83.51Z"/><circle class="cls-4" cx="60.37" cy="22.16" r="2.16"/><circle class="cls-4" cx="60.37" cy="33.33" r="2.16"/><circle class="cls-4" cx="72.1" cy="22.16" r="2.16"/><circle class="cls-4" cx="72.1" cy="33.33" r="2.16"/><circle class="cls-4" cx="85.45" cy="22.16" r="2.16"/><circle class="cls-4" cx="85.45" cy="33.33" r="2.16"/><circle class="cls-4" cx="97.18" cy="22.16" r="2.16"/><circle class="cls-4" cx="97.18" cy="33.33" r="2.16"/><circle class="cls-4" cx="110.88" cy="22.16" r="2.16"/><circle class="cls-4" cx="110.88" cy="33.33" r="2.16"/><circle class="cls-4" cx="122.61" cy="22.16" r="2.16"/><circle class="cls-4" cx="122.61" cy="33.33" r="2.16"/><circle class="cls-4" cx="135.96" cy="22.16" r="2.16"/><circle class="cls-4" cx="135.96" cy="33.33" r="2.16"/><circle class="cls-4" cx="147.69" cy="22.16" r="2.16"/><circle class="cls-4" cx="147.69" cy="33.33" r="2.16"/><circle class="cls-4" cx="159.99" cy="22.16" r="2.16"/><circle class="cls-4" cx="159.99" cy="33.33" r="2.16"/><circle class="cls-4" cx="171.72" cy="22.16" r="2.16"/><circle class="cls-4" cx="171.72" cy="33.33" r="2.16"/><circle class="cls-4" cx="185.08" cy="22.16" r="2.16"/><circle class="cls-4" cx="185.08" cy="33.33" r="2.16"/><circle class="cls-4" cx="196.81" cy="22.16" r="2.16"/><circle class="cls-4" cx="196.81" cy="33.33" r="2.16"/><g id="circuits"><circle class="cls-5" cx="29.11" cy="138.5" r="3.03"/><circle class="cls-5" cx="29.11" cy="149.57" r="3.03"/><circle class="cls-5" cx="29.11" cy="160.63" r="3.03"/><circle class="cls-5" cx="29.11" cy="171.7" r="3.03"/><circle class="cls-5" cx="29.11" cy="182.77" r="3.03"/><line class="cls-6" x1="32.14" y1="138.5" x2="42.07" y2="138.5"/><line class="cls-6" x1="32.14" y1="149.57" x2="42.07" y2="149.57"/><line class="cls-6" x1="32.14" y1="160.63" x2="42.07" y2="160.63"/><line class="cls-6" x1="32.14" y1="171.7" x2="42.07" y2="171.7"/><line class="cls-6" x1="32.14" y1="182.77" x2="42.07" y2="182.77"/><line class="cls-6" x1="42.07" y1="138.5" x2="70.21" y2="152.52"/><line class="cls-6" x1="42.07" y1="149.57" x2="67.21" y2="162.09"/><line class="cls-6" x1="42.07" y1="160.63" x2="64.21" y2="171.66"/><line class="cls-6" x1="42.07" y1="171.7" x2="61.21" y2="181.24"/><line class="cls-6" x1="42.07" y1="182.77" x2="58.21" y2="190.81"/><line class="cls-6" x1="58.21" y1="190.81" x2="58.21" y2="213.95"/><line class="cls-6" x1="61.21" y1="181.24" x2="61.21" y2="210.95"/><line class="cls-6" x1="64.21" y1="171.66" x2="64.21" y2="207.95"/><line class="cls-6" x1="67.21" y1="162.09" x2="67.21" y2="204.95"/><line class="cls-6" x1="70.21" y1="152.52" x2="70.21" y2="201.95"/><line class="cls-6" x1="70.21" y1="201.95" x2="118.72" y2="201.95"/><line class="cls-6" x1="67.21" y1="204.95" x2="113.72" y2="204.95"/><line class="cls-6" x1="64.21" y1="207.95" x2="108.72" y2="207.95"/><line class="cls-6" x1="61.21" y1="210.95" x2="103.72" y2="210.95"/><line class="cls-6" x1="58.21" y1="213.95" x2="98.72" y2="213.95"/><line class="cls-6" x1="108.72" y1="207.95" x2="108.72" y2="225.11"/><line class="cls-6" x1="113.72" y1="204.95" x2="113.72" y2="225.11"/><line class="cls-6" x1="118.72" y1="201.95" x2="118.72" y2="225.11"/><line class="cls-6" x1="103.72" y1="210.95" x2="103.72" y2="225.11"/><line class="cls-6" x1="98.72" y1="213.95" x2="98.72" y2="225.11"/></g><rect class="cls-7" x="90.3" y="226.11" width="36.85" height="38.52" rx="4.59"/><path class="cls-4" d="M122.56,227.11a3.59,3.59,0,0,1,3.58,3.59V260a3.59,3.59,0,0,1-3.58,3.59H94.89A3.59,3.59,0,0,1,91.3,260V230.7a3.59,3.59,0,0,1,3.59-3.59h27.67m0-2H94.89a5.59,5.59,0,0,0-5.59,5.59V260a5.59,5.59,0,0,0,5.59,5.59h27.67a5.58,5.58,0,0,0,5.58-5.59V230.7a5.58,5.58,0,0,0-5.58-5.59Z"/><path class="cls-7" d="M154.89,218.34h8.25a4.81,4.81,0,0,1,4.81,4.81v37.17a4.81,4.81,0,0,1-4.81,4.81h-8.25a4.81,4.81,0,0,1-4.81-4.81V223.16a4.82,4.82,0,0,1,4.82-4.82Z"/><path class="cls-4" d="M163.13,219.11a4.06,4.06,0,0,1,4.05,4v37.16a4.05,4.05,0,0,1-4.05,4h-8.25a4,4,0,0,1-4-4V223.16a4.06,4.06,0,0,1,4-4h8.25m0-1.54h-8.25a5.58,5.58,0,0,0-5.58,5.59v37.16a5.58,5.58,0,0,0,5.58,5.59h8.25a5.59,5.59,0,0,0,5.59-5.59V223.16a5.59,5.59,0,0,0-5.59-5.59Z"/><path class="cls-4" d="M149.85,241.8V223.62a5.51,5.51,0,0,1,5.5-5.5h7.32a5.51,5.51,0,0,1,5.5,5.5V241.8Z"/><path class="cls-4" d="M162.67,218.68a4.94,4.94,0,0,1,4.94,4.94v17.63H150.4V223.62a5,5,0,0,1,4.95-4.94h7.32m0-1.11h-7.32a6.05,6.05,0,0,0-6,6.05v18.73h19.42V223.62a6.05,6.05,0,0,0-6.05-6.05Z"/><rect class="cls-4" x="100.84" y="238.39" width="2.98" height="13.95" rx="1.49"/><rect class="cls-4" x="112.79" y="238.39" width="2.98" height="13.95" rx="1.49"/><g id="circuits2"><line class="cls-6" x1="154.77" y1="139.81" x2="163.27" y2="139.81"/><line class="cls-6" x1="154.77" y1="133.81" x2="163.27" y2="133.81"/><line class="cls-6" x1="154.77" y1="127.81" x2="163.27" y2="127.81"/><line class="cls-6" x1="204.99" y1="138.7" x2="213.49" y2="138.7"/><line class="cls-6" x1="204.99" y1="134.7" x2="213.49" y2="134.7"/><line class="cls-6" x1="204.99" y1="130.7" x2="213.49" y2="130.7"/><line class="cls-6" x1="204.99" y1="83" x2="213.49" y2="83"/><line class="cls-6" x1="204.99" y1="77" x2="213.49" y2="77"/><line class="cls-6" x1="204.99" y1="71" x2="213.49" y2="71"/><line class="cls-6" x1="154.77" y1="144.81" x2="163.27" y2="144.81"/><line class="cls-6" x1="154.77" y1="148.81" x2="163.27" y2="148.81"/><line class="cls-6" x1="154.77" y1="152.81" x2="163.27" y2="152.81"/><line class="cls-6" x1="163.27" y1="127.81" x2="204.99" y2="71"/><line class="cls-6" x1="163.27" y1="133.81" x2="204.99" y2="77"/><line class="cls-6" x1="163.27" y1="139.81" x2="204.99" y2="83"/><line class="cls-6" x1="163.27" y1="144.81" x2="204.99" y2="130.7"/><line class="cls-6" x1="163.27" y1="148.81" x2="204.99" y2="134.7"/><line class="cls-6" x1="163.27" y1="152.81" x2="204.99" y2="138.7"/></g><rect class="cls-8" x="214.77" y="52.29" width="49.57" height="47.42" rx="4.3"/><path class="cls-4" d="M219.07,51v2.57h41a3,3,0,0,1,3,3V95.41a3,3,0,0,1-3,3h-41a3,3,0,0,1-3-3V56.59a3,3,0,0,1,3-3V51m0,0a5.58,5.58,0,0,0-5.58,5.58V95.41a5.58,5.58,0,0,0,5.58,5.59h41a5.59,5.59,0,0,0,5.59-5.59V56.59A5.58,5.58,0,0,0,260,51Z"/><rect class="cls-4" x="238" y="75.25" width="3.83" height="17.96" rx="1.49" transform="translate(155.69 324.15) rotate(-90)"/><rect class="cls-4" x="238" y="59.69" width="3.83" height="17.96" rx="1.49" transform="translate(171.25 308.59) rotate(-90)"/><rect class="cls-8" x="215.14" y="110.72" width="49.57" height="47.42" rx="4.3"/><path class="cls-4" d="M219.44,109.44V112h41a3,3,0,0,1,3,3v38.82a3,3,0,0,1-3,3h-41a3,3,0,0,1-3-3V115a3,3,0,0,1,3-3v-2.57m0,0a5.58,5.58,0,0,0-5.59,5.58v38.82a5.59,5.59,0,0,0,5.59,5.59h41a5.59,5.59,0,0,0,5.59-5.59V115a5.58,5.58,0,0,0-5.59-5.58Z"/><rect class="cls-4" x="238.37" y="133.68" width="3.83" height="17.96" rx="1.49" transform="translate(97.62 382.94) rotate(-90)"/><rect class="cls-4" x="238.37" y="118.12" width="3.83" height="17.96" rx="1.49" transform="translate(113.18 367.38) rotate(-90)"/><rect class="cls-4" x="157.52" y="246.49" width="2.98" height="13.95" rx="1.49"/><text class="cls-9" transform="translate(135.42 146.69)"><tspan xml:space="preserve">  </tspan></text><rect class="cls-10" x="109.72" y="116.48" width="44.05" height="44.05" rx="5.44"/><path class="cls-4" d="M148.33,117.48a4.45,4.45,0,0,1,4.44,4.44v33.16a4.45,4.45,0,0,1-4.44,4.44H115.16a4.44,4.44,0,0,1-4.44-4.44V121.92a4.44,4.44,0,0,1,4.44-4.44h33.17m0-2H115.16a6.44,6.44,0,0,0-6.44,6.44v33.16a6.44,6.44,0,0,0,6.44,6.44h33.17a6.44,6.44,0,0,0,6.44-6.44V121.92a6.44,6.44,0,0,0-6.44-6.44Z"/><path class="cls-4" d="M128,140.24a3.25,3.25,0,0,1-.82,2.21,2.92,2.92,0,0,1-2.14.75,2.66,2.66,0,0,1-2.21-1,4.17,4.17,0,0,1-.77-2.71v-1.44a4.13,4.13,0,0,1,.79-2.71,3.16,3.16,0,0,1,4.34-.17,3.59,3.59,0,0,1,.82,2.24h-1.73a2.36,2.36,0,0,0-.28-1.25,1.12,1.12,0,0,0-.93-.34,1,1,0,0,0-1,.48,3.56,3.56,0,0,0-.31,1.6v1.61a3.67,3.67,0,0,0,.29,1.74,1,1,0,0,0,1,.48,1.12,1.12,0,0,0,.94-.33,2.17,2.17,0,0,0,.29-1.2Z"/><path class="cls-4" d="M130.78,140.08v3h-1.72v-8.53H132a2.67,2.67,0,0,1,2,.78,2.86,2.86,0,0,1,.76,2,2.62,2.62,0,0,1-.75,2,2.8,2.8,0,0,1-2.06.73Zm0-1.44H132a.94.94,0,0,0,.77-.32,1.42,1.42,0,0,0,.26-.94,1.7,1.7,0,0,0-.27-1A.91.91,0,0,0,132,136h-1.2Z"/><path class="cls-4" d="M141.43,134.55v5.9a2.77,2.77,0,0,1-.73,2,3.38,3.38,0,0,1-4.16,0,2.74,2.74,0,0,1-.73-2.07v-5.86h1.74v5.87a1.84,1.84,0,0,0,.23,1,1.32,1.32,0,0,0,1.7,0,1.75,1.75,0,0,0,.23-1v-5.9Z"/></g></g></svg>