<svg xmlns="http://www.w3.org/2000/svg" viewBox="0 0 328.73 323.3"><defs><style>.cls-1{fill:#2d2d2d;}.cls-2{fill:#fff;}.cls-3,.cls-4{fill:none;stroke:#fff;stroke-miterlimit:10;}.cls-3{stroke-linecap:round;stroke-width:3px;}.cls-4{stroke-width:3.12px;}</style></defs><title>Asset 11</title><g id="Layer_2" data-name="Layer 2"><g id="Layer_13" data-name="Layer 13"><path class="cls-1" d="M59.92,252.09l.95-1.17a5.83,5.83,0,1,0-9-7.34l-.94,1.16L33.53,230.65l.94-1.16a5.84,5.84,0,0,0-.85-8.2,5.83,5.83,0,0,0-8.19.85l-.95,1.17L6.26,208.52l1-1.17a26.79,26.79,0,0,0,5.89-19.78,26.8,26.8,0,0,0-9.83-18.15l-1.16-.94L133.82,6.26l1.17,1a27,27,0,0,0,17,6,26.87,26.87,0,0,0,20.95-10l.94-1.16L192.08,16.9l-1,1.17a5.83,5.83,0,0,0,9.05,7.34l.95-1.16,17.35,14.08-.95,1.17a5.82,5.82,0,1,0,9,7.34l1-1.16,18.22,14.79-1,1.16a27,27,0,0,0,3.94,37.93l1.16,1L118.18,262.72l-1.17-.94a26.95,26.95,0,0,0-37.93,3.93l-.94,1.17Z"/><path class="cls-2" d="M174.08,4.22,190,17.12a7.33,7.33,0,0,0,11.37,9.24l15,12.19a7.33,7.33,0,1,0,11.38,9.24l15.89,12.9a28.47,28.47,0,0,0,4.15,40L118,260.61a28.45,28.45,0,0,0-40,4.16L62,251.87a7.33,7.33,0,1,0-11.37-9.24l-15-12.2a7.33,7.33,0,0,0-11.38-9.23L8.37,208.3a28.47,28.47,0,0,0-4.15-40L134,8.37A28.32,28.32,0,0,0,152,14.74,28.38,28.38,0,0,0,174.08,4.22M173.65,0l-1.9,2.33A25.37,25.37,0,0,1,152,11.74a25.55,25.55,0,0,1-16-5.69l-2.33-1.9-1.89,2.33L1.89,166.37,0,168.7l2.33,1.89a25.49,25.49,0,0,1,3.72,35.82l-1.9,2.33,2.33,1.89,15.89,12.9,2.33,1.89,1.89-2.33a4.33,4.33,0,0,1,6.72,5.45l-1.89,2.33,2.32,1.89,15,12.2,2.32,1.89,1.9-2.33A4.33,4.33,0,1,1,59.7,250l-1.89,2.32,2.33,1.9L76,267.1,78.36,269l1.89-2.33a25.45,25.45,0,0,1,35.82-3.72l2.33,1.89,1.89-2.33L250.11,102.62l1.89-2.33-2.33-1.89A25.46,25.46,0,0,1,246,62.58l1.9-2.33-2.33-1.89-15.89-12.9-2.33-1.89-1.89,2.33a4.34,4.34,0,0,1-3.36,1.6,4.27,4.27,0,0,1-2.72-1,4.33,4.33,0,0,1-.64-6.09l1.89-2.33-2.32-1.89L203.24,24l-2.33-1.89L199,24.46a4.33,4.33,0,0,1-3.37,1.6,4.32,4.32,0,0,1-4.3-3.88,4.34,4.34,0,0,1,1-3.17l1.89-2.33-2.33-1.89L176,1.89,173.65,0Z"/><line class="cls-3" x1="75.04" y1="163.54" x2="143.96" y2="78.65"/><line class="cls-3" x1="79.02" y1="142.77" x2="124.45" y2="86.82"/><line class="cls-3" x1="108.04" y1="190.34" x2="176.97" y2="105.45"/><line class="cls-3" x1="127.55" y1="182.17" x2="172.98" y2="126.22"/><path class="cls-2" d="M94.33,155.92a1.82,1.82,0,0,1,1.43.44,1.73,1.73,0,0,1,.7,1.29A2.07,2.07,0,0,1,96,159.1l-3.26,4L106.08,174a1.83,1.83,0,0,1,.72,1.39,2.17,2.17,0,0,1-.53,1.56,2,2,0,0,1-1.4.81,1.91,1.91,0,0,1-1.49-.44L90,166.44l-3.26,4a2,2,0,0,1-1.32.79A1.82,1.82,0,0,1,84,170.8a1.73,1.73,0,0,1-.68-1.29,2.06,2.06,0,0,1,.49-1.45L93,156.71A2,2,0,0,1,94.33,155.92Z"/><path class="cls-2" d="M116.1,163.93a2.06,2.06,0,0,1-.47,1.48,2,2,0,0,1-1.37.78,2,2,0,0,1-1.47-.46L98,153.74a2,2,0,0,1-.74-1.37,2.08,2.08,0,0,1,.51-1.54,2,2,0,0,1,1.34-.73,1.91,1.91,0,0,1,1.49.44l14.77,12A1.89,1.89,0,0,1,116.1,163.93Z"/><path class="cls-2" d="M115.15,133.89a2.24,2.24,0,0,1,.73,1.23,1.64,1.64,0,0,1-.31,1.49,2.56,2.56,0,0,1-.94.68,8,8,0,0,0-2.78,2.23,7.93,7.93,0,0,0-1.78,3.73,6.52,6.52,0,0,0,.46,3.77,8.51,8.51,0,0,0,2.55,3.26,7.79,7.79,0,0,0,5.89,2.09,8.45,8.45,0,0,0,6.63-6.18,2.48,2.48,0,0,1,.46-1,1.81,1.81,0,0,1,1.47-.67,2.1,2.1,0,0,1,1.36.47,1.7,1.7,0,0,1,.61,1.81,12,12,0,0,1-2.45,5.05,12.85,12.85,0,0,1-4.79,3.74,10.59,10.59,0,0,1-5.85.81,12.31,12.31,0,0,1-6-2.82,11.76,11.76,0,0,1-3.71-5,10.83,10.83,0,0,1-.57-5.91,12.3,12.3,0,0,1,2.68-5.67,11.7,11.7,0,0,1,4.42-3.41A1.75,1.75,0,0,1,115.15,133.89Z"/><path class="cls-2" d="M142.24,128.23a2.11,2.11,0,0,1,.63.35,1.91,1.91,0,0,1,.73,1.45,2.34,2.34,0,0,1-.53,1.59,1.81,1.81,0,0,1-.67.52,1.9,1.9,0,0,1-.85.16l-11.82-.39.36,4.31,4,3.26a1.92,1.92,0,0,1,.76,1.36,2,2,0,0,1-.51,1.52,2,2,0,0,1-1.37.77,1.91,1.91,0,0,1-1.47-.45l-14.78-12a1.92,1.92,0,0,1-.74-1.36,2.12,2.12,0,0,1,.51-1.54,2,2,0,0,1,1.35-.77,1.93,1.93,0,0,1,1.48.48l7,5.64-1.41-14.72a2.29,2.29,0,0,1,.43-1.73,1.62,1.62,0,0,1,1.29-.6,2,2,0,0,1,1.36.42,1.8,1.8,0,0,1,.62,1.27l.79,9.89,12.17.42A2.44,2.44,0,0,1,142.24,128.23Z"/><path class="cls-2" d="M153.29,113.94a1.85,1.85,0,0,1,1.4.4,1.72,1.72,0,0,1,.68,1.29,2,2,0,0,1-.49,1.45l-6.95,8.56a2,2,0,0,1-1.35.75,1.94,1.94,0,0,1-1.48-.46l-14.77-12a2,2,0,0,1-.3-2.83l7-8.56a2,2,0,0,1,1.32-.77,1.83,1.83,0,0,1,1.45.43,1.73,1.73,0,0,1,.68,1.28,2.09,2.09,0,0,1-.51,1.45l-5.63,6.92,4.35,3.53,4.69-5.77a2,2,0,0,1,1.32-.78,1.87,1.87,0,0,1,1.45.44,1.68,1.68,0,0,1,.68,1.28,2.06,2.06,0,0,1-.51,1.44l-4.69,5.78,4.73,3.84,5.62-6.93A2,2,0,0,1,153.29,113.94Z"/><path class="cls-2" d="M151.51,85.5a1.82,1.82,0,0,1,1.43.44,1.76,1.76,0,0,1,.7,1.29,2.07,2.07,0,0,1-.51,1.45l-3.26,4,13.39,10.88A1.86,1.86,0,0,1,164,105a2.17,2.17,0,0,1-.53,1.56,2,2,0,0,1-1.4.81,1.91,1.91,0,0,1-1.49-.44L147.17,96l-3.26,4a2,2,0,0,1-1.32.79,1.82,1.82,0,0,1-1.43-.44,1.73,1.73,0,0,1-.68-1.29,2.06,2.06,0,0,1,.49-1.45l9.22-11.35A2,2,0,0,1,151.51,85.5Z"/><rect class="cls-4" x="35.59" y="81.62" width="182.55" height="107.16" rx="10.88" transform="translate(-58.06 148.46) rotate(-50.92)"/><path class="cls-1" d="M106.1,320a26.9,26.9,0,0,0-33.35-18.48l-1.44.41-6.48-22.55,1.44-.42a5.82,5.82,0,0,0,4-7.2,5.81,5.81,0,0,0-7.21-4l-1.44.42L55.46,246.7l1.44-.42a5.83,5.83,0,0,0-1.61-11.43,5.91,5.91,0,0,0-1.61.23l-1.44.42-6.47-22.56,1.44-.41a27,27,0,0,0,18.48-33.36l-.41-1.44L266.13,120.1l.41,1.44A27,27,0,0,0,299.9,140l1.44-.41,6.47,22.55-1.44.41A5.83,5.83,0,0,0,308,174a5.85,5.85,0,0,0,1.61-.23l1.45-.41,6.16,21.48-1.44.41a5.83,5.83,0,0,0,1.6,11.43,5.55,5.55,0,0,0,1.61-.23l1.44-.41,6.48,22.56-1.45.41A27,27,0,0,0,307,262.36l.42,1.45L106.52,321.44Z"/><path class="cls-2" d="M265.1,122a28.44,28.44,0,0,0,35.21,19.51L306,161.13a7.33,7.33,0,0,0,2,14.37,7.17,7.17,0,0,0,2-.29l5.33,18.6a7.33,7.33,0,0,0,4,14.09L325,227.57a28.46,28.46,0,0,0-19.51,35.21l-198,56.8a28.41,28.41,0,0,0-35.22-19.5L66.69,280.4a7.32,7.32,0,0,0-2-14.36,7.4,7.4,0,0,0-2,.28l-5.34-18.6a7.33,7.33,0,0,0-2-14.37,7.47,7.47,0,0,0-2,.29L47.63,214a28.46,28.46,0,0,0,19.5-35.21L265.1,122m2.06-3.71-2.89.83-198,56.8-2.89.83.83,2.88A25.47,25.47,0,0,1,46.8,211.09l-2.89.82.83,2.89,5.65,19.67.82,2.88,2.89-.83a4.31,4.31,0,0,1,5.35,3,4.33,4.33,0,0,1-3,5.35l-2.88.83.83,2.88,5.33,18.6.83,2.88,2.89-.82a4,4,0,0,1,1.19-.17,4.32,4.32,0,0,1,1.19,8.48l-2.88.83.83,2.88,5.64,19.67.83,2.89,2.88-.83a25.41,25.41,0,0,1,31.5,17.45l.83,2.89,2.88-.83,198-56.81,2.88-.82-.83-2.89a25.48,25.48,0,0,1,17.46-31.5l2.88-.83-.83-2.88-5.64-19.67-.83-2.89-2.88.83a4.52,4.52,0,0,1-1.2.17,4.32,4.32,0,0,1-1.19-8.48l2.88-.83-.82-2.88-5.34-18.6-.83-2.89-2.88.83a4.46,4.46,0,0,1-1.2.17,4.35,4.35,0,0,1-4.15-3.13,4.32,4.32,0,0,1,3-5.35l2.89-.83-.83-2.89-5.65-19.67-.82-2.88-2.89.83A25.45,25.45,0,0,1,268,121.12l-.82-2.88Z"/><line class="cls-3" x1="127.91" y1="215.42" x2="233.01" y2="185.26"/><line class="cls-3" x1="143.06" y1="200.66" x2="212.34" y2="180.79"/><line class="cls-3" x1="139.63" y1="256.28" x2="244.74" y2="226.12"/><line class="cls-3" x1="160.3" y1="260.75" x2="229.58" y2="240.87"/><path class="cls-2" d="M148.09,220.21a1.86,1.86,0,0,1,.92,1.18,1.75,1.75,0,0,1-.16,1.46,2.08,2.08,0,0,1-1.25.9l-5,1.42,4.76,16.59a1.9,1.9,0,0,1-.21,1.54,2.16,2.16,0,0,1-1.33,1,2.07,2.07,0,0,1-1.61-.13,1.93,1.93,0,0,1-1-1.21l-4.76-16.59-5,1.43a2,2,0,0,1-1.53-.11,1.78,1.78,0,0,1-.92-1.17,1.69,1.69,0,0,1,.18-1.46,2.05,2.05,0,0,1,1.23-.9l14.05-4A2,2,0,0,1,148.09,220.21Z"/><path class="cls-2" d="M161.36,239.24a2.1,2.1,0,0,1-1.24.95,2,2,0,0,1-1.56-.15,1.9,1.9,0,0,1-.95-1.22l-5.25-18.29a1.92,1.92,0,0,1,.17-1.54,2.1,2.1,0,0,1,1.3-1,2,2,0,0,1,1.52.16,1.92,1.92,0,0,1,1,1.21l5.25,18.3A1.88,1.88,0,0,1,161.36,239.24Z"/><path class="cls-2" d="M177.77,214.06a2.23,2.23,0,0,1-.1,1.43,1.63,1.63,0,0,1-1.11,1,2.38,2.38,0,0,1-1.16,0,8.15,8.15,0,0,0-3.56.24,7.87,7.87,0,0,0-3.59,2,6.56,6.56,0,0,0-1.78,3.35,8.66,8.66,0,0,0,.22,4.14,7.82,7.82,0,0,0,3.64,5.08,8.47,8.47,0,0,0,9-1.27,2.48,2.48,0,0,1,.94-.54,1.81,1.81,0,0,1,1.59.29,2.18,2.18,0,0,1,.85,1.17,1.85,1.85,0,0,1,0,1,1.69,1.69,0,0,1-.55.84,12.06,12.06,0,0,1-4.9,2.74,13,13,0,0,1-6.07.32,10.46,10.46,0,0,1-5.26-2.69,12.22,12.22,0,0,1-3.33-5.75,11.89,11.89,0,0,1-.19-6.22,10.84,10.84,0,0,1,2.92-5.17,12.2,12.2,0,0,1,5.44-3.12,11.59,11.59,0,0,1,5.57-.26A1.75,1.75,0,0,1,177.77,214.06Z"/><path class="cls-2" d="M203.22,224.93a2.25,2.25,0,0,1,.32.64,1.84,1.84,0,0,1-.24,1.61,2.25,2.25,0,0,1-1.34,1,1.83,1.83,0,0,1-.84,0,1.72,1.72,0,0,1-.79-.36l-9.47-7.08-2.18,3.75,1.43,5a2,2,0,0,1-.15,1.55,2.1,2.1,0,0,1-1.29.95,2,2,0,0,1-1.57-.15,2,2,0,0,1-.95-1.22l-5.25-18.29a2,2,0,0,1,.18-1.54,2.07,2.07,0,0,1,1.3-1,1.91,1.91,0,0,1,2.48,1.37l2.47,8.61,7.27-12.87a2.25,2.25,0,0,1,1.34-1.18,1.63,1.63,0,0,1,1.41.25,2,2,0,0,1,.87,1.12,1.84,1.84,0,0,1-.22,1.4l-5,8.56,9.74,7.31A2.3,2.3,0,0,1,203.22,224.93Z"/><path class="cls-2" d="M220.46,219.53a1.85,1.85,0,0,1,.93,1.13,1.71,1.71,0,0,1-.19,1.45A2,2,0,0,1,220,223l-10.6,3a2,2,0,0,1-2.49-1.38l-5.25-18.29A2,2,0,0,1,203,203.9l10.61-3a2,2,0,0,1,1.52.13,1.85,1.85,0,0,1,.94,1.18,1.71,1.71,0,0,1-.17,1.44,2,2,0,0,1-1.25.89L206.08,207l1.55,5.38,7.15-2.05a2,2,0,0,1,1.53.13,1.83,1.83,0,0,1,.93,1.18,1.68,1.68,0,0,1-.17,1.44,2,2,0,0,1-1.25.89l-7.15,2,1.68,5.86,8.58-2.46A1.93,1.93,0,0,1,220.46,219.53Z"/><path class="cls-2" d="M235.28,195.19a1.83,1.83,0,0,1,.92,1.18,1.74,1.74,0,0,1-.16,1.46,2.08,2.08,0,0,1-1.25.9l-5,1.42,4.76,16.59a1.86,1.86,0,0,1-.21,1.54,2.18,2.18,0,0,1-1.33,1,2.11,2.11,0,0,1-1.61-.14,1.93,1.93,0,0,1-1-1.21l-4.76-16.59-5,1.43a2,2,0,0,1-1.53-.11,1.92,1.92,0,0,1-.74-2.63,2.05,2.05,0,0,1,1.23-.9l14.05-4A2,2,0,0,1,235.28,195.19Z"/><rect class="cls-4" x="95.36" y="168.26" width="182.55" height="107.16" rx="10.88" transform="translate(-53.95 60.08) rotate(-16.01)"/></g></g></svg>