<svg xmlns="http://www.w3.org/2000/svg" viewBox="0 0 447.85 435.12"><defs><style>.cls-1{fill:#32a4fc;}.cls-2{fill:#006cb5;}</style></defs><title>Asset 18</title><g id="Layer_2" data-name="Layer 2"><g id="Layer_17" data-name="Layer 17"><path class="cls-1" d="M443,109.75,397,155.83a9.41,9.41,0,0,1-13.33,0L336.76,109a9.44,9.44,0,0,1,0-13.34l45.6-45.59c-28.95-9.36-60.6-3.62-82.07,17.85-19.49,19.48-26,47.36-20.05,74,0,0-54.23,80.14-76.63,102.53C175.43,272.6,77.94,344.2,77.94,344.2a51.12,51.12,0,1,0,71.33,72.56l.09.1s75.68-94.34,104-122.67c22.49-22.5,99.31-80.66,99.31-80.66,26.32,5.57,53.73-1,73-20.26C447.49,171.44,453.07,139.09,443,109.75Z"/><path class="cls-2" d="M85.83,249.59H443.55a16.3,16.3,0,0,1,16.3,16.3v20.47a16.3,16.3,0,0,1-16.3,16.3H85.83a0,0,0,0,1,0,0V249.59A0,0,0,0,1,85.83,249.59Z" transform="translate(275.16 -112.05) rotate(45)"/><polygon class="cls-1" points="185.54 115.37 150.14 79.97 159.55 0 114.86 44.69 114.82 44.73 43.08 116.47 59.75 133.15 21.21 139.35 0 160.56 70.68 231.24 91.89 210.03 96.08 169.48 113.76 187.15 185.54 115.37"/></g></g></svg>