<svg xmlns="http://www.w3.org/2000/svg" xmlns:xlink="http://www.w3.org/1999/xlink" width="198.848" height="198.848" viewBox="0 0 198.848 198.848"><defs><filter id="a" x="78.78" y="0" width="42.24" height="39.24" filterUnits="userSpaceOnUse"><feOffset dy="3" input="SourceAlpha"/><feGaussianBlur stdDeviation="3" result="b"/><feFlood flood-opacity="0.161"/><feComposite operator="in" in2="b"/><feComposite in="SourceGraphic"/></filter><filter id="c" x="78.78" y="8.107" width="42.24" height="39.24" filterUnits="userSpaceOnUse"><feOffset dy="3" input="SourceAlpha"/><feGaussianBlur stdDeviation="3" result="d"/><feFlood flood-opacity="0.161"/><feComposite operator="in" in2="d"/><feComposite in="SourceGraphic"/></filter><filter id="e" x="78.78" y="151.501" width="42.24" height="39.24" filterUnits="userSpaceOnUse"><feOffset dy="3" input="SourceAlpha"/><feGaussianBlur stdDeviation="3" result="f"/><feFlood flood-opacity="0.161"/><feComposite operator="in" in2="f"/><feComposite in="SourceGraphic"/></filter><filter id="g" x="78.78" y="159.608" width="42.24" height="39.24" filterUnits="userSpaceOnUse"><feOffset dy="3" input="SourceAlpha"/><feGaussianBlur stdDeviation="3" result="h"/><feFlood flood-opacity="0.161"/><feComposite operator="in" in2="h"/><feComposite in="SourceGraphic"/></filter><filter id="i" x="159.608" y="78.304" width="39.24" height="42.24" filterUnits="userSpaceOnUse"><feOffset dy="3" input="SourceAlpha"/><feGaussianBlur stdDeviation="3" result="j"/><feFlood flood-opacity="0.161"/><feComposite operator="in" in2="j"/><feComposite in="SourceGraphic"/></filter><filter id="k" x="151.501" y="78.304" width="39.24" height="42.24" filterUnits="userSpaceOnUse"><feOffset dy="3" input="SourceAlpha"/><feGaussianBlur stdDeviation="3" result="l"/><feFlood flood-opacity="0.161"/><feComposite operator="in" in2="l"/><feComposite in="SourceGraphic"/></filter><filter id="m" x="8.107" y="78.304" width="39.24" height="42.24" filterUnits="userSpaceOnUse"><feOffset dy="3" input="SourceAlpha"/><feGaussianBlur stdDeviation="3" result="n"/><feFlood flood-opacity="0.161"/><feComposite operator="in" in2="n"/><feComposite in="SourceGraphic"/></filter><filter id="o" x="0" y="78.304" width="39.24" height="42.24" filterUnits="userSpaceOnUse"><feOffset dy="3" input="SourceAlpha"/><feGaussianBlur stdDeviation="3" result="p"/><feFlood flood-opacity="0.161"/><feComposite operator="in" in2="p"/><feComposite in="SourceGraphic"/></filter><filter id="q" x="131.111" y="18.251" width="50.159" height="50.159" filterUnits="userSpaceOnUse"><feOffset dy="3" input="SourceAlpha"/><feGaussianBlur stdDeviation="3" result="r"/><feFlood flood-opacity="0.161"/><feComposite operator="in" in2="r"/><feComposite in="SourceGraphic"/></filter><filter id="s" x="125.379" y="23.984" width="50.159" height="50.159" filterUnits="userSpaceOnUse"><feOffset dy="3" input="SourceAlpha"/><feGaussianBlur stdDeviation="3" result="t"/><feFlood flood-opacity="0.161"/><feComposite operator="in" in2="t"/><feComposite in="SourceGraphic"/></filter><filter id="u" x="23.983" y="125.379" width="50.159" height="50.159" filterUnits="userSpaceOnUse"><feOffset dy="3" input="SourceAlpha"/><feGaussianBlur stdDeviation="3" result="v"/><feFlood flood-opacity="0.161"/><feComposite operator="in" in2="v"/><feComposite in="SourceGraphic"/></filter><filter id="w" x="18.251" y="131.111" width="50.159" height="50.159" filterUnits="userSpaceOnUse"><feOffset dy="3" input="SourceAlpha"/><feGaussianBlur stdDeviation="3" result="x"/><feFlood flood-opacity="0.161"/><feComposite operator="in" in2="x"/><feComposite in="SourceGraphic"/></filter><filter id="y" x="130.774" y="130.775" width="50.159" height="50.159" filterUnits="userSpaceOnUse"><feOffset dy="3" input="SourceAlpha"/><feGaussianBlur stdDeviation="3" result="z"/><feFlood flood-opacity="0.161"/><feComposite operator="in" in2="z"/><feComposite in="SourceGraphic"/></filter><filter id="aa" x="125.042" y="125.042" width="50.159" height="50.159" filterUnits="userSpaceOnUse"><feOffset dy="3" input="SourceAlpha"/><feGaussianBlur stdDeviation="3" result="ab"/><feFlood flood-opacity="0.161"/><feComposite operator="in" in2="ab"/><feComposite in="SourceGraphic"/></filter><filter id="ac" x="23.647" y="23.647" width="50.159" height="50.159" filterUnits="userSpaceOnUse"><feOffset dy="3" input="SourceAlpha"/><feGaussianBlur stdDeviation="3" result="ad"/><feFlood flood-opacity="0.161"/><feComposite operator="in" in2="ad"/><feComposite in="SourceGraphic"/></filter><filter id="ae" x="17.915" y="17.914" width="50.159" height="50.159" filterUnits="userSpaceOnUse"><feOffset dy="3" input="SourceAlpha"/><feGaussianBlur stdDeviation="3" result="af"/><feFlood flood-opacity="0.161"/><feComposite operator="in" in2="af"/><feComposite in="SourceGraphic"/></filter><filter id="ag" x="38.584" y="66.617" width="121.088" height="66.262" filterUnits="userSpaceOnUse"><feOffset dy="3" input="SourceAlpha"/><feGaussianBlur stdDeviation="3" result="ah"/><feFlood flood-opacity="0.251"/><feComposite operator="in" in2="ah"/><feComposite in="SourceGraphic"/></filter></defs><g transform="translate(-1542.787 -3464.365)"><g transform="matrix(1, 0, 0, 1, 1542.79, 3464.37)" filter="url(#a)"><path d="M12.12,0,24.24,21.24H0Z" transform="translate(87.78 6)" fill="#ffd800"/></g><g transform="matrix(1, 0, 0, 1, 1542.79, 3464.37)" filter="url(#c)"><path d="M12.12,0,24.24,21.24H0Z" transform="translate(112.02 35.35) rotate(180)" fill="#ffd800"/></g><g transform="matrix(1, 0, 0, 1, 1542.79, 3464.37)" filter="url(#e)"><path d="M12.12,0,24.24,21.24H0Z" transform="translate(87.78 157.5)" fill="#ffd800"/></g><g transform="matrix(1, 0, 0, 1, 1542.79, 3464.37)" filter="url(#g)"><path d="M12.12,0,24.24,21.24H0Z" transform="translate(112.02 186.85) rotate(180)" fill="#ffd800"/></g><g transform="matrix(1, 0, 0, 1, 1542.79, 3464.37)" filter="url(#i)"><path d="M12.12,0,24.24,21.24H0Z" transform="translate(189.85 84.3) rotate(90)" fill="#ffd800"/></g><g transform="matrix(1, 0, 0, 1, 1542.79, 3464.37)" filter="url(#k)"><path d="M12.12,0,24.24,21.24H0Z" transform="translate(160.5 108.54) rotate(-90)" fill="#ffd800"/></g><g transform="matrix(1, 0, 0, 1, 1542.79, 3464.37)" filter="url(#m)"><path d="M12.12,0,24.24,21.24H0Z" transform="translate(38.35 84.3) rotate(90)" fill="#ffd800"/></g><g transform="matrix(1, 0, 0, 1, 1542.79, 3464.37)" filter="url(#o)"><path d="M12.12,0,24.24,21.24H0Z" transform="translate(9 108.54) rotate(-90)" fill="#ffd800"/></g><g transform="matrix(1, 0, 0, 1, 1542.79, 3464.37)" filter="url(#q)"><path d="M12.12,0,24.24,21.24H0Z" transform="translate(155.13 24.25) rotate(45)" fill="#ffd800"/></g><g transform="matrix(1, 0, 0, 1, 1542.79, 3464.37)" filter="url(#s)"><path d="M12.12,0,24.24,21.24H0Z" transform="translate(151.52 62.14) rotate(-135)" fill="#ffd800"/></g><g transform="matrix(1, 0, 0, 1, 1542.79, 3464.37)" filter="url(#u)"><path d="M12.12,0,24.24,21.24H0Z" transform="translate(48 131.38) rotate(45)" fill="#ffd800"/></g><g transform="matrix(1, 0, 0, 1, 1542.79, 3464.37)" filter="url(#w)"><path d="M12.12,0,24.24,21.24H0Z" transform="translate(44.39 169.27) rotate(-135)" fill="#ffd800"/></g><g transform="matrix(1, 0, 0, 1, 1542.79, 3464.37)" filter="url(#y)"><path d="M12.12,0,24.24,21.24H0Z" transform="translate(171.93 151.79) rotate(135)" fill="#ffd800"/></g><g transform="matrix(1, 0, 0, 1, 1542.79, 3464.37)" filter="url(#aa)"><path d="M12.12,0,24.24,21.24H0Z" transform="translate(134.04 148.18) rotate(-45)" fill="#ffd800"/></g><g transform="matrix(1, 0, 0, 1, 1542.79, 3464.37)" filter="url(#ac)"><path d="M12.12,0,24.24,21.24H0Z" transform="translate(64.81 44.67) rotate(135)" fill="#ffd800"/></g><g transform="matrix(1, 0, 0, 1, 1542.79, 3464.37)" filter="url(#ae)"><path d="M12.12,0,24.24,21.24H0Z" transform="translate(26.91 41.05) rotate(-45)" fill="#ffd800"/></g><g transform="matrix(1, 0, 0, 1, 1542.79, 3464.37)" filter="url(#ag)"><path d="M-39.923-17.773v12.3a5.749,5.749,0,0,1-1.526,4.242A5.9,5.9,0,0,1-45.758.244a5.953,5.953,0,0,1-4.364-1.489A5.793,5.793,0,0,1-51.63-5.554V-17.773h3.613V-5.542a3.663,3.663,0,0,0,.488,2.161,2.093,2.093,0,0,0,1.77.647A2.066,2.066,0,0,0-44-3.375a3.65,3.65,0,0,0,.488-2.106V-17.773ZM-24.774,0h-3.589l-5.249-11.658V0H-37.2V-17.773h3.589L-28.351-6.1v-11.67h3.577Zm6.628,0h-3.589V-17.773h3.589ZM-2.631-7.507q0,4.407-2.38,6.409l2.454,2.2L-4.816,3.174-8.087.183l-.94.061A5.806,5.806,0,0,1-13.745-1.8,8.632,8.632,0,0,1-15.46-7.458v-2.783a8.738,8.738,0,0,1,1.7-5.719,5.773,5.773,0,0,1,4.712-2.057A5.828,5.828,0,0,1-4.4-16.04a8.463,8.463,0,0,1,1.77,5.554Zm-3.6-2.759a7.179,7.179,0,0,0-.7-3.589,2.31,2.31,0,0,0-2.124-1.16,2.3,2.3,0,0,0-2.112,1.129,6.935,6.935,0,0,0-.708,3.436v2.942a7.158,7.158,0,0,0,.7,3.6,2.334,2.334,0,0,0,2.142,1.16A2.277,2.277,0,0,0-6.934-3.9a7.112,7.112,0,0,0,.7-3.522Zm17.749-7.507v12.3A5.749,5.749,0,0,1,9.991-1.227,5.9,5.9,0,0,1,5.682.244,5.953,5.953,0,0,1,1.318-1.245,5.793,5.793,0,0,1-.189-5.554V-17.773H3.424V-5.542a3.663,3.663,0,0,0,.488,2.161,2.093,2.093,0,0,0,1.77.647A2.066,2.066,0,0,0,7.44-3.375a3.65,3.65,0,0,0,.488-2.106V-17.773ZM23.419-7.69H17.828v4.712h6.616V0H14.24V-17.773H24.42v2.991H17.828v4.2h5.591ZM36.017,0H32.428V-17.773h3.589ZM51.459,0H47.87L42.621-11.658V0H39.032V-17.773h3.589L47.882-6.1v-11.67h3.577ZM-30.377,22.31h-5.591v4.712h6.616V30H-39.557V12.227h10.181v2.991h-6.592v4.2h5.591Zm14.648-10.083v12.3a5.749,5.749,0,0,1-1.526,4.242,5.9,5.9,0,0,1-4.309,1.471,5.953,5.953,0,0,1-4.364-1.489,5.793,5.793,0,0,1-1.508-4.309V12.227h3.613V24.458a3.663,3.663,0,0,0,.488,2.161,2.093,2.093,0,0,0,1.77.647,2.066,2.066,0,0,0,1.758-.641,3.65,3.65,0,0,0,.488-2.106V12.227Zm8.105,11.279H-9.406V30h-3.589V12.227h5.725a5.815,5.815,0,0,1,4.169,1.4A5.22,5.22,0,0,1-1.63,17.6q0,3.54-2.576,4.956l3.113,7.275V30H-4.95Zm-1.782-2.991h2.039A1.888,1.888,0,0,0-5.756,19.8a3.1,3.1,0,0,0,.537-1.91q0-2.673-2.087-2.673h-2.1Zm22.754,2.2a8.291,8.291,0,0,1-1.691,5.554,5.844,5.844,0,0,1-4.694,1.978,5.911,5.911,0,0,1-4.7-1.959A8.169,8.169,0,0,1,.531,22.8v-3.04a8.738,8.738,0,0,1,1.7-5.719A5.773,5.773,0,0,1,6.94,11.982,5.8,5.8,0,0,1,11.615,14a8.618,8.618,0,0,1,1.733,5.67Zm-3.6-2.979a7.3,7.3,0,0,0-.684-3.577A2.288,2.288,0,0,0,6.94,14.985a2.3,2.3,0,0,0-2.112,1.129,6.935,6.935,0,0,0-.708,3.436v3.162a6.609,6.609,0,0,0,.7,3.436,2.36,2.36,0,0,0,2.148,1.1,2.3,2.3,0,0,0,2.087-1.08,6.482,6.482,0,0,0,.7-3.351Zm9.766,4.016V30H15.924V12.227h6.055a5.555,5.555,0,0,1,4.205,1.636,5.883,5.883,0,0,1,1.569,4.248,5.5,5.5,0,0,1-1.55,4.126,5.889,5.889,0,0,1-4.3,1.514Zm0-2.991h2.466a1.954,1.954,0,0,0,1.587-.671,2.973,2.973,0,0,0,.562-1.953,3.523,3.523,0,0,0-.574-2.118,1.84,1.84,0,0,0-1.538-.8h-2.5Zm19.812,1.55H33.734v4.712H40.35V30H30.145V12.227H40.326v2.991H33.734v4.2h5.591Z" transform="translate(99.21 90.63)" fill="#00599d"/></g></g></svg>