<svg xmlns="http://www.w3.org/2000/svg" width="161.26" height="52.189" viewBox="0 0 161.26 52.189"><g transform="translate(-81.166 -105.048)"><path d="M445.474,161.388H433.507l7.485-50.661h11.967Z" transform="translate(-294.803 -4.84)" fill="#00579f"/><path d="M601.077,107.2a27.337,27.337,0,0,0-10.734-2.151c-11.818,0-20.14,6.879-20.191,16.714-.1,7.256,5.958,11.287,10.488,13.706,4.63,2.472,6.2,4.086,6.2,6.29-.047,3.385-3.741,4.945-7.187,4.945a22.17,22.17,0,0,1-11.228-2.687l-1.576-.807-1.675,11.341a33.761,33.761,0,0,0,13.347,2.689c12.557,0,20.732-6.773,20.829-17.253.048-5.751-3.15-10.158-10.045-13.759-4.186-2.312-6.749-3.87-6.749-6.236.049-2.15,2.168-4.352,6.893-4.352a18.89,18.89,0,0,1,8.914,1.934l1.082.536,1.628-10.909h0Z" transform="translate(-403.863)" fill="#00579f"/><path d="M809.037,143.441c.985-2.91,4.778-14.175,4.778-14.175-.05.108.984-2.964,1.575-4.85l.836,4.365s2.266,12.127,2.758,14.66Zm14.772-32.714h-9.257c-2.855,0-5.023.915-6.255,4.2l-17.776,46.457h12.557s2.067-6.253,2.512-7.6h15.365c.344,1.779,1.428,7.6,1.428,7.6h11.081l-9.655-50.661Z" transform="translate(-591.038 -4.84)" fill="#00579f"/><path d="M195.382,110.727l-11.72,34.549-1.281-7.007c-2.167-8.085-8.962-16.87-16.546-21.237l10.735,44.307h12.655l18.81-50.612H195.382Z" transform="translate(-72.162 -4.84)" fill="#00579f"/><path d="M100.617,110.727H81.363l-.2.935c15.019,3.841,24.966,13.1,29.053,24.226l-4.186-21.271c-.689-2.956-2.807-3.793-5.417-3.89Z" transform="translate(0 -4.84)" fill="#faa61a"/></g></svg>