<svg xmlns="http://www.w3.org/2000/svg" viewBox="0 0 208.25 211.08"><defs><style>.cls-1{fill:#ddd;}.cls-2{fill:#b5b5b5;}.cls-3{fill:#32a4fc;}.cls-4{fill:#7ec6fd;}.cls-5{fill:#757575;}.cls-6{fill:#fff;}</style></defs><title>Asset 14</title><g id="Layer_2" data-name="Layer 2"><g id="_3d_printer_lasercutter_foodprinter_waterjet" data-name="3d printer lasercutter foodprinter waterjet"><rect class="cls-1" x="19.16" y="152.53" width="172.52" height="15.15"/><rect class="cls-1" x="17.56" y="51.57" width="173.29" height="7.08"/><path class="cls-2" d="M192.55,0H15.7A15.7,15.7,0,0,0,0,15.7V195.38a15.7,15.7,0,0,0,15.7,15.7H192.55a15.7,15.7,0,0,0,15.7-15.7V15.7A15.7,15.7,0,0,0,192.55,0ZM186.4,154.31A10.7,10.7,0,0,1,175.7,165H32.55a10.7,10.7,0,0,1-10.69-10.7V29.85a10.7,10.7,0,0,1,10.69-10.7H175.7a10.7,10.7,0,0,1,10.7,10.7Z"/><rect class="cls-3" x="86.69" y="83.07" width="5.41" height="69.46" rx="2.71"/><rect class="cls-4" x="88.61" y="83.13" width="1.57" height="69.39" rx="0.78"/><path class="cls-5" d="M91.2,88.24H87.37a1.58,1.58,0,0,1-1.51-1.08L77.54,62.51H101L92.71,87.16A1.59,1.59,0,0,1,91.2,88.24Z"/><rect class="cls-2" x="72.81" y="38.63" width="32.96" height="32.96" rx="6.34"/><path class="cls-6" d="M45.58,190.49l2.36-15.63h5l-4.43,24.88h-5l-2.9-14.66-2.88,14.66h-5l-4.45-24.88h5l2.34,15.62,2.92-15.62h4.22Z"/><path class="cls-6" d="M66.77,194.65H59.92l-1.34,5.09H53.27L61,174.86h4.6l7.83,24.88H68.1ZM61,190.46h4.65l-2.33-8.87Z"/><path class="cls-6" d="M89.86,179H83.7v20.7h-5V179h-6v-4.18H89.86Z"/><path class="cls-6" d="M105.6,189H97.77v6.6H107v4.17H92.75V174.86H107V179H97.77v5.88h7.83Z"/><path class="cls-6" d="M117.46,190.65H115v9.09h-5V174.86h8a8.16,8.16,0,0,1,5.84,1.95,7.33,7.33,0,0,1,2.06,5.57q0,5-3.61,6.94l4.36,10.18v.24h-5.4Zm-2.5-4.19h2.86a2.62,2.62,0,0,0,2.25-1,4.34,4.34,0,0,0,.75-2.67q0-3.75-2.92-3.75H115Z"/><path class="cls-6" d="M137.49,174.86h5v17.22a8.19,8.19,0,0,1-2,5.81,6.72,6.72,0,0,1-5.19,2.19,7,7,0,0,1-5.32-2,8,8,0,0,1-1.89-5.66h5c0,2.35.72,3.52,2.17,3.52s2.19-1.35,2.19-4.06Z"/><path class="cls-6" d="M159.31,189h-7.83v6.6h9.27v4.17H146.46V174.86h14.25V179h-9.23v5.88h7.83Z"/><path class="cls-6" d="M180.09,179h-6.15v20.7h-5V179h-6.05v-4.18h17.24Z"/><path class="cls-3" d="M93.92,148.85a.92.92,0,0,1,1.31-.13.93.93,0,0,1,.14,1.31,13.65,13.65,0,0,1-2.32,1.38A13.06,13.06,0,0,1,93.92,148.85Z"/><ellipse class="cls-4" cx="94.51" cy="148.69" rx="0.27" ry="0.1" transform="translate(-24.79 19.04) rotate(-10.18)"/><path class="cls-3" d="M99.59,146.48a.93.93,0,0,1,1.14-.67.92.92,0,0,1,.67,1.13,13.44,13.44,0,0,1-1.54,2.22A14.13,14.13,0,0,1,99.59,146.48Z"/><ellipse class="cls-4" cx="100.06" cy="146.09" rx="0.27" ry="0.1" transform="translate(-65.33 82.86) rotate(-34.67)"/><path class="cls-3" d="M95.25,133.62a.94.94,0,0,1,1.24-.45A.93.93,0,0,1,97,134.4a13.57,13.57,0,0,1-1.9,1.91A13.68,13.68,0,0,1,95.25,133.62Z"/><ellipse class="cls-4" cx="95.79" cy="133.32" rx="0.27" ry="0.1" transform="translate(-46.7 51.79) rotate(-24.52)"/><path class="cls-3" d="M96.14,143.29a.93.93,0,1,1,1,1.57,13.17,13.17,0,0,1-2.63.58A13.16,13.16,0,0,1,96.14,143.29Z"/><ellipse class="cls-4" cx="96.75" cy="143.33" rx="0.1" ry="0.27" transform="translate(-59.07 218.32) rotate(-81.68)"/><path class="cls-3" d="M84.08,149.63a.93.93,0,0,0-1.63.91,13.91,13.91,0,0,0,2,1.76A13.54,13.54,0,0,0,84.08,149.63Z"/><ellipse class="cls-4" cx="83.53" cy="149.38" rx="0.1" ry="0.27" transform="translate(-85.39 176.87) rotate(-70.03)"/><path class="cls-3" d="M80,145.58a.93.93,0,0,0-1,1.58,13.67,13.67,0,0,0,2.64.55A13.06,13.06,0,0,0,80,145.58Z"/><ellipse class="cls-4" cx="79.35" cy="145.62" rx="0.27" ry="0.1" transform="translate(-21.27 13.8) rotate(-8.77)"/><path class="cls-3" d="M83.41,142A.93.93,0,1,0,82,143.22a13.09,13.09,0,0,0,2.31,1.37A13.55,13.55,0,0,0,83.41,142Z"/><ellipse class="cls-4" cx="82.82" cy="141.88" rx="0.1" ry="0.27" transform="translate(-71.47 198.32) rotate(-79.82)"/><path class="cls-3" d="M84,136.56a.93.93,0,1,0-1.79.53,13.28,13.28,0,0,0,1.62,2.16A13.2,13.2,0,0,0,84,136.56Z"/><ellipse class="cls-4" cx="83.52" cy="136.19" rx="0.1" ry="0.27" transform="translate(-76.22 133.7) rotate(-57.59)"/></g></g></svg>